<svg width="48" height="48" viewBox="0 0 48 48" fill="none" xmlns="http://www.w3.org/2000/svg">
<g clip-path="url(#clip0_318_801)">
<path fill-rule="evenodd" clip-rule="evenodd" d="M27 17H7V15H9V11H11V9H13V7H15V5H27V17ZM7 21V47H9V49H49V47H51V21H7ZM31 43V47H27V43H23V39H31V37H25V35H23V27H27V23H31V27H35V31H27V33H33V35H35V43H31ZM51 17V15H49V11H47V9H45V7H43V5H31V17H51Z" fill="#FF7209"/>
<path fill-rule="evenodd" clip-rule="evenodd" d="M22 14H2V12H4V8H6V6H8V4H10V2H22V14ZM2 18V44H4V46H44V44H46V18H2ZM26 40V44H22V40H18V36H26V34H20V32H18V24H22V20H26V24H30V28H22V30H28V32H30V40H26ZM46 14V12H44V8H42V6H40V4H38V2H26V14H46Z" fill="#252525"/>
</g>
<defs>
<clipPath id="clip0_318_801">
<rect width="48" height="48" fill="white"/>
</clipPath>
</defs>
</svg>
