<svg width="694" height="250" viewBox="0 0 694 250" fill="none" xmlns="http://www.w3.org/2000/svg">
<path d="M454.316 124.344C454.316 100.262 459.295 78.8436 469.252 60.0878C479.44 41.1005 493.796 26.3969 512.32 15.9771C530.844 5.32569 552.147 0 576.229 0C606.794 0 632.496 8.2201 653.336 24.6603C674.175 40.869 687.605 62.9822 693.626 91.0001H620.34C615.94 81.738 609.804 74.6756 601.931 69.813C594.29 64.9504 585.375 62.5191 575.187 62.5191C559.441 62.5191 546.822 68.1922 537.328 79.5382C528.066 90.6527 523.435 105.588 523.435 124.344C523.435 143.331 528.066 158.498 537.328 169.844C546.822 180.958 559.441 186.515 575.187 186.515C585.375 186.515 594.29 184.084 601.931 179.222C609.804 174.359 615.94 167.297 620.34 158.034H693.626C687.605 186.052 674.175 208.281 653.336 224.722C632.496 240.93 606.794 249.035 576.229 249.035C552.147 249.035 530.844 243.825 512.32 233.405C493.796 222.753 479.44 208.05 469.252 189.294C459.295 170.307 454.316 148.657 454.316 124.344Z" fill="#FA5F1D" fill-opacity="0.07"/>
<path d="M357.019 247.298L308.393 156.992H301.099V247.298H233.022V2.43121H340.347C360.029 2.43121 376.701 5.9045 390.362 12.8511C404.024 19.5661 414.328 28.944 421.275 40.9847C428.221 52.7939 431.694 66.1081 431.694 80.9275C431.694 97.5992 427.063 112.303 417.801 125.038C408.771 137.542 395.456 146.457 377.858 151.783L433.084 247.298H357.019ZM301.099 110.45H334.79C344.052 110.45 350.998 108.251 355.629 103.851C360.26 99.4517 362.576 93.084 362.576 84.7481C362.576 76.8753 360.145 70.7392 355.282 66.3397C350.651 61.7086 343.82 59.3931 334.79 59.3931H301.099V110.45Z" fill="#FA5F1D" fill-opacity="0.07"/>
<path d="M156.298 121.565C170.654 124.807 182 131.985 190.336 143.099C198.904 153.982 203.187 166.486 203.187 180.611C203.187 201.45 196.009 217.775 181.653 229.584C167.297 241.393 147.152 247.298 121.218 247.298H0V2.43121H117.397C142.405 2.43121 161.971 7.98849 176.096 19.103C190.452 30.2175 197.63 45.8473 197.63 65.9924C197.63 80.3486 193.809 92.3893 186.168 102.115C178.758 111.608 168.802 118.092 156.298 121.565ZM68.0764 99.6832H102.462C119.597 99.6832 128.164 92.6209 128.164 78.4962C128.164 63.9084 119.597 56.6145 102.462 56.6145H68.0764V99.6832ZM107.672 192.42C124.807 192.42 133.374 185.242 133.374 170.886C133.374 163.476 131.059 157.803 126.428 153.866C122.028 149.93 115.66 147.962 107.325 147.962H68.0764V192.42H107.672Z" fill="#FA5F1D" fill-opacity="0.07"/>
</svg>
