<svg width="609" height="587" viewBox="0 0 609 587" fill="none" xmlns="http://www.w3.org/2000/svg">
<path d="M115.698 316.236L223.778 162.429L104.613 179.057L115.698 316.236Z" stroke="#FF6F32" stroke-opacity="0.36" stroke-width="0.570936" stroke-miterlimit="10"/>
<path d="M3.47185 68.2039L104.624 179.056L164.207 111.159L284.065 214.39V0.999979L597.222 150.65L604.15 28.7129L403.231 57.8115L389.375 157.578L288.222 214.39L115.016 315.542L350.576 347.412" stroke="#FF6F32" stroke-opacity="0.36" stroke-width="0.570936" stroke-miterlimit="10"/>
<path d="M494.685 251.802L491.775 153.477L403.232 57.8115L282.681 64.7398" stroke="#FF6F32" stroke-opacity="0.36" stroke-width="0.570936" stroke-miterlimit="10"/>
<path d="M604.15 28.7154L502.443 105.355L476.726 47.1722" stroke="#FF6F32" stroke-opacity="0.36" stroke-width="0.570936" stroke-miterlimit="10"/>
<path d="M502.998 104.926L491.913 153.424" stroke="#FF6F32" stroke-opacity="0.36" stroke-width="0.570936" stroke-miterlimit="10"/>
<path d="M198.144 581.587L97.6846 557.339L4.15344 207.463" stroke="#FF6F32" stroke-opacity="0.53" stroke-width="0.570936" stroke-miterlimit="10"/>
<path d="M92.8462 469.349L3.47191 463.113L100.467 558.723L92.1533 468.656L115.709 314.849L139.265 456.185L196.077 580.893L349.884 346.719L388.682 156.885L597.915 149.957L495.377 251.109L284.758 64.047L223.79 162.428L104.624 179.056L3.47191 206.769L114.324 314.849L277.982 456.185H139.265L92.1533 468.656L197.463 580.893" stroke="#FF6F32" stroke-opacity="0.53" stroke-width="0.570936" stroke-miterlimit="10"/>
<path d="M4.15368 461.036L116.391 316.929" stroke="#FF6F32" stroke-opacity="0.53" stroke-width="0.570936" stroke-miterlimit="10"/>
<path d="M105.306 176.979L175.53 231.102L4.15342 207.463L45.321 114.084L164.888 111.853L282.668 64.7411" stroke="#FF6F32" stroke-opacity="0.36" stroke-width="0.570936" stroke-miterlimit="10"/>
<path d="M115.697 307.922C111.106 307.922 107.383 311.644 107.383 316.236C107.383 320.828 111.106 324.55 115.697 324.55C120.289 324.55 124.011 320.828 124.011 316.236C124.011 311.644 120.289 307.922 115.697 307.922Z" fill="#FF8022"/>
<path d="M196.065 575.352C193.004 575.352 190.523 577.834 190.523 580.895C190.523 583.956 193.004 586.437 196.065 586.437C199.126 586.437 201.608 583.956 201.608 580.895C201.608 577.834 199.126 575.352 196.065 575.352Z" fill="#FF8022"/>
<path d="M97.6845 551.796C94.6234 551.796 92.1419 554.278 92.1419 557.339C92.1419 560.4 94.6234 562.881 97.6845 562.881C100.746 562.881 103.227 560.4 103.227 557.339C103.227 554.278 100.746 551.796 97.6845 551.796Z" fill="#FF8022"/>
<path d="M390.067 149.959C386.241 149.959 383.139 153.061 383.139 156.888C383.139 160.714 386.241 163.816 390.067 163.816C393.894 163.816 396.996 160.714 396.996 156.888C396.996 153.061 393.894 149.959 390.067 149.959Z" fill="#FF8022"/>
<path d="M495.377 242.795C490.785 242.795 487.063 246.518 487.063 251.109C487.063 255.701 490.785 259.423 495.377 259.423C499.968 259.423 503.69 255.701 503.69 251.109C503.69 246.518 499.968 242.795 495.377 242.795Z" fill="#FF8022"/>
<path d="M272.969 336.328L195.373 287.83L310.382 268.431L273.662 336.328L279.897 458.265L152.418 321.086L285.44 217.162L350.565 347.413" stroke="#FF6F32" stroke-opacity="0.36" stroke-width="0.570936" stroke-miterlimit="10"/>
<path d="M284.746 210.927C281.685 210.927 279.204 213.408 279.204 216.47C279.204 219.531 281.685 222.012 284.746 222.012C287.808 222.012 290.289 219.531 290.289 216.47C290.289 213.408 287.808 210.927 284.746 210.927Z" fill="#FF8022"/>
<path d="M597.914 144.417C594.853 144.417 592.372 146.898 592.372 149.959C592.372 153.02 594.853 155.502 597.914 155.502C600.976 155.502 603.457 153.02 603.457 149.959C603.457 146.898 600.976 144.417 597.914 144.417Z" fill="#FF8022"/>
<path d="M502.305 100.076C499.244 100.076 496.762 102.558 496.762 105.619C496.762 108.68 499.244 111.161 502.305 111.161C505.366 111.161 507.848 108.68 507.848 105.619C507.848 102.558 505.366 100.076 502.305 100.076Z" fill="#FF8022"/>
<path d="M173.895 226.169C170.834 226.169 168.353 228.65 168.353 231.712C168.353 234.773 170.834 237.254 173.895 237.254C176.956 237.254 179.438 234.773 179.438 231.712C179.438 228.65 176.956 226.169 173.895 226.169Z" fill="#FF6F32" fill-opacity="0.53"/>
<path d="M4.66692 458.106C2.08965 458.106 0.000349998 460.196 0.000349998 462.773C0.000349998 465.35 2.08965 467.44 4.66692 467.44C7.2442 467.44 9.3335 465.35 9.3335 462.773C9.3335 460.196 7.2442 458.106 4.66692 458.106Z" fill="#FF6F32" fill-opacity="0.53"/>
<path d="M476.672 43.9574C475.141 43.9574 473.9 45.1981 473.9 46.7286C473.9 48.2592 475.141 49.4999 476.672 49.4999C478.202 49.4999 479.443 48.2592 479.443 46.7286C479.443 45.1981 478.202 43.9574 476.672 43.9574Z" fill="#FF8022"/>
<path d="M165.581 108.39C164.05 108.39 162.809 109.631 162.809 111.161C162.809 112.692 164.05 113.933 165.581 113.933C167.111 113.933 168.352 112.692 168.352 111.161C168.352 109.631 167.111 108.39 165.581 108.39Z" fill="#FF8022"/>
<path d="M491.219 149.959C489.689 149.959 488.448 151.2 488.448 152.731C488.448 154.261 489.689 155.502 491.219 155.502C492.75 155.502 493.991 154.261 493.991 152.731C493.991 151.2 492.75 149.959 491.219 149.959Z" fill="#FF8022"/>
<path d="M196.066 284.366C194.535 284.366 193.294 285.607 193.294 287.138C193.294 288.668 194.535 289.909 196.066 289.909C197.596 289.909 198.837 288.668 198.837 287.138C198.837 285.607 197.596 284.366 196.066 284.366Z" fill="#FF8022"/>
<path d="M139.254 453.415C137.723 453.415 136.482 454.656 136.482 456.186C136.482 457.717 137.723 458.958 139.254 458.958C140.784 458.958 142.025 457.717 142.025 456.186C142.025 454.656 140.784 453.415 139.254 453.415Z" fill="#FF8022"/>
<path d="M104.613 170.744C100.021 170.744 96.299 174.466 96.299 179.057C96.299 183.649 100.021 187.371 104.613 187.371C109.205 187.371 112.927 183.649 112.927 179.057C112.927 174.466 109.205 170.744 104.613 170.744Z" fill="#FF8022"/>
<path d="M604.843 23.8656C602.547 23.8656 600.686 25.7267 600.686 28.0226C600.686 30.3184 602.547 32.1795 604.843 32.1795C607.139 32.1795 609 30.3184 609 28.0226C609 25.7267 607.139 23.8656 604.843 23.8656Z" fill="#FF8022"/>
<path d="M46.4148 111.161C44.119 111.161 42.2579 113.023 42.2579 115.318C42.2579 117.614 44.119 119.475 46.4148 119.475C48.7107 119.475 50.5718 117.614 50.5718 115.318C50.5718 113.023 48.7107 111.161 46.4148 111.161Z" fill="#FF8022"/>
<path d="M284.746 55.7355C280.155 55.7355 276.432 59.4578 276.432 64.0494C276.432 68.641 280.155 72.3633 284.746 72.3633C289.338 72.3633 293.06 68.641 293.06 64.0494C293.06 59.4578 289.338 55.7355 284.746 55.7355Z" fill="#FF8022"/>
<path d="M277.819 452.03C275.523 452.03 273.662 453.891 273.662 456.187C273.662 458.482 275.523 460.343 277.819 460.343C280.115 460.343 281.976 458.482 281.976 456.187C281.976 453.891 280.115 452.03 277.819 452.03Z" fill="#FF8022"/>
<path d="M311.074 263.581C308.778 263.581 306.917 265.443 306.917 267.738C306.917 270.034 308.778 271.895 311.074 271.895C313.37 271.895 315.231 270.034 315.231 267.738C315.231 265.443 313.37 263.581 311.074 263.581Z" fill="#FF8022"/>
<path d="M92.1414 464.5C89.8456 464.5 87.9845 466.361 87.9845 468.657C87.9845 470.953 89.8456 472.814 92.1414 472.814C94.4372 472.814 96.2983 470.953 96.2983 468.657C96.2983 466.361 94.4372 464.5 92.1414 464.5Z" fill="#FF8022"/>
<path d="M273.662 330.092C270.6 330.092 268.119 332.574 268.119 335.635C268.119 338.696 270.6 341.178 273.662 341.178C276.723 341.178 279.204 338.696 279.204 335.635C279.204 332.574 276.723 330.092 273.662 330.092Z" fill="#FF8022"/>
</svg>
