<svg width="48" height="48" viewBox="0 0 48 48" fill="none" xmlns="http://www.w3.org/2000/svg">
<g clip-path="url(#clip0_318_861)">
<path fill-rule="evenodd" clip-rule="evenodd" d="M5 15.8636V12.3182H6.49999V8.77273H7.99998V7H15.4999V8.77273H16.9999V12.3182H18.4999V15.8636H19.9999V17.6364H21.4999V19.4091H22.9997H22.9999H24.4998H30.4997H31.9997H31.9998H33.4997V17.6364H34.9996V15.8636H36.4996V12.3182H37.9996V8.77273H39.4996V7H46.9995V8.77273H48.4995V12.3182H49.9995V15.8636H48.4995V19.4091H46.9995V21.1818H39.4996V19.4091H36.4996V21.1818H34.9996V22.9545H33.4998V24.7273H34.9998V28.2727H33.4998V30.0455H34.9996V31.8182H36.4996V33.5909H39.4996V31.8182H46.9995V33.5909H48.4995V37.1364H49.9995V40.6818H48.4995V44.2273H46.9995V46H39.4996V44.2273H37.9996V40.6818H36.4996V37.1364H34.9996V35.3636H33.4997V33.5909H31.9998H31.9997H30.4997H24.4998H22.9999H22.9997H21.4999V35.3636H19.9999V37.1364H18.4999V40.6818H16.9999V44.2273H15.4999V46H7.99998V44.2273H6.49999V40.6818H5V37.1364H6.49999V33.5909H7.99998V31.8182H15.4999V33.5909H18.4999V31.8182H19.9999V30.0455H21.4998V28.2727H19.9998V24.7273H21.4998V22.9545H19.9999V21.1818H18.4999V19.4091H15.4999V21.1818H7.99998V19.4091H6.49999V15.8636H5Z" fill="#FF7209"/>
<path fill-rule="evenodd" clip-rule="evenodd" d="M2 13.8636V10.3182H3.49999V6.77273H4.99998V5H12.4999V6.77273H13.9999V10.3182H15.4999V13.8636H16.9999V15.6364H18.4999V17.4091H19.9997H19.9999H21.4998H27.4997H28.9997H28.9998H30.4997V15.6364H31.9996V13.8636H33.4996V10.3182H34.9996V6.77273H36.4996V5H43.9995V6.77273H45.4995V10.3182H46.9995V13.8636H45.4995V17.4091H43.9995V19.1818H36.4996V17.4091H33.4996V19.1818H31.9996V20.9545H30.4998V22.7273H31.9998V26.2727H30.4998V28.0455H31.9996V29.8182H33.4996V31.5909H36.4996V29.8182H43.9995V31.5909H45.4995V35.1364H46.9995V38.6818H45.4995V42.2273H43.9995V44H36.4996V42.2273H34.9996V38.6818H33.4996V35.1364H31.9996V33.3636H30.4997V31.5909H28.9998H28.9997H27.4997H21.4998H19.9999H19.9997H18.4999V33.3636H16.9999V35.1364H15.4999V38.6818H13.9999V42.2273H12.4999V44H4.99998V42.2273H3.49999V38.6818H2V35.1364H3.49999V31.5909H4.99998V29.8182H12.4999V31.5909H15.4999V29.8182H16.9999V28.0455H18.4998V26.2727H16.9998V22.7273H18.4998V20.9545H16.9999V19.1818H15.4999V17.4091H12.4999V19.1818H4.99998V17.4091H3.49999V13.8636H2Z" fill="black"/>
</g>
<defs>
<clipPath id="clip0_318_861">
<rect width="48" height="48" fill="white"/>
</clipPath>
</defs>
</svg>
