<svg width="50" height="50" viewBox="0 0 50 50" fill="none" xmlns="http://www.w3.org/2000/svg">
<path d="M48 30V32H46V36H44V40H42V42H40V44H36V46H32V48H20V46H16V44H12V42H8V44H6V46H4V30H20V32H18V34H16V38H18V40H22V42H30V40H34V38H36V36H38V32H40V30H48Z" fill="#FF7209"/>
<path d="M48 6V22H32V20H34V18H36V14H34V12H30V10H22V12H18V14H16V16H14V20H12V22H4V20H6V16H8V12H10V10H12V8H16V6H20V4H32V6H36V8H40V10H44V8H46V6H48Z" fill="#FF7209"/>
<path d="M46 28V30H44V34H42V38H40V40H38V42H34V44H30V46H18V44H14V42H10V40H6V42H4V44H2V28H18V30H16V32H14V36H16V38H20V40H28V38H32V36H34V34H36V30H38V28H46Z" fill="black"/>
<path d="M46 4V20H30V18H32V16H34V12H32V10H28V8H20V10H16V12H14V14H12V18H10V20H2V18H4V14H6V10H8V8H10V6H14V4H18V2H30V4H34V6H38V8H42V6H44V4H46Z" fill="black"/>
</svg>
