<svg width="16" height="16" viewBox="0 0 16 16" fill="none" xmlns="http://www.w3.org/2000/svg">
<path fill-rule="evenodd" clip-rule="evenodd" d="M1.00008 8.00002C1.00008 7.86741 1.05276 7.74024 1.14653 7.64647C1.2403 7.5527 1.36747 7.50002 1.50008 7.50002H13.2931L10.1461 4.35402C10.0996 4.30753 10.0627 4.25234 10.0376 4.1916C10.0124 4.13087 9.99945 4.06577 9.99945 4.00002C9.99945 3.93428 10.0124 3.86918 10.0376 3.80844C10.0627 3.7477 10.0996 3.69251 10.1461 3.64602C10.1926 3.59953 10.2478 3.56266 10.3085 3.5375C10.3692 3.51234 10.4343 3.49939 10.5001 3.49939C10.5658 3.49939 10.6309 3.51234 10.6917 3.5375C10.7524 3.56266 10.8076 3.59953 10.8541 3.64602L14.8541 7.64602C14.9006 7.69247 14.9376 7.74764 14.9628 7.80839C14.988 7.86913 15.001 7.93425 15.001 8.00002C15.001 8.06579 14.988 8.13091 14.9628 8.19165C14.9376 8.2524 14.9006 8.30758 14.8541 8.35402L10.8541 12.354C10.8076 12.4005 10.7524 12.4374 10.6917 12.4625C10.6309 12.4877 10.5658 12.5007 10.5001 12.5007C10.4343 12.5007 10.3692 12.4877 10.3085 12.4625C10.2478 12.4374 10.1926 12.4005 10.1461 12.354C10.0996 12.3075 10.0627 12.2523 10.0376 12.1916C10.0124 12.1309 9.99945 12.0658 9.99945 12C9.99945 11.9343 10.0124 11.8692 10.0376 11.8084C10.0627 11.7477 10.0996 11.6925 10.1461 11.646L13.2931 8.50002H1.50008C1.36747 8.50002 1.2403 8.44734 1.14653 8.35357C1.05276 8.25981 1.00008 8.13263 1.00008 8.00002Z" fill="white"/>
</svg>
