<svg width="48" height="48" viewBox="0 0 48 48" fill="none" xmlns="http://www.w3.org/2000/svg">
<g clip-path="url(#clip0_8810_15291)">
<path d="M47.257 38.6042C45.865 36.846 44.1127 36.6903 42.7484 37.3595C40.2124 34.2395 37.1027 31.6418 34.0887 28.9589C34.8039 28.9917 35.5269 28.9248 36.2348 28.7527C38.6668 28.1964 40.8169 26.6593 42.213 24.6009C43.8306 22.7801 47.0806 20.0915 46.1779 16.9921C44.5315 9.98227 38.1798 2.90621 31.0557 1.32596C28.8741 0.930806 26.5204 1.42337 24.7425 2.76212C24.3084 3.13543 24.1583 3.58749 24.1998 4.00768C19.6311 7.74437 16.3131 11.6144 20.1846 17.6661C19.4559 18.3935 18.7269 19.1211 17.9981 19.849C16.0093 18.1637 14.065 16.432 12.218 14.5969C9.67754 12.8211 9.8446 10.1232 10.2179 7.39243C14.7356 6.68302 13.9397 -0.440569 9.05692 0.0215251C4.52992 0.468431 4.53835 6.56593 8.48017 7.36374C8.26116 9.59434 7.8451 11.8951 8.86351 13.907C11.1143 16.6669 13.5851 19.2361 15.9908 21.8556C14.4112 23.4361 12.8344 25.0196 11.263 26.6075C10.1829 25.2325 9.02879 23.8306 7.96388 22.4664C7.77966 22.2274 7.40935 21.8077 6.95495 21.3618C7.63032 19.5635 7.09116 17.221 4.91729 16.3698C-0.000178814 14.6761 -1.89852 22.3338 2.90382 23.5291C3.70285 23.7162 4.40795 23.6573 5.00523 23.427C5.50585 23.8602 6.0736 24.2273 6.64641 24.5371C7.9561 25.4306 9.08054 26.5718 10.1233 27.7605C8.24185 29.6686 6.37004 31.5842 4.51538 33.5119C3.42329 34.5392 2.22141 35.6168 1.7342 37.1177C-0.390648 44.4428 3.63807 49.0861 10.9477 45.549C12.4149 44.5662 11.5749 42.4951 11.5145 41.0708C16.2646 41.6206 16.8307 40.2854 16.2761 35.8381C22.5766 35.6494 21.2027 37.3101 21.3677 30.8741C24.6888 32.0396 26.0589 35.6753 28.1015 38.2676C28.4441 39.1286 28.316 40.0012 28.2222 40.9066C23.8034 41.7201 25.1732 48.7746 29.94 47.9298C34.1688 47.2582 33.5876 41.441 29.8457 40.8704C29.947 39.7112 30.0879 38.4957 29.5116 37.4498C27.1408 34.2616 25.1978 29.5271 20.6991 28.9918C20.1252 28.9842 19.6538 29.4433 19.6462 30.0171C19.6329 30.0565 19.6021 34.0177 19.5924 34.0592C18.2271 34.0124 16.8209 33.9949 15.4509 34.014C14.7966 34.0618 14.3126 34.647 14.3829 35.2982C14.425 36.5627 14.7354 37.9388 14.4485 39.1231C13.2637 39.4164 11.8973 39.0656 10.6645 39.0208C8.44848 39.3178 9.99263 42.3986 9.73745 43.8159C4.26826 46.1657 2.5637 42.9772 4.14451 37.9351C4.70541 36.6376 6.09141 35.7825 7.07813 34.7837C12.246 29.5993 17.9411 24.1234 22.8954 18.7547C23.3285 18.3125 23.3957 17.6069 23.0197 17.0865C20.3093 13.6371 20.1768 10.5827 23.3751 7.4499C24.0299 6.7284 24.7231 6.02349 25.4073 5.31146C25.7578 5.36893 26.1484 5.28943 26.5287 5.00931C32.7803 -0.646725 49.9002 16.3262 42.2786 21.8496C41.7722 22.4011 41.2198 22.9725 40.7304 23.6203C38.6026 26.9943 33.5083 28.7122 30.5933 25.342C30.196 24.8738 29.4644 24.8535 29.0429 25.3007C28.6444 25.7186 28.6599 26.3804 29.0778 26.7789C29.512 27.2079 29.9925 27.5762 30.5053 27.8827C32.8191 30.2109 35.074 32.612 37.024 35.2531C37.3098 35.7978 39.259 37.7502 41.0145 39.0114C40.2171 40.4454 40.3362 42.3605 42.3168 43.782C45.7282 45.7329 49.3598 41.9276 47.257 38.6042Z" fill="white"/>
<path d="M37.3407 12.4195C36.6297 8.17098 30.4265 9.07351 30.5628 13.2272C30.6441 18.1332 38.0538 16.9162 37.3407 12.4195Z" fill="white"/>
</g>
<defs>
<clipPath id="clip0_8810_15291">
<rect width="48" height="48" fill="white"/>
</clipPath>
</defs>
</svg>
