<svg width="48" height="48" viewBox="0 0 48 48" fill="none" xmlns="http://www.w3.org/2000/svg">
<path d="M46.8788 30.0846C45.9961 28.5849 44.4512 27.65 42.7972 27.3914C42.8605 27.0307 42.8795 26.6619 42.8683 26.2969C42.8576 25.4999 42.5331 24.7332 42.301 23.9751C41.945 22.5882 41.9478 21.1114 42.148 19.6933C42.4098 19.2411 42.2158 18.548 41.516 18.4694C38.5582 18.5163 36.6369 14.7678 38.5149 12.4608C40.7461 9.68433 45.1234 10.7272 45.8404 14.2854C46.068 15.1236 47.2769 15.1037 47.4658 14.2406C47.7105 13.058 47.5075 11.8325 46.911 10.7669C45.3197 7.96842 41.6357 7.21176 38.9736 8.90273C38.1449 9.37701 37.4924 9.99529 37.0056 10.697C36.4769 10.4671 35.9489 10.2382 35.4195 10.0159C33.6549 9.27811 31.5569 8.36048 29.7384 7.5532C30.0827 6.43748 30.0616 5.12929 29.5068 3.67729C27.0011 -2.78611 16.6109 -0.115738 18.2191 6.92704C18.2352 7.00373 18.2525 7.07911 18.2704 7.15373C16.1021 8.63048 13.9388 10.1843 11.5395 11.2278C11.2603 10.831 10.9251 10.4391 10.5256 10.0571C9.51239 9.21417 8.18507 8.80064 6.87567 8.79782C1.47211 8.53345 -1.54233 14.642 2.40529 18.5176C3.54623 19.505 4.76292 20.0188 5.94445 20.1654C6.03407 21.4089 5.92382 22.6649 5.8776 23.903C5.80823 25.2254 5.70361 26.5762 5.47523 27.8843C1.68501 28.6359 -1.54027 32.5649 1.75973 37.1219C4.29248 40.4032 9.01664 39.7387 11.2689 37.0715C12.2425 38.4172 13.9734 38.8635 15.5314 39.3315C16.6973 39.8557 17.7911 40.4811 18.8565 41.1847C18.6139 42.5508 18.8518 44.0604 19.7887 45.5534C20.8021 47.102 22.6282 47.9067 24.4377 47.9981C25.4883 48.0615 25.6592 46.5761 24.6234 46.3992C24.1603 46.3399 23.6448 46.2825 23.2034 46.1205C20.7183 45.3348 19.9837 42.115 21.5753 40.1702C23.7433 37.65 28.0963 39.0042 28.6692 42.2619C28.8464 43.1181 30.0636 43.1651 30.2945 42.3054C30.4556 41.694 30.4649 41.0578 30.3531 40.4399C32.7717 39.4117 35.1477 38.2851 37.4914 37.0936C38.3789 38.2929 39.6908 39.1476 41.3437 39.274C42.6457 39.6467 43.2029 38.0527 41.9451 37.7163C41.1041 37.6473 40.2448 37.4055 39.5944 36.853C37.9594 35.4858 37.5055 32.5166 39.1278 30.975C41.4729 29.1031 45.2575 30.6339 45.8624 33.5569C46.045 34.4136 47.2635 34.4523 47.488 33.5901C47.7912 32.403 47.5118 31.1209 46.8788 30.0846ZM29.1127 8.86973C31.2877 10.4323 33.7379 11.9092 35.9788 13.3417C35.829 14.3965 35.9429 15.4775 36.3034 16.4569C32.7683 18.5505 29.1275 20.5616 25.4173 22.3351C25.2636 18.6847 25.1732 15.0337 25.383 11.401C26.8882 11.0261 28.2686 10.1423 29.1127 8.86973ZM24.3802 1.59886C28.2487 1.55151 29.7081 7.3747 26.0659 8.92757C20.7505 11.4353 18.6331 1.78289 24.3802 1.59886ZM19.3799 9.54998C20.3944 10.8611 21.8642 11.5024 23.3876 11.5913C23.5014 14.9405 23.5408 18.3516 23.5279 21.7724C19.8669 19.7093 16.1324 17.8191 12.2768 16.3959C12.6861 15.3386 12.7677 14.1498 12.3977 12.9493C14.5465 11.5159 16.9894 10.5495 19.3799 9.54998ZM4.06345 11.9228C5.13089 10.3587 7.52498 9.98892 9.10607 10.9713C11.3816 12.3266 11.4194 16.1545 9.02151 17.3873C5.57114 19.1961 1.96551 15.1962 4.06345 11.9228ZM8.32992 36.8076C2.76914 38.4655 1.23182 29.6797 7.01179 29.3961C11.1001 29.2935 12.141 35.4935 8.32992 36.8076ZM8.18573 27.9195C8.09686 26.647 7.96476 24.8562 7.88761 23.8797C7.81973 22.6209 7.63439 21.3552 7.76207 20.1059C9.23395 19.8266 10.5419 19.0013 11.4314 17.8698C13.2436 19.3723 15.236 20.5718 17.2872 21.6976C18.7846 22.5027 20.3388 23.1948 21.902 23.8705C18.1279 25.4929 14.4245 27.3122 11.1836 29.8647C10.3754 28.8172 9.31992 28.1929 8.18573 27.9195ZM19.3963 39.5617C18.2266 38.6784 16.6828 37.5231 15.6814 36.7802C14.6499 36.0593 13.5566 35.4118 12.327 35.1089C12.5899 34.1917 12.6069 33.1619 12.2861 32.0551C12.2082 31.8016 12.1208 31.5612 12.0253 31.3322C16.0028 29.9397 19.7915 28.0668 23.4874 25.9965C23.4349 29.4464 23.3389 32.8834 23.2218 36.2542C21.6029 36.7813 20.1765 37.9975 19.3963 39.5617ZM29.8397 38.9629C29.8065 38.9001 29.7723 38.8378 29.7367 38.7764C28.6913 37.1854 27.3681 36.3433 26.0056 36.0699C25.9203 34.099 25.7712 30.6539 25.7712 30.654C25.7188 28.9288 25.6394 27.2 25.5589 25.4699C26.6186 25.9542 27.6658 26.4646 28.6842 27.0338C31.2856 28.3878 33.9089 29.7788 36.4333 31.2747C36.1339 32.2995 36.1109 33.4132 36.3337 34.4759C34.2112 36.0315 32.0164 37.4828 29.8397 38.9629ZM38.8578 28.155C38.1148 28.5821 37.5369 29.1468 37.1109 29.7952C33.8151 27.9147 30.5084 25.8632 27.1523 23.8735C30.4829 21.8909 33.7638 19.8249 37.0679 17.8891C37.8386 18.9418 38.9843 19.7264 40.4706 19.989C40.0674 22.4685 39.5401 25.1287 40.2477 27.5415C39.7642 27.6801 39.2958 27.8826 38.8578 28.155Z" fill="white"/>
</svg>
