<svg width="44" height="44" viewBox="0 0 44 44" fill="none" xmlns="http://www.w3.org/2000/svg">
<path d="M7.47971 5.9707C5.44585 6.53161 5.374 9.55435 7.36052 10.2405C11.244 11.3883 11.494 5.02359 7.47971 5.9707ZM7.06962 8.54975C6.00495 6.46183 9.86488 5.80948 9.73168 8.06919C9.63578 9.30676 7.64514 9.54842 7.06962 8.54975Z" fill="white"/>
<path d="M7.3243 33.6151C5.35231 34.2496 5.3927 37.2367 7.33573 37.8962C8.92066 38.4658 10.372 37.3749 10.295 35.7048C10.2789 34.1886 8.75274 33.1659 7.3243 33.6151ZM9.46283 36.2512C8.70367 37.4201 6.50059 36.6993 6.86694 35.2217C7.37844 33.372 10.3256 34.503 9.46283 36.2512Z" fill="white"/>
<path d="M12.4507 27.4583C11.9646 27.479 11.4528 27.4947 10.9256 27.5139C10.8198 27.485 10.7061 27.4653 10.5826 27.4588C9.20903 27.4371 7.89008 27.6998 6.55943 27.6687C5.52828 27.644 4.60429 27.3768 4.00531 26.4921C1.53635 23.0962 1.93217 18.5455 5.7359 16.361C5.88122 16.2793 6.02826 16.2065 6.17598 16.1378C8.4124 16.5311 10.8956 16.3548 12.9595 16.2655C13.1427 16.258 13.3263 16.2503 13.5096 16.2427C12.9165 18.207 14.6353 19.4659 13.8522 22.5914C13.696 23.7668 15.2599 23.8106 15.3383 22.6257C15.7148 20.5565 16.3548 18.2242 15.7961 16.1468C21.7954 15.8922 27.8548 15.6245 33.8587 15.5833C35.549 15.8153 37.0839 16.4606 37.8532 18.1148C38.4074 19.2939 40.209 18.3618 39.5493 17.2223C39.0164 16.2656 38.3375 15.5745 37.5581 15.0771C40.5856 13.5262 40.4148 8.98861 39.8453 5.85046C39.4221 0.671828 35.5544 -0.234805 31.1937 0.139622C22.6486 0.319143 13.554 -0.199055 5.06199 0.0892628C-0.393963 1.4554 -0.751374 7.97611 0.794971 12.4236C1.45084 13.8582 2.48397 14.7881 3.72206 15.3835C0.871798 17.5635 -0.687867 21.3304 0.755182 25.1207C1.37908 27.0875 2.21413 28.3092 3.25689 29.0578C1.98803 29.8173 1.01686 30.9665 0.601699 32.7212C-0.521837 38.7393 1.97626 44.3879 8.9092 43.1527C9.66768 43.0415 9.57392 41.9532 8.81063 41.9716C4.20107 42.1796 2.08746 40.4948 2.26896 35.7348C1.97617 31.6847 4.43113 30.4938 7.43719 30.1703C8.39143 30.193 9.42895 30.144 10.5492 30.0934C10.6401 30.0909 10.7252 30.0804 10.8068 30.0654C11.3859 30.0734 11.9568 30.0867 12.5051 30.0923C14.2634 30.0882 14.2167 27.3914 12.4507 27.4583ZM2.86837 10.7727C1.81392 6.73681 2.34982 1.54744 7.65977 1.96836C9.79693 2.01596 12.2227 2.01614 14.7559 1.99147C14.3639 4.26218 14.0103 6.68662 13.6248 8.93731C13.6883 10.6972 16.2014 10.6996 16.2711 8.94306C16.276 6.65345 16.1717 4.26647 16.0021 1.97746C21.2868 1.91129 26.9031 1.75558 31.2684 1.70762C33.8848 1.40951 37.7523 1.56265 38.1631 4.84053C38.5512 6.51406 38.8157 8.24182 38.7237 9.95377C38.6117 11.9631 37.939 13.8568 35.7378 14.0939C35.4519 14.0905 35.1652 14.0859 34.8784 14.0812C33.1309 13.7615 31.1947 13.8627 29.358 13.9314C25.6979 13.8049 22.02 13.6486 18.4173 13.6038C16.164 13.5295 13.8532 13.6623 11.5618 13.7159C11.3506 13.6968 11.1393 13.6784 10.928 13.6573C9.75181 13.4208 8.58599 13.4389 7.48007 13.6637C5.50009 13.4979 3.42137 12.8286 2.86837 10.7727Z" fill="white"/>
<path d="M8.86807 19.8476C6.357 18.6965 4.56797 22.5287 6.81788 23.9149C9.44548 25.4284 11.3932 21.0679 8.86807 19.8476ZM9.34709 21.8313C9.08902 23.5977 6.31507 23.2051 6.83541 21.3345C7.27051 19.8902 9.54758 20.2357 9.34709 21.8313Z" fill="white"/>
<path d="M40.5644 31.6027C41.3034 26.1285 35.9081 20.9576 30.3834 22.7004C29.8232 22.8775 29.5378 23.2666 29.4635 23.6906C27.8927 24.6625 26.0772 26.8863 25.951 27.7744C22.169 25.1371 17.4315 29.3053 17.714 33.4167C11.6946 34.7847 12.7096 44.0225 19.0316 43.8399C25.6284 43.1373 43.4279 46.95 43.9967 37.0819C43.9303 34.8075 42.5855 32.6408 40.5644 31.6027ZM41.77 37.4901C40.2163 42.8047 27.5546 41.0225 22.9957 41.4783C21.9524 41.4914 20.898 41.5044 19.8462 41.5916C18.7034 41.8159 17.3451 41.7364 16.504 40.8657C14.3509 38.7303 16.0419 34.8722 19.1024 34.9846C20.0859 34.7427 18.9678 33.2423 19.7007 31.5548C20.2703 29.8915 21.8624 28.3706 23.7033 28.5616C24.5868 28.6534 25.358 29.1646 25.9661 29.8153C26.3035 30.1852 26.9519 29.9996 27.0368 29.4997C27.3703 27.701 28.4978 26.0336 30.0739 25.1059C30.3802 25.3003 30.7814 25.364 31.2434 25.1905C33.1387 24.4002 35.3024 24.8843 36.8623 26.2269C38.438 27.5497 39.3806 29.6158 39.3085 31.6962C39.0934 32.0112 39.1058 32.4813 39.5341 32.757C41.0925 33.7571 42.0434 35.643 41.77 37.4901Z" fill="white"/>
</svg>
