<svg width="52" height="48" viewBox="0 0 52 48" fill="none" xmlns="http://www.w3.org/2000/svg">
<path d="M49.8312 40.9408C49.8799 43.4941 47.6489 46.1664 44.9698 45.8861C32.2512 45.7611 19.5121 46.423 6.83225 45.2871C1.72253 45.1415 3.4102 38.4125 3.07098 34.9741C3.12186 27.1661 3.07464 19.1717 2.84419 11.311C18.4462 12.038 34.082 11.7889 49.6654 11.9872C49.8377 11.9854 49.9944 11.9618 50.1384 11.923C50.1567 16.8574 49.5509 22.5026 49.7922 25.7619C49.7922 25.7619 49.7592 30.0423 49.759 30.0423C49.7347 31.1578 51.4902 31.1775 51.4823 30.0552C51.3658 22.1676 52.3377 14.2784 51.8736 6.39314C51.4797 0.969508 47.3937 -0.0621749 42.7077 0.00280743C37.0017 -0.00431113 31.3341 0.460328 25.6421 0.632801C20.1821 0.862629 14.136 0.99961 8.67337 1.22883C4.60244 0.541886 0.210066 1.51357 0.148214 6.50277C-0.186942 13.3003 0.171472 21.6233 0.0307064 28.9825C0.0258314 31.3337 0.0848392 33.7613 0.226417 36.1097C0.37216 39.9517 -0.0611059 45.4716 4.24575 47.2285C5.00158 47.5145 5.80067 47.6371 6.60474 47.6586C19.3916 48.4222 32.2119 47.6682 45.0024 47.6559C48.6431 47.9068 51.6105 44.4121 51.5546 40.9198C51.4957 39.773 49.8601 39.7961 49.8312 40.9408ZM45.4901 3.12582C46.8723 2.56783 48.2365 3.18867 49.0054 4.24557C49.2705 4.78892 49.4788 5.4296 49.6402 6.14694C49.6372 6.63416 49.5107 7.12819 49.23 7.59089C48.0058 9.31003 44.9494 9.19308 43.9323 7.3148C43.0789 5.49854 43.4689 3.83239 45.4901 3.12582ZM42.6516 2.48444C42.5004 2.61827 42.3568 2.76105 42.2221 2.91278C42.1554 2.78637 42.0835 2.662 42.0057 2.54007C42.2211 2.52156 42.4364 2.50295 42.6516 2.48444ZM41.6645 9.0441C41.6646 9.0443 41.6647 9.04461 41.6648 9.04481C41.6645 9.04481 41.6642 9.04481 41.6639 9.04481C41.6641 9.04461 41.6643 9.0444 41.6645 9.0441ZM39.4521 3.45094C40.3981 3.89565 40.9017 4.6256 41.0551 5.41576C40.9947 5.81715 40.9802 6.24264 41.0172 6.69029C40.6557 8.17431 39.2313 9.45087 37.3465 9.03434C36.3876 8.85261 35.6404 8.19109 35.3797 7.23242C34.3856 4.66852 37.0613 2.57139 39.4521 3.45094ZM2.69845 6.98185C2.52376 4.4273 3.70463 3.1485 6.29254 3.05118C7.0374 2.98833 7.81882 2.96301 8.60685 2.95396C8.60786 2.95396 8.60878 2.95376 8.60979 2.95376C16.7441 4.05327 24.9723 3.82883 33.1525 3.25457C32.6844 4.19117 32.5042 5.27116 32.7533 6.38623C32.9403 7.44303 33.3621 8.49668 34.0313 9.32203C26.0705 9.64836 18.1158 10.0159 10.1454 9.73562C7.94324 9.72189 5.19232 9.77873 2.79859 9.83395C2.76802 8.88098 2.73501 7.92974 2.69845 6.98185Z" fill="white"/>
<path d="M31.7181 34.0946C30.6308 33.5683 29.8898 35.2548 31.0299 35.6776C37.7706 38.5396 45.4788 33.3726 43.0568 25.8118C41.0617 17.1858 26.254 19.5465 26.7617 28.0209C25.9834 27.9962 25.2055 27.9617 24.4365 27.9154C22.8777 27.8209 21.3097 27.6831 19.7706 27.4487C17.5628 27.1561 17.4071 30.6137 19.6434 30.5066C20.8318 30.4724 22.061 30.3883 23.3071 30.2946C22.2952 34.3483 16.4167 35.4123 13.0842 33.3465C11.2717 32.5344 10.7116 30.5064 10.6184 28.6804C10.3786 23.8182 16.5342 22.5748 20.2496 23.8116C21.1973 24.0706 21.7959 22.8298 20.9851 22.2503C19.7964 21.4308 18.3587 20.9603 16.9213 20.7918C7.90954 19.4519 4.1243 31.105 12.052 35.2996C16.74 37.8264 24.2623 35.8011 25.1013 30.1584C27.5587 29.9751 30.0368 29.8286 32.3568 30.0198C33.1242 30.1541 33.8228 29.4133 33.6351 28.6514C33.1488 26.9279 30.4835 28.3837 29.1435 28.0675C28.9865 28.0663 28.828 28.0631 28.6703 28.0611C28.7714 27.6032 28.9216 27.173 29.1316 26.7788C31.537 22.3038 40.2528 21.8909 41.1424 27.686C42.4759 33.0356 36.1003 36.0727 31.7181 34.0946Z" fill="white"/>
</svg>
