<svg width="48" height="44" viewBox="0 0 48 44" fill="none" xmlns="http://www.w3.org/2000/svg">
<path d="M47.9886 21.7078C47.7527 18.3579 45.488 15.5898 43.2032 13.2115C44.9642 -0.689297 24.3076 -5.3479 19.3553 7.7146C15.323 4.43227 6.43519 8.62908 8.06203 11.4147C7.13878 13.2213 7.09482 15.3589 7.10653 17.3332C-2.53378 17.8081 -2.40956 31.5797 7.74553 31.9649C8.56078 32.0015 9.24919 31.372 9.24441 30.5932C9.24197 29.8372 8.59763 29.2261 7.80525 29.2284C0.426192 29.4039 0.649599 18.7047 8.03382 19.0368C8.51653 19.0256 8.89866 18.6431 8.88703 18.1823C8.82291 16.1545 8.50678 14.0124 9.25106 12.114C9.72085 12.111 10.1797 11.8892 10.4516 11.4836C10.889 10.8313 11.5071 10.2674 12.233 9.84668C13.6517 9.01977 15.5368 8.7441 17.0895 9.3169C17.8501 9.59311 18.5105 10.0643 19.0185 10.691C19.208 10.9374 19.4906 11.1139 19.8302 11.1643C20.5047 11.2643 21.1365 10.8238 21.2414 10.1802C22.6604 -0.656114 39.6033 -0.573378 41.3209 10.1001C41.551 11.4839 40.8433 13.1365 41.8372 14.3732C43.6633 16.187 45.4303 18.179 46.0766 20.6607C47.0252 24.5322 44.0791 29.1754 39.839 29.6781C38.4457 29.846 38.7713 31.8788 40.152 31.647C44.8871 30.8373 48.2211 26.1682 47.9886 21.7078Z" fill="white"/>
<path d="M35.2982 42.4562C33.1995 42.4829 31.2332 42.4859 29.8671 41.8927C40.0906 35.1064 32.391 19.507 19.8142 24.1761C16.2547 25.5065 13.501 28.6379 12.8748 32.2509C10.9383 39.9996 21.6318 45.3727 19.6122 41.3343C16.8328 39.6265 15.0979 36.5634 15.5625 33.4063C15.8877 30.632 17.7016 28.1088 20.2361 26.7322C25.0245 23.844 31.3442 26.3046 32.5541 31.6073C33.5829 35.1504 31.7977 38.9949 28.5657 40.886C28.0035 40.1019 27.8064 38.9351 28.1237 37.2033C28.2673 35.9991 28.9774 34.1629 27.1017 33.921C26.3114 33.857 25.6163 34.4164 25.5493 35.1705C25.3231 37.8535 25.1373 41.5648 27.9559 43.1904C30.0765 44.3776 33.1133 43.9956 35.4051 43.6836C36.1938 43.5487 36.0982 42.465 35.2982 42.4562Z" fill="white"/>
</svg>
