<svg width="43" height="44" viewBox="0 0 43 44" fill="none" xmlns="http://www.w3.org/2000/svg">
<path d="M30.0543 31.6909C31.1795 30.1672 30.7939 28.298 29.4722 27.0399C29.1808 26.6263 28.5216 26.2202 27.7093 25.8969C28.5876 24.768 28.9194 23.2013 28.2584 21.8332C27.2366 20.4382 25.8834 19.7286 24.3778 19.4097C24.5038 18.9761 24.631 18.5274 24.7388 18.1104C25.0172 17.1353 24.0749 16.1888 23.0924 16.4732C21.8182 16.9029 22.0636 18.0932 22.4367 19.1936C21.2523 19.1601 20.0255 19.2732 18.8284 19.4139C18.7024 18.4799 18.48 17.6662 18.0365 17.4865C17.6286 17.349 17.1888 17.5853 17.0715 17.9971C16.8976 18.5519 16.7693 19.1122 16.6787 19.6758C16.2174 19.7284 15.768 19.7738 15.3362 19.8033C14.602 19.829 14.3654 20.9185 15.0537 21.2305C15.5306 21.4462 16.0148 21.5992 16.5043 21.7052C16.4725 23.4299 16.7082 25.1672 17.0084 26.8679C17.2622 28.685 17.3053 30.5473 17.2933 32.3902C16.5208 32.406 15.8183 32.4402 15.2327 32.5171C14.4926 32.5942 14.5315 33.6483 15.2685 33.6764C15.8675 33.6441 16.5454 33.6568 17.2745 33.6907C17.2539 34.3629 17.2161 35.0345 17.1458 35.7046C17.1036 36.1023 17.3923 36.4581 17.7904 36.5001C18.1884 36.5422 18.5453 36.2539 18.5875 35.8562C18.6493 35.1672 18.7068 34.4738 18.7604 33.7778C20.0652 33.864 21.4636 33.9669 22.8326 33.9795C22.6618 34.5041 22.517 35.0445 22.3655 35.5636C21.8657 37.7487 25.4509 37.8254 24.9473 35.5642C24.7926 35.0339 24.6452 34.4795 24.4696 33.9434C26.8058 33.8055 28.8937 33.2512 30.0543 31.6909ZM28.036 30.9153C26.3289 32.4063 22.2646 32.3674 18.8617 32.3759C19.0846 29.0625 19.1912 25.7039 19.0801 22.4251C19.0593 22.2892 19.0427 22.1119 19.0277 21.9064C20.821 21.8612 22.641 21.5292 24.4015 21.5821C26.7074 21.6711 27.8732 23.7001 26.0962 25.4142C23.9546 24.9639 21.6909 25.2145 22.0057 27.122C22.2219 27.8009 22.9482 28.1763 23.6278 27.9604C25.3694 27.1687 30.0598 28.5168 28.036 30.9153Z" fill="white"/>
<path d="M42.8257 27.5877C42.3262 24.6293 40.4526 22.2585 39.1025 19.6757C37.8094 17.2595 36.4525 14.7199 36.0373 11.9894C36.0177 11.8773 35.9726 11.7762 35.9101 11.6898C37.0937 11.6909 38.2768 11.7132 39.4591 11.7644C40.4354 11.78 40.3918 10.232 39.4067 10.3101C38.7108 10.4745 34.03 10.3169 28.2361 10.1502C26.8587 9.54039 25.7652 8.35849 25.1441 6.96699C25.3258 6.92325 25.5124 6.86902 25.7048 6.8013C28.8565 5.52332 28.5843 -0.0154364 24.8165 3.23374e-05C23.0892 0.0534855 21.9703 0.846173 21.3966 1.8837C20.6691 0.528033 19.1547 -0.396913 17.1591 0.206197C13.3932 1.57991 14.4748 6.62195 17.9003 7.09564C17.7031 7.52979 17.4281 7.97521 17.0398 8.42251C16.4376 9.17713 15.8536 9.62736 15.3059 9.89342C7.17987 9.86102 0.766067 10.2255 3.43091 11.7894C4.59683 11.9724 5.76422 12.114 6.9328 12.2218C5.65625 16.819 2.75414 20.7491 0.970209 25.1647C-0.313739 28.4304 -0.343762 32.1656 1.0023 35.4202C3.0068 40.4562 8.12849 43.8685 13.5223 43.9944C14.5913 44.0227 15.7349 43.943 16.7817 43.772C22.6066 42.634 29.5095 45.34 35.2857 42.7198C36.1408 42.3519 36.9601 41.887 37.7139 41.3393C39.0352 40.2235 37.5135 38.3096 36.1346 39.2985C30.528 43.5895 23.1373 40.3746 16.7382 41.7191C14.8334 42.1389 12.802 42.1598 10.8966 41.7305C4.42401 40.3915 0.16586 33.287 2.03969 26.9532C3.63394 21.8531 7.2105 17.5905 8.8155 12.4565C8.82539 12.4266 8.83296 12.3974 8.8401 12.3683C17.449 12.9026 26.1204 11.7829 34.7686 11.695C34.1355 12.8577 36.0364 17.0043 36.3324 17.8903C38.4796 22.7718 41.1678 27.7014 40.6359 33.2034C40.5991 33.988 41.647 34.289 42.0324 33.5987C43.0101 31.7918 43.1898 29.5882 42.8257 27.5877ZM18.0757 9.918C19.0806 8.99847 19.8602 7.83625 20.3807 6.56231C20.821 6.2837 21.1577 5.93101 21.3986 5.53372C21.6834 6.04136 22.0963 6.46829 22.6285 6.74725C23.1483 8.01852 23.9733 9.17636 25.0047 10.0608C22.7282 10.0012 20.369 9.94825 18.0757 9.918Z" fill="white"/>
</svg>
