<svg width="48" height="48" viewBox="0 0 48 48" fill="none" xmlns="http://www.w3.org/2000/svg">
<path d="M37.962 38.242C37.2588 38.9399 36.8317 39.7739 36.639 40.6505C34.0831 40.7328 31.5913 41.2082 29.0717 41.5199C29.0788 40.6973 28.8813 39.8544 28.4546 39.1086C26.9991 36.1376 22.2283 35.6546 20.1416 37.8779C18.923 38.7435 18.2857 40.0286 18.1233 41.3876C16.0295 41.6322 13.8908 41.9253 11.7865 41.7978C11.6869 41.1256 11.3881 40.3157 10.8012 39.3739C9.60313 38.0929 8.39844 37.344 7.25535 37.0023C7.17697 34.2437 6.85335 31.4091 6.60641 28.6738C6.64794 28.2821 6.41385 27.8614 5.88416 27.805C5.12197 27.7797 4.39129 27.5416 3.80291 27.0706C2.40238 25.9752 1.90138 23.6703 3.11554 22.2868C4.92538 20.1696 8.99235 21.1664 9.53816 23.9642C9.57829 24.1729 9.68244 24.3337 9.81969 24.4445C10.1454 24.8438 10.7892 25.1404 11.3063 25.2091C12.3779 25.4599 13.4545 25.2628 14.4787 24.9146C15.8827 24.5312 17.3671 24.5459 18.8105 24.7019C19.2759 27.054 21.2489 29.0993 24.0552 28.8564C24.8505 28.751 24.7857 27.6054 23.9795 27.5967C20.8366 27.7207 19.196 22.9893 21.9724 21.3529C22.8884 20.5387 24.2643 20.4685 25.336 21.0153C26.3727 21.5204 27.032 22.5376 26.8604 23.6696C26.9523 24.9174 27.9663 25.3632 28.7579 25.0301C31.2681 24.6966 33.8636 24.4256 36.4012 24.6331C36.8816 27.3936 39.4086 29.845 42.3331 29.2833C43.1957 29.0773 43.1773 27.9089 42.3108 27.7017C39.6773 26.9169 37.9343 23.2247 39.7914 20.9904C41.4059 19.2801 44.3908 19.8792 45.5467 21.8251C46.5178 23.0707 45.5118 24.7128 46.7726 24.889C48.4174 24.8879 47.4586 21.7296 46.9172 20.9135C46.0062 19.297 44.5499 18.4335 43.0039 18.1913C43.4678 15.5873 44.6852 12.7937 43.7437 10.233C43.6714 9.56044 43.1662 8.93907 42.2433 8.99794C38.5284 9.57938 37.5777 4.31794 40.4908 2.67151C42.7838 1.25157 46.1909 3.02551 45.8313 5.83041C45.6928 7.3141 48.004 7.32198 47.8723 5.83491C47.7014 1.85044 43.1539 -0.921932 39.5954 1.01457C38.0436 1.82391 37.1344 3.1531 36.7849 4.60651C35.4823 4.81838 34.1883 4.98572 32.8813 5.12532C31.6293 5.22048 30.3565 5.43019 29.1238 5.13169C29.0313 3.8581 28.4101 2.59641 27.4617 1.73663C24.9444 -0.77765 20.305 -0.197806 18.6475 3.03769C18.3418 3.54788 18.1432 4.09735 18.0389 4.66191C15.8623 4.94635 13.6412 5.01573 11.4682 5.37985C11.4688 5.22648 11.462 5.07319 11.4467 4.92141L11.389 4.50291C10.5453 0.0967559 4.55722 -1.57528 1.54719 1.76551C-1.84731 5.37563 1.27307 11.8824 6.16935 11.6219C7.30119 11.702 7.34263 9.98804 6.20713 10.0407C3.80272 10.2127 1.70722 7.69491 2.05438 5.3491C2.93535 0.882194 9.08422 2.72119 9.88897 6.34051C10.0585 6.75132 10.4729 6.89447 10.828 6.80251C13.2949 6.8836 15.7291 7.22354 18.1999 7.32329C18.921 9.76529 21.1346 11.7801 23.852 11.3209C24.6414 11.1691 24.7451 10.071 23.9841 9.78123C22.5769 9.29588 21.6089 8.38388 21.0634 7.06848C19.4252 3.26232 23.3605 0.390756 26.4658 3.13004C27.2602 3.85473 27.7059 4.99041 27.5013 6.04388C27.4437 6.42357 27.6008 6.68944 27.8353 6.83241C28.0444 7.06154 28.3761 7.1941 28.8379 7.11647C30.7768 6.79369 33.0044 7.13016 34.9599 7.1851C35.4957 7.21116 36.1549 7.33566 36.7625 7.35976C37.2335 9.53569 38.845 11.4411 41.3275 11.7583C41.3204 11.8238 41.3164 11.8867 41.3162 11.9457C41.2123 13.1929 41.8316 14.4269 41.6609 15.6867C41.6317 16.5098 41.5819 17.3355 41.4535 18.1505C38.9527 18.4013 36.6097 20.1477 36.3134 22.852C34.0819 22.923 31.7798 22.5239 29.5426 22.3324C29.3968 21.8359 29.1459 21.2748 28.7592 20.6483C26.7694 17.8596 22.7516 17.668 20.7391 19.6169C19.4952 20.5205 18.8636 21.7927 18.7317 23.1054C16.2655 22.706 13.6613 22.111 11.2585 22.7503C11.2104 22.0404 10.9679 21.3408 10.5752 20.7432C7.92454 16.6089 1.08585 18.3208 0.576129 23.1625C0.188004 26.1487 2.28491 28.98 5.2476 29.3362C4.96719 31.8345 4.83388 34.4496 4.52619 36.9369C-0.178277 38.178 -2.16718 46.2872 5.951 47.9898C6.60829 48.0854 7.20454 47.5012 7.11107 46.8404C6.81866 45.3167 5.09507 46.4333 3.91963 45.4429C2.52379 44.5495 1.84775 42.6459 2.43519 41.0847C3.61157 37.541 9.73935 39.0081 8.99104 42.7493C9.24829 44.327 10.7538 44.5474 11.4601 43.5727C13.7621 43.4026 16.0888 43.8914 18.391 44.0682C19.1427 46.4142 21.2055 48.2674 23.9777 47.6317C24.8188 47.3768 24.7427 46.2203 23.874 46.0533C21.1798 45.3965 19.8058 41.7261 21.5585 39.5738C23.5491 36.9649 27.9523 38.7676 27.4491 42.0369C27.386 42.6999 27.9631 43.022 28.4378 42.9023C30.4731 43.1509 32.5375 43.0976 34.5681 43.2497C35.3196 43.2887 36.0392 43.3968 36.7668 43.4579C37.4437 45.7149 39.4385 47.5914 42.033 47.4198C42.8353 47.3396 42.8064 46.1932 41.9981 46.1583C36.5646 45.6105 37.5412 37.1821 43.1991 39.1653C44.4116 39.6934 45.1777 40.87 44.9504 42.1684C44.8448 44.0169 47.6628 44.1658 47.7534 42.3162C47.8376 41.1379 47.5058 39.8809 46.8099 38.9179C44.7608 36.0339 40.3939 35.7061 37.962 38.242Z" fill="white"/>
</svg>
