<svg width="45" height="44" viewBox="0 0 45 44" fill="none" xmlns="http://www.w3.org/2000/svg">
<path d="M44.6294 39.9745C42.252 38.8301 40.7203 36.5009 38.2974 35.4611C37.9989 35.3606 37.6731 35.2483 37.342 35.1733C38.7577 32.0011 38.0098 27.735 38.1127 24.4271C38.078 20.8846 38.7785 17.9648 35.0215 15.9299C31.284 14.3981 27.4198 11.3235 23.4424 10.6664C23.8221 7.6547 23.9323 4.39666 24.1247 1.39201C24.1777 0.608057 23.4985 -0.0588696 22.7076 0.00412857C21.9784 0.0564964 21.43 0.685084 21.4828 1.40804C21.7078 4.40511 21.9776 7.52731 22.1353 10.5438C20.4803 10.5099 18.8061 10.9624 17.1139 12.1836C16.8152 12.4381 16.6627 12.7331 16.6203 13.026C15.3156 13.6545 14.0006 14.2455 12.6776 14.8605C10.6746 15.7721 8.27527 16.9347 7.57197 19.2418C6.56008 22.6398 6.97167 26.2236 6.78754 29.7076C6.68233 32.3671 6.96596 34.2484 7.60387 35.6682C7.02177 35.8311 6.45127 36.0251 5.89184 36.2405C3.78132 37.1096 1.45941 37.965 0.125754 39.9235C-0.473838 41.2704 1.21771 41.3712 2.10216 40.9958C3.23138 40.6588 4.0493 39.8342 4.82054 38.9924C5.62254 38.2139 6.65614 37.685 7.67199 37.2344C7.86842 37.13 8.13253 37.0638 8.3905 36.9872C10.0956 39.1935 13.0921 40.0689 17.1387 41.9068C18.6751 42.5611 20.121 43.6825 21.8375 43.7893C21.8986 43.7928 21.9598 43.7952 22.0209 43.7968C23.0621 44.5358 25.8003 43.0601 26.6059 42.5431C29.4767 40.7092 32.8259 39.7036 35.549 37.56C35.782 37.3672 35.9952 37.1633 36.1904 36.9496C37.3678 38.227 39.1819 38.5611 40.6557 39.4173C41.7119 40.0703 42.7981 40.666 43.9045 41.2308C44.768 41.6776 45.4525 40.4822 44.6294 39.9745ZM21.633 38.0977C21.573 39.3722 21.5051 40.6475 21.4257 41.9249C21.2838 41.8573 21.1455 41.782 21.0112 41.6977C18.3817 39.8011 15.5266 38.1968 12.4932 37.0058C9.56217 35.9503 9.07332 32.4261 8.92584 29.7029C8.88901 26.7797 8.33714 22.8217 9.16341 19.9295C10.6717 20.9425 12.1734 21.9765 13.7496 22.9627C16.2589 24.494 18.96 25.988 21.8899 26.5221C22.1371 30.3668 21.7421 34.2453 21.633 38.0977ZM26.9484 40.4983C26.0974 40.8665 25.0052 41.4923 24.1673 41.852C24.1243 41.8716 24.0782 41.8884 24.0308 41.9038C23.7288 37.9214 23.6355 33.9259 23.5709 29.9333C23.5613 28.8299 23.5785 27.7283 23.6775 26.6294C25.896 26.282 27.884 24.1371 29.5801 22.9224C30.2425 22.4689 29.8482 21.4413 29.0461 21.5432C26.8504 21.853 25.1245 23.6222 23.0553 24.0794C22.3173 24.0335 21.558 23.9725 20.8259 23.858C17.9057 23.472 15.2949 21.9612 12.8011 20.4906C11.827 19.8929 10.8452 19.2805 9.89071 18.6394C9.86698 18.6235 9.84263 18.6095 9.81793 18.5966C11.3026 16.8133 14.9337 15.5445 17.3235 14.3707C17.7271 14.5895 18.2495 14.6032 18.7535 14.2378C19.2533 13.8456 19.7882 13.531 20.3566 13.3183C24.4968 12.013 28.4241 15.2405 32.0882 16.8833C34.2201 17.7951 36.1337 18.4401 36.2584 20.9678C36.0123 25.2647 36.9998 30.1606 35.9761 34.31C34.3743 37.8741 29.9638 38.45 26.9484 40.4983Z" fill="white"/>
</svg>
