<svg width="49" height="48" viewBox="0 0 49 48" fill="none" xmlns="http://www.w3.org/2000/svg">
<path d="M18.839 39.7098C8.5108 39.3785 2.22745 28.3558 2.06945 18.8255C2.53464 18.6235 2.89055 18.1837 2.87725 17.5042C2.79839 14.7142 2.73246 11.8758 3.72314 9.25235C4.98877 7.31898 8.33596 7.01693 10.3563 5.87772C12.1087 5.00301 16.8719 2.94904 18.5921 2.01002C24.1753 4.26226 30.0488 6.08278 34.9243 9.71312C35.6645 11.2493 34.8943 13.0899 35.0496 14.755C35.2323 16.1085 37.3012 15.8412 37.1275 14.4821C36.9509 12.0753 37.8074 8.85398 35.0024 7.59944C30.0941 4.34778 24.4952 2.38192 19.1132 0.0967146C18.4094 -0.172178 17.7709 0.168668 17.183 0.519738C14.9613 1.4278 10.1226 3.63379 8.03862 4.40607C6.01084 5.15666 3.28962 5.70543 1.86092 7.53274C0.0804245 10.4941 0.11258 14.1948 3.67404e-05 17.5222C-0.00379125 18.1338 0.291921 18.5485 0.69453 18.7684C0.186747 29.4871 7.17866 41.821 18.71 42.5798C19.5252 42.6365 20.2294 41.9943 20.2454 41.1784C20.2632 40.385 19.6335 39.7276 18.839 39.7098ZM18.4504 1.95383C18.4455 1.9523 18.4396 1.95125 18.435 1.94963C18.4241 1.94657 18.4135 1.9394 18.403 1.9353C18.4152 1.9394 18.435 1.94791 18.4504 1.95383Z" fill="white"/>
<path d="M44.0531 10.221C43.8697 12.2646 43.8044 14.3156 43.7675 16.3703C43.911 22.1385 36.0074 21.0487 32.0675 21.3306C31.6334 21.3373 31.2016 21.3438 30.7701 21.3559C30.7172 21.1991 30.6557 21.0399 30.584 20.8783C28.3013 16.043 21.2495 19.208 23.4751 24.1271C25.5574 27.8879 30.7636 26.5153 31.0039 23.008C34.4885 22.9634 38.025 23.3837 41.4373 22.536C45.5798 21.7092 46.9646 18.4282 46.6799 14.5263C46.6756 13.0446 46.6326 11.5683 46.4905 10.098C48.3401 9.36957 49.4798 7.12603 48.6062 5.19896C47.4988 2.06589 42.9113 2.2011 41.5096 5.03145C40.3378 7.28675 41.8413 9.66541 44.0531 10.221Z" fill="white"/>
<path d="M45.1188 34.1382C50.216 33.7056 50.1441 26.0651 44.7397 26.7061C42.6517 26.9307 41.4909 28.3846 41.2478 29.9481C34.8357 30.411 28.3957 30.4863 21.9794 29.906C20.9709 27.4913 17.462 26.1899 15.4624 28.2117C11.3059 32.826 19.2609 37.7833 21.9925 32.5592C28.4635 32.6521 34.9229 32.1647 41.3619 31.6966C41.7863 33.1136 43.0405 34.2496 45.1188 34.1382Z" fill="white"/>
<path d="M48.9305 43.1527C47.9153 40.107 45.0947 39.7609 43.1592 40.97C42.4083 39.9679 41.3841 39.12 40.1507 38.7899C37.1362 38.1796 33.9957 38.4381 30.937 38.3605C30.4808 37.3574 29.5002 36.6068 27.9309 36.5782C22.4505 36.0902 21.9778 44.0563 27.6398 43.6645C29.4893 43.5991 30.6844 42.3441 31.088 40.9079C34.0264 40.7593 37.0113 40.2122 39.9353 40.6155C40.7761 40.8081 41.4472 41.392 42.0229 42.0033C37.857 48.7251 50.0187 50.7188 48.9305 43.1527Z" fill="white"/>
</svg>
