<svg width="45" height="44" viewBox="0 0 45 44" fill="none" xmlns="http://www.w3.org/2000/svg">
<path d="M25.7272 9.02472C26.4417 8.88818 27.1626 8.85196 27.8855 8.86252C27.8336 12.2864 28.3091 15.9984 32.7262 15.8683C32.7685 15.8732 32.8115 15.8759 32.8554 15.8742C33.5599 15.909 34.2674 15.9612 34.9778 16.0094C34.9616 16.8946 35.4803 17.9955 35.6979 18.7495C35.9064 19.2629 36.6615 19.2764 36.8856 18.7626C37.0428 18.4203 37.1708 17.914 37.2786 17.5516C37.3806 17.2169 37.5267 16.752 37.6345 16.4147C37.6663 16.3189 37.6858 16.2228 37.6946 16.1277C38.1685 16.1295 38.6434 16.1183 39.1195 16.0863C43.9736 16.0463 45.48 11.4815 44.8719 7.35569C45.0483 4.61469 44.4907 0.187985 40.806 0.527917C40.7825 0.527655 40.7588 0.527393 40.7341 0.528964C35.1335 -0.0822325 27.1636 -1.65171 27.96 6.67958C27.9527 6.8711 27.9445 7.06732 27.9363 7.26704C27.1948 7.29025 26.4579 7.27455 25.7271 7.11304C24.146 6.83262 24.1323 9.30497 25.7272 9.02472ZM40.7352 2.0091C42.8089 2.74759 42.0515 5.71912 42.2401 7.50009C42.4352 9.00509 42.7723 10.5555 42.4071 12.0416C41.4834 15.6514 35.4217 14.1958 33.0206 14.4303C32.9947 14.4188 32.9679 14.408 32.9397 14.3985C31.9813 14.0145 31.0619 13.6097 30.7774 12.5976C30.5326 11.4318 30.533 10.2284 30.5253 9.01609C30.7794 9.0331 31.0332 9.04819 31.2864 9.05884C32.4012 9.13998 33.5109 9.23709 34.622 9.38263C35.4754 9.50583 36.2469 8.745 36.1204 7.8949C36.0237 7.16932 35.3528 6.65899 34.622 6.75505C33.2423 6.93095 31.8583 7.0483 30.4721 7.13547C30.4369 6.62252 30.3769 6.11061 30.273 5.60194C29.2947 -0.111898 37.3054 1.95064 40.7352 2.0091Z" fill="white"/>
<path d="M17.6321 7.09043C17.3441 7.14627 16.9811 7.2118 16.6274 7.28212C16.7792 5.77067 16.8042 4.26837 16.1139 2.86607C14.3127 -0.410922 9.72781 0.0258584 6.60353 0.0994986C5.44967 0.157085 4.28394 -0.174209 3.16972 0.236134C1.10421 0.499285 -0.910412 5.42454 0.731484 6.68759C0.431439 10.757 -0.568358 15.673 4.92569 16.3959C5.63766 16.4068 6.49236 16.4577 7.41042 16.4974C7.74817 20.1406 10.0207 19.5933 10.026 16.539C13.5282 16.4536 16.9261 15.6091 16.5115 11.5829C16.4818 11.4364 16.4177 11.3163 16.3323 11.2227C16.2899 10.4371 16.3606 9.63102 16.4524 8.81871C17.2992 8.99932 18.1742 9.14451 19.0151 9.29894C19.0151 9.29894 19.3469 9.36002 19.2856 9.35129C20.1205 9.50363 20.9045 8.79768 20.8197 7.95771C20.5548 6.27934 18.7995 6.87012 17.6321 7.09043ZM15.1121 11.3644C15.0857 11.4131 15.0631 11.466 15.0462 11.5241C14.8336 12.3486 14.5377 12.9686 13.796 13.3129C12.453 13.8072 11.0116 13.9353 9.55248 14.0016C9.33434 12.9697 9.28293 11.9097 9.35631 10.851C9.33294 10.1888 9.85911 9.11458 8.90633 8.89444C8.36768 8.78477 8.01657 9.25854 7.99214 9.74715C7.71073 11.168 7.57187 12.6392 7.44724 14.0883C6.63948 14.1309 5.83804 14.1992 5.05699 14.3455C1.74051 14.3734 1.97288 10.9357 2.15507 8.53523C2.18926 7.96199 2.22072 7.38142 2.24436 6.79482C3.3643 6.1489 2.42488 4.36225 3.15513 3.2833C3.45289 2.68982 3.99155 2.3341 4.65447 2.33575C7.81944 2.56645 11.269 1.20096 14.0539 3.02539C16.0782 5.04325 14.6697 8.67492 15.1121 11.3644Z" fill="white"/>
<path d="M18.2153 34.419C17.7132 34.2939 17.2084 34.2744 16.7085 34.3271C16.7113 34.3066 16.7148 34.2866 16.7167 34.2654C16.7537 33.4694 16.7369 32.6646 16.5943 31.8521C16.212 29.091 13.8839 27.3755 11.1114 27.7126C10.5775 27.6561 10.0403 27.5979 9.50165 27.5489C9.75371 26.4694 10.0321 25.3593 10.0609 24.2764C9.73868 22.5581 7.10578 23.0342 7.41268 24.7539C7.57825 25.6349 7.73355 26.5504 7.92637 27.4428C6.56897 27.3922 5.21217 27.4697 3.88227 27.8542C-0.558015 29.2295 -0.232571 34.1167 0.3009 37.7826C0.351786 38.1514 0.557177 38.4615 0.840083 38.6635C1.26124 43.1292 7.36487 43.7235 11.1895 43.4943C17.062 43.5068 17.5998 40.7289 17.1052 36.9129C17.8727 36.8324 18.6178 36.6616 19.3214 36.3604C20.5252 35.5262 19.1575 34.559 18.2153 34.419ZM14.8682 33.6975C14.8385 33.8423 14.8138 33.9882 14.7935 34.1351C14.7907 34.1493 14.7883 34.1638 14.7855 34.178C14.7855 34.1815 14.7858 34.1847 14.7859 34.1882C14.7589 34.3937 14.7401 34.6012 14.7272 34.8098C13.6964 35.0464 12.624 35.0253 11.5729 34.9838C11.204 34.9629 10.8353 34.9256 10.4671 34.8529C9.53531 34.6548 9.24731 36.1099 10.1807 36.281C11.6092 36.4876 13.1668 36.7982 14.7129 36.9196C14.7251 38.1568 14.6887 39.3765 14.1614 40.4694C10.9539 41.7264 6.63277 42.2961 3.54374 40.5253C2.86033 40.0625 2.49217 39.4189 2.36606 38.6787C2.80294 38.3785 3.03285 37.8335 2.90102 37.2899C1.90509 33.403 1.70049 29.2789 6.86717 29.2741C8.24153 29.1848 9.65273 29.2727 11.0376 29.3918C12.2942 29.2593 13.585 29.3314 14.3419 30.4273C14.9964 31.3721 15.0321 32.5794 14.8682 33.6975Z" fill="white"/>
<path d="M41.8011 28.1208C40.5326 27.2606 38.9793 27.049 37.4738 27.1326C37.5551 26.3839 37.6237 25.6359 37.6442 24.8909C37.7387 22.9033 34.6806 23.0632 35.0018 25.04C35.1481 25.7686 35.2415 26.5173 35.306 27.2695C34.0539 27.2647 32.8366 27.249 31.5318 27.5502C29.3292 28.0494 28.0309 29.581 27.9954 31.8126C27.8693 32.7566 27.7494 33.7179 27.6846 34.6838C26.7407 34.4426 25.762 34.1329 24.8107 34.2607C22.9087 35.0314 24.0255 37.7166 26.27 36.6388C26.699 36.5019 27.1771 36.3836 27.6359 36.2442C27.6482 37.5652 27.8133 38.8814 28.2571 40.1594C29.3663 43.55 32.9473 44.4753 36.1645 43.7885C38.0995 43.578 40.1434 43.4577 41.9224 42.5359C42.8599 42.039 43.6423 41.2256 43.9786 40.2145C44.6123 36.4435 45.3489 30.6921 41.8011 28.1208ZM42.7569 38.5564C42.6292 41.9518 38.4627 41.2601 36.049 41.3341C34.7582 41.3404 33.2971 41.6087 32.1145 40.9758C29.4739 39.2792 30.0125 34.6808 30.1125 31.9213C29.8905 29.0517 33.0794 29.1059 35.4145 29.0353C35.4174 29.1031 35.4206 29.1713 35.4234 29.2389C35.4543 30.3143 35.5276 31.4054 35.4807 32.4874C35.5032 33.0202 35.266 33.54 35.3701 34.0684C35.5208 34.5919 36.0705 34.8951 36.5978 34.7454C37.1251 34.5958 37.4303 34.0501 37.2796 33.5267C37.0022 31.9676 37.1145 30.3877 37.2856 28.8054C43.1213 27.8833 43.524 33.9308 42.7569 38.5564Z" fill="white"/>
</svg>
