<svg width="48" height="48" viewBox="0 0 48 48" fill="none" xmlns="http://www.w3.org/2000/svg">
<path d="M41.4705 7.70822L41.3989 7.78678C42.3986 6.66216 43.8793 5.0265 44.8147 3.88069C44.8295 3.86194 44.8428 3.843 44.8559 3.82397C44.8642 3.83231 44.8741 3.83991 44.8821 3.84835C46.0683 5.42738 45.1738 8.4736 45.0128 10.3684C44.9433 11.4194 46.4299 11.5963 46.6104 10.5616C46.8889 8.33813 47.7222 6.099 47.1282 3.831C46.1299 -1.72115 32.9105 -0.310967 36.5167 2.26753C38.0725 2.84325 41.0939 2.69888 43.1286 3.09638C38.7538 6.20278 35.6089 10.6617 31.753 14.3417C27.9911 18.0478 24.6806 20.1883 20.4404 15.7219C18.0088 13.5722 15.4175 15.3318 13.6274 17.3649C12.8206 18.1317 11.8003 19.1158 10.974 19.8773C10.166 20.6201 11.3986 21.8386 12.1365 21.012C12.1364 21.0121 14.2767 19.0362 14.2767 19.0362C15.4207 18.132 16.5621 16.3646 18.1523 16.5417C18.8633 16.7191 19.3269 17.2107 19.9758 17.7797C27.4879 25.5693 36.9111 13.4263 41.4705 7.70822Z" fill="white"/>
<path d="M5.84333 27.9603C5.85074 27.3242 5.32386 26.8237 4.68805 26.818C2.22852 26.7574 3.63411 29.2592 1.10595 30.5173C0.206049 30.9738 0.809517 32.2828 1.74064 31.8994C3.33702 31.0824 5.72736 29.9881 5.84333 27.9603Z" fill="white"/>
<path d="M4.67491 37.0534C4.07041 36.9121 3.69363 37.4576 3.65135 37.9992C3.28479 39.7328 3.07797 41.5249 2.97776 43.2919C2.88588 48.7314 6.59313 47.5091 5.7401 43.2919C4.24647 39.9368 6.09354 37.3468 4.67491 37.0534Z" fill="white"/>
<path d="M12.8996 29.8557C12.9524 28.7816 11.428 28.6541 11.2923 29.7109C11.0171 35.1515 10.2705 40.9901 11.3555 46.3795C11.5601 47.1316 12.606 47.2312 12.9449 46.5215C13.8426 44.3796 13.8697 41.9521 13.4717 39.6899C12.8027 36.4696 12.6939 33.1325 12.8996 29.8557Z" fill="white"/>
<path d="M20.3271 25.7973C20.3512 24.7182 18.8202 24.6337 18.7128 25.6945C18.5008 32.4369 17.9493 39.5768 18.8412 46.2832C19.0027 47.0906 20.1206 47.2079 20.4404 46.4416C21.4084 43.7528 21.4467 40.7941 21.0367 37.9908C20.3461 33.978 20.1579 29.8607 20.3271 25.7973Z" fill="white"/>
<path d="M27.5854 28.1837C27.6661 27.0166 25.9101 27.0217 25.961 28.1937C25.7581 31.759 24.2337 44.7992 26.4943 46.9825C28.2611 47.499 28.1325 42.9429 28.2133 41.8613C28.2365 39.5651 27.5246 37.3137 27.4839 35.0217C27.3982 32.7515 27.3676 30.4451 27.5854 28.1837Z" fill="white"/>
<path d="M35.3594 24.0619C35.4417 22.6409 33.6519 22.6472 33.7038 24.0741C33.497 28.4151 31.9433 44.2922 34.2474 46.9505C36.0482 47.5793 35.9171 42.0321 35.9994 40.7152C36.023 37.9194 35.2975 35.1782 35.2559 32.3876C35.1686 29.6235 35.1374 26.8153 35.3594 24.0619Z" fill="white"/>
<path d="M42.3594 19.2831C42.4417 17.5661 40.6519 17.5736 40.7038 19.2979C40.497 24.5432 38.9433 43.728 41.2474 46.9402C43.0482 47.7 42.9171 40.9971 42.9994 39.4058C43.023 36.0276 42.2975 32.7153 42.2559 29.3433C42.1686 26.0034 42.1374 22.6102 42.3594 19.2831Z" fill="white"/>
</svg>
