<svg width="33" height="32" viewBox="0 0 33 32" fill="none" xmlns="http://www.w3.org/2000/svg">
<circle cx="16.7998" cy="16" r="16" fill="#252525"/>
<path d="M19.1799 9.29517C19.0134 9.58837 18.8649 9.89117 18.7355 10.2019C17.4632 10.0041 16.1672 10.0041 14.8949 10.2019C14.7654 9.89117 14.617 9.58837 14.4505 9.29517C13.252 9.49647 12.087 9.85697 10.9873 10.3668C9.02085 13.1565 8.12905 16.5434 8.47165 19.9207C9.75315 20.8677 11.1914 21.59 12.7231 22.0556C13.0718 21.6028 13.3831 21.1231 13.6539 20.6213C13.1542 20.4402 12.6739 20.211 12.22 19.9371C12.3444 19.8557 12.4622 19.7648 12.5721 19.6651C13.8958 20.2919 15.346 20.6173 16.8152 20.6173C18.2844 20.6173 19.7346 20.2919 21.0582 19.6651C21.1756 19.764 21.293 19.8547 21.4104 19.9371C20.9541 20.2089 20.4742 20.4406 19.9765 20.6296C20.2361 21.1427 20.539 21.6336 20.8821 22.0969C22.4119 21.6328 23.8477 20.9103 25.1252 19.9619C25.476 16.584 24.5835 13.1944 22.6096 10.408C21.5222 9.88764 20.3687 9.51334 19.1799 9.29517ZM14.0312 17.9917C13.6116 17.9621 13.22 17.7739 12.9385 17.4665C12.6571 17.1591 12.5077 16.7564 12.5218 16.3431C12.5056 15.9292 12.6542 15.5254 12.9361 15.2176C13.2179 14.9097 13.6108 14.7221 14.0312 14.6945C14.4516 14.7221 14.8445 14.9097 15.1263 15.2176C15.4082 15.5254 15.5568 15.9292 15.5406 16.3431C15.5568 16.757 15.4082 17.1608 15.1263 17.4686C14.8445 17.7765 14.4516 17.9642 14.0312 17.9917ZM19.5992 17.9917C19.1795 17.9621 18.7879 17.7739 18.5065 17.4665C18.225 17.1591 18.0757 16.7564 18.0898 16.3431C18.0736 15.9292 18.2222 15.5254 18.504 15.2176C18.7859 14.9097 19.1788 14.7221 19.5992 14.6945C20.0204 14.72 20.4145 14.9071 20.6968 15.2154C20.9791 15.5237 21.1269 15.9287 21.1086 16.3431C21.1269 16.7575 20.9791 17.1625 20.6968 17.4708C20.4145 17.7792 20.0204 17.9662 19.5992 17.9917Z" fill="white"/>
</svg>
