<svg width="28" height="22" viewBox="0 0 28 22" fill="none" xmlns="http://www.w3.org/2000/svg">
<path d="M18.0911 0.775391C17.8185 1.25533 17.5756 1.75099 17.3636 2.25966C15.2811 1.93589 13.1596 1.93589 11.077 2.25966C10.8651 1.75099 10.6222 1.25533 10.3496 0.775391C8.38779 1.1049 6.48069 1.69501 4.68062 2.52953C1.46174 7.09608 0.00195402 12.6401 0.562756 18.1684C2.66045 19.7186 5.0148 20.9009 7.52195 21.6631C8.09284 20.9218 8.60234 20.1367 9.04556 19.3153C8.22758 19.0188 7.44137 18.6437 6.69838 18.1953C6.90216 18.0621 7.09492 17.9132 7.27488 17.7501C9.44151 18.776 11.8155 19.3087 14.2203 19.3087C16.6252 19.3087 18.9992 18.776 21.1658 17.7501C21.358 17.912 21.5501 18.0604 21.7423 18.1953C20.9953 18.6401 20.2098 19.0194 19.3951 19.3288C19.82 20.1688 20.3159 20.9722 20.8776 21.7306C23.3816 20.971 25.7319 19.7884 27.823 18.2358C28.3973 12.7065 26.9363 7.15801 23.7052 2.597C21.9253 1.74521 20.0371 1.13252 18.0911 0.775391ZM9.66324 15.0109C8.97636 14.9624 8.33529 14.6543 7.8746 14.1511C7.41392 13.6479 7.16945 12.9888 7.19252 12.3122C7.16597 11.6348 7.40924 10.9738 7.87061 10.4699C8.33199 9.96592 8.97509 9.65872 9.66324 9.61356C10.3514 9.65872 10.9945 9.96592 11.4559 10.4699C11.9172 10.9738 12.1605 11.6348 12.134 12.3122C12.1605 12.9897 11.9172 13.6507 11.4559 14.1546C10.9945 14.6585 10.3514 14.9657 9.66324 15.0109ZM18.7775 15.0109C18.0906 14.9624 17.4495 14.6543 16.9888 14.1511C16.5281 13.6479 16.2837 12.9888 16.3067 12.3122C16.2802 11.6348 16.5234 10.9738 16.9848 10.4699C17.4462 9.96592 18.0893 9.65872 18.7775 9.61356C19.4669 9.65535 20.1121 9.96155 20.5741 10.4663C21.0362 10.971 21.2783 11.6339 21.2482 12.3122C21.2783 12.9906 21.0362 13.6535 20.5741 14.1582C20.1121 14.6629 19.4669 14.9691 18.7775 15.0109Z" fill="white"/>
</svg>
