<svg xmlns="http://www.w3.org/2000/svg" width="40" height="40" viewBox="0 0 40 40" fill="none">
  <circle opacity="0.5" cx="20" cy="20" r="20" fill="white"/>
  <path d="M22.975 11.619C22.7668 11.9855 22.5813 12.364 22.4195 12.7525C20.8291 12.5052 19.2091 12.5052 17.6188 12.7525C17.4569 12.364 17.2714 11.9855 17.0632 11.619C15.5652 11.8706 14.1088 12.3213 12.7342 12.9585C10.2762 16.4457 9.16144 20.6793 9.58968 24.9009C11.1916 26.0847 12.9894 26.9875 14.904 27.5696C15.3399 27.0035 15.729 26.404 16.0675 25.7767C15.4428 25.5503 14.8424 25.2639 14.2751 24.9215C14.4307 24.8197 14.5779 24.706 14.7153 24.5815C16.3698 25.3649 18.1827 25.7717 20.0191 25.7717C21.8556 25.7717 23.6684 25.3649 25.3229 24.5815C25.4697 24.7051 25.6164 24.8184 25.7632 24.9215C25.1927 25.2612 24.5929 25.5508 23.9708 25.787C24.2952 26.4285 24.6739 27.042 25.1028 27.6211C27.015 27.041 28.8097 26.138 30.4066 24.9524C30.8452 20.73 29.7295 16.493 27.2621 13.0101C25.9029 12.3596 24.461 11.8917 22.975 11.619ZM16.5391 22.4897C16.0146 22.4527 15.5251 22.2174 15.1733 21.8331C14.8215 21.4489 14.6348 20.9456 14.6524 20.4289C14.6321 19.9116 14.8179 19.4069 15.1702 19.022C15.5226 18.6372 16.0136 18.4026 16.5391 18.3681C17.0646 18.4026 17.5557 18.6372 17.9081 19.022C18.2604 19.4069 18.4461 19.9116 18.4259 20.4289C18.4461 20.9463 18.2604 21.451 17.9081 21.8358C17.5557 22.2207 17.0646 22.4553 16.5391 22.4897ZM23.4991 22.4897C22.9746 22.4527 22.485 22.2174 22.1332 21.8331C21.7814 21.4489 21.5947 20.9456 21.6124 20.4289C21.5921 19.9116 21.7779 19.4069 22.1302 19.022C22.4825 18.6372 22.9736 18.4026 23.4991 18.3681C24.0256 18.4001 24.5182 18.6339 24.8711 19.0193C25.224 19.4047 25.4088 19.9109 25.3858 20.4289C25.4088 20.947 25.224 21.4532 24.8711 21.8386C24.5182 22.224 24.0256 22.4578 23.4991 22.4897Z" fill="#252525"/>
</svg>