<svg width="214" height="346" viewBox="0 0 214 346" fill="none" xmlns="http://www.w3.org/2000/svg">
<path d="M44.0291 55.2577C46.4744 55.2577 48.4567 53.2727 48.4567 50.8242C48.4567 48.3756 46.4744 46.3906 44.0291 46.3906C41.5839 46.3906 39.6016 48.3756 39.6016 50.8242C39.6016 53.2727 41.5839 55.2577 44.0291 55.2577Z" fill="#B6FFF1"/>
<path d="M59.9666 55.2577C62.4119 55.2577 64.3942 53.2727 64.3942 50.8242C64.3942 48.3756 62.4119 46.3906 59.9666 46.3906C57.5214 46.3906 55.5391 48.3756 55.5391 50.8242C55.5391 53.2727 57.5214 55.2577 59.9666 55.2577Z" fill="#B6FFF1"/>
<path d="M75.912 55.2577C78.3573 55.2577 80.3395 53.2727 80.3395 50.8242C80.3395 48.3756 78.3573 46.3906 75.912 46.3906C73.4667 46.3906 71.4844 48.3756 71.4844 50.8242C71.4844 53.2727 73.4667 55.2577 75.912 55.2577Z" fill="#B6FFF1"/>
<path d="M91.8495 55.2577C94.2948 55.2577 96.277 53.2727 96.277 50.8242C96.277 48.3756 94.2948 46.3906 91.8495 46.3906C89.4042 46.3906 87.4219 48.3756 87.4219 50.8242C87.4219 53.2727 89.4042 55.2577 91.8495 55.2577Z" fill="#B6FFF1"/>
<path d="M107.842 55.2577C110.287 55.2577 112.269 53.2727 112.269 50.8242C112.269 48.3756 110.287 46.3906 107.842 46.3906C105.396 46.3906 103.414 48.3756 103.414 50.8242C103.414 53.2727 105.396 55.2577 107.842 55.2577Z" fill="#B6FFF1"/>
<path d="M44.0291 71.1698C46.4744 71.1698 48.4567 69.1848 48.4567 66.7363C48.4567 64.2877 46.4744 62.3027 44.0291 62.3027C41.5839 62.3027 39.6016 64.2877 39.6016 66.7363C39.6016 69.1848 41.5839 71.1698 44.0291 71.1698Z" fill="#B6FFF1"/>
<path d="M59.9666 71.1698C62.4119 71.1698 64.3942 69.1848 64.3942 66.7363C64.3942 64.2877 62.4119 62.3027 59.9666 62.3027C57.5214 62.3027 55.5391 64.2877 55.5391 66.7363C55.5391 69.1848 57.5214 71.1698 59.9666 71.1698Z" fill="#B6FFF1"/>
<path d="M75.912 71.1698C78.3573 71.1698 80.3395 69.1848 80.3395 66.7363C80.3395 64.2877 78.3573 62.3027 75.912 62.3027C73.4667 62.3027 71.4844 64.2877 71.4844 66.7363C71.4844 69.1848 73.4667 71.1698 75.912 71.1698Z" fill="#B6FFF1"/>
<path d="M91.8495 71.1698C94.2948 71.1698 96.277 69.1848 96.277 66.7363C96.277 64.2877 94.2948 62.3027 91.8495 62.3027C89.4042 62.3027 87.4219 64.2877 87.4219 66.7363C87.4219 69.1848 89.4042 71.1698 91.8495 71.1698Z" fill="#B6FFF1"/>
<path d="M44.0291 87.0799C46.4744 87.0799 48.4567 85.095 48.4567 82.6464C48.4567 80.1978 46.4744 78.2129 44.0291 78.2129C41.5839 78.2129 39.6016 80.1978 39.6016 82.6464C39.6016 85.095 41.5839 87.0799 44.0291 87.0799Z" fill="#B6FFF1"/>
<path d="M59.9666 87.0799C62.4119 87.0799 64.3942 85.095 64.3942 82.6464C64.3942 80.1978 62.4119 78.2129 59.9666 78.2129C57.5214 78.2129 55.5391 80.1978 55.5391 82.6464C55.5391 85.095 57.5214 87.0799 59.9666 87.0799Z" fill="#B6FFF1"/>
<path d="M75.912 87.0799C78.3573 87.0799 80.3395 85.095 80.3395 82.6464C80.3395 80.1978 78.3573 78.2129 75.912 78.2129C73.4667 78.2129 71.4844 80.1978 71.4844 82.6464C71.4844 85.095 73.4667 87.0799 75.912 87.0799Z" fill="#B6FFF1"/>
<path d="M44.0291 102.992C46.4744 102.992 48.4567 101.007 48.4567 98.5585C48.4567 96.11 46.4744 94.125 44.0291 94.125C41.5839 94.125 39.6016 96.11 39.6016 98.5585C39.6016 101.007 41.5839 102.992 44.0291 102.992Z" fill="#B6FFF1"/>
<path d="M59.9666 102.992C62.4119 102.992 64.3942 101.007 64.3942 98.5585C64.3942 96.11 62.4119 94.125 59.9666 94.125C57.5214 94.125 55.5391 96.11 55.5391 98.5585C55.5391 101.007 57.5214 102.992 59.9666 102.992Z" fill="#B6FFF1"/>
<path d="M75.912 102.992C78.3573 102.992 80.3395 101.007 80.3395 98.5585C80.3395 96.11 78.3573 94.125 75.912 94.125C73.4667 94.125 71.4844 96.11 71.4844 98.5585C71.4844 101.007 73.4667 102.992 75.912 102.992Z" fill="#B6FFF1"/>
<path d="M44.0291 118.953C46.4744 118.953 48.4567 116.968 48.4567 114.519C48.4567 112.071 46.4744 110.086 44.0291 110.086C41.5839 110.086 39.6016 112.071 39.6016 114.519C39.6016 116.968 41.5839 118.953 44.0291 118.953Z" fill="#B6FFF1"/>
<path d="M59.9666 118.953C62.4119 118.953 64.3942 116.968 64.3942 114.519C64.3942 112.071 62.4119 110.086 59.9666 110.086C57.5214 110.086 55.5391 112.071 55.5391 114.519C55.5391 116.968 57.5214 118.953 59.9666 118.953Z" fill="#B6FFF1"/>
<path d="M75.912 118.953C78.3573 118.953 80.3395 116.968 80.3395 114.519C80.3395 112.071 78.3573 110.086 75.912 110.086C73.4667 110.086 71.4844 112.071 71.4844 114.519C71.4844 116.968 73.4667 118.953 75.912 118.953Z" fill="#B6FFF1"/>
<path d="M44.0291 134.867C46.4744 134.867 48.4567 132.882 48.4567 130.434C48.4567 127.985 46.4744 126 44.0291 126C41.5839 126 39.6016 127.985 39.6016 130.434C39.6016 132.882 41.5839 134.867 44.0291 134.867Z" fill="#B6FFF1"/>
<path d="M59.9666 134.867C62.4119 134.867 64.3942 132.882 64.3942 130.434C64.3942 127.985 62.4119 126 59.9666 126C57.5214 126 55.5391 127.985 55.5391 130.434C55.5391 132.882 57.5214 134.867 59.9666 134.867Z" fill="#B6FFF1"/>
<path d="M75.912 134.867C78.3573 134.867 80.3395 132.882 80.3395 130.434C80.3395 127.985 78.3573 126 75.912 126C73.4667 126 71.4844 127.985 71.4844 130.434C71.4844 132.882 73.4667 134.867 75.912 134.867Z" fill="#B6FFF1"/>
<path d="M107 346.001C166.094 346.001 214 342.693 214 338.612C214 334.531 166.094 331.223 107 331.223C47.9055 331.223 0 334.531 0 338.612C0 342.693 47.9055 346.001 107 346.001Z" fill="#1B1B1B"/>
<path d="M97.1136 249.446C96.2773 271.416 95.3918 293.387 94.0635 315.653C85.1591 315.111 74.5329 315.062 65.6286 313.88C65.727 287.229 62.6769 265.012 64.7431 240.727C75.3201 242.993 85.8479 245.259 97.1136 249.446Z" fill="#F47AEE"/>
<path d="M64.5469 248.51C79.2563 252.155 91.7027 263.929 96.1303 278.559C96.7207 269.938 97.2618 261.367 97.8522 252.746C87.0784 251.515 76.3538 250.234 64.5469 248.51Z" fill="#D358D6"/>
<path d="M62.8171 291.025C75.0176 292.602 87.4148 292.848 99.7137 291.617C98.533 301.173 97.3523 310.681 96.1716 320.237C85.0043 318.563 73.8861 316.937 62.7188 315.262C63.2107 306.789 63.7519 298.267 62.8171 291.025Z" fill="#FFFAFA"/>
<path d="M99.7579 294.176C99.6103 293.831 99.1676 293.979 98.9216 294.028C98.2328 294.127 97.5441 294.176 96.8554 294.275C93.4117 294.669 89.9188 295.014 86.4259 295.112C84.0646 295.161 81.654 295.112 79.2926 295.014C75.111 294.817 70.5358 294.324 66.1082 293.881C64.5832 293.733 63.0581 293.585 61.5331 293.437C61.1395 293.339 60.9427 294.028 61.3855 294.127C68.2728 294.767 75.1602 295.654 82.0967 295.802C87.3115 295.999 92.477 295.457 97.6425 294.866C98.1836 294.817 98.6756 294.767 99.2167 294.669C99.3151 294.669 99.4627 294.669 99.5611 294.62C99.7087 294.521 99.8071 294.324 99.7579 294.176Z" fill="#FFCC00"/>
<path d="M115.758 249.888C121.12 274.026 133.862 300.184 140.651 319.002C148.571 316.588 158.361 316.292 166.281 313.879C159.493 282.696 151.818 263.533 144.635 239.297C134.993 242.844 125.4 246.44 115.758 249.888Z" fill="#F47AEE"/>
<path d="M146.743 248.016C135.231 249.641 124.704 257.08 121.014 268.41C119.243 262.843 117.521 257.326 115.75 251.76C125.884 249.1 136.018 246.439 146.202 243.779C146.546 245.208 146.891 246.686 146.743 248.016Z" fill="#D358D6"/>
<path d="M132.273 300.139C142.555 297.085 152.788 294.08 163.07 291.025C165.185 298.464 167.301 305.902 169.416 313.341C159.921 316.543 150.377 319.794 140.883 322.996C138.177 315.163 135.471 307.331 132.273 300.139Z" fill="white"/>
<path d="M172.137 290.826C171.989 290.777 171.841 290.875 171.743 290.924C171.546 290.974 171.3 291.072 171.103 291.121C170.316 291.368 169.529 291.614 168.742 291.811C165.446 292.747 162.15 293.683 158.854 294.668C152.212 296.59 145.571 298.56 138.93 300.629C137.355 301.122 135.781 301.614 134.207 302.058C133.961 302.107 133.666 302.205 133.42 302.205C133.272 302.205 133.125 302.255 133.075 302.402C132.928 302.649 133.174 302.993 133.469 302.895C134.945 302.649 136.371 302.107 137.847 301.663C141.635 300.481 145.374 299.348 149.162 298.215C156.689 295.949 164.413 293.88 171.94 291.565C172.087 291.516 172.284 291.466 172.382 291.319C172.481 291.121 172.382 290.875 172.137 290.826Z" fill="#FFCC00"/>
<path d="M85.2025 119.053C61.6379 153.979 55.9312 199.349 52.5859 246.246C68.4269 251.123 85.9896 255.261 107.094 254.374C106.947 248.906 106.455 247.28 106.357 241.812C108.078 245.162 108.964 248.167 111.03 252.65C127.019 251.615 146.648 244.669 163.276 239.201C146.795 208.265 133.414 171.96 132.774 136.885C123.132 138.068 113.145 131.91 85.2025 119.053Z" fill="#E24F2D"/>
<path d="M125.256 62.6473C135.833 61.4158 146.46 60.2335 157.037 59.002C168.204 78.2632 163.924 105.16 147.345 119.988C144 122.993 142.672 127.574 140.556 131.515C138.441 135.456 134.456 139.249 130.028 138.411C113.843 135.259 98.2481 129.002 84.375 120.086C94.6568 107.229 102.282 92.2534 106.611 76.342C109.022 67.6227 117.975 63.4848 125.256 62.6473Z" fill="#FFCC00"/>
<path d="M157.718 19.0507C153.192 15.898 147.19 15.0113 141.926 16.7847C129.873 20.8241 124.363 42.3514 126.774 48.7061C130.414 58.4106 147.731 54.2234 154.619 46.7356C161.506 39.2479 165.638 24.6173 157.718 19.0507Z" fill="#F47AEE"/>
<path d="M132.919 49.4926C133.214 54.0739 131.492 58.7537 128.344 62.1035C134.838 63.138 141.479 63.0395 147.973 61.9065C148.957 56.6848 150.678 51.6108 152.941 46.7832C146.398 48.8029 139.56 49.7389 132.722 49.4433C132.722 49.3941 132.722 49.3941 132.919 49.4926Z" fill="#F47AEE"/>
<path d="M150.138 49.3968C141.874 49.3476 133.904 54.7171 130.805 62.4018C138.725 61.3181 146.055 56.589 150.138 49.3968Z" fill="#D358D6"/>
<path d="M106.649 56.3901C112.553 50.4787 119.637 45.1092 120.473 36.3407C122.49 35.4047 124.999 36.4392 126.229 38.3111C127.459 40.1338 127.508 42.5476 126.918 44.6659C126.327 46.7841 125.147 48.7053 124.556 51.0206C131.444 50.2816 138.331 49.592 146.153 48.9023C145.267 53.6314 140.938 53.3359 134.887 55.2571C136.461 56.7349 135.97 58.5083 134.002 58.9517C134.789 60.7743 133.116 64.5182 131.198 64.863C131.886 66.3409 130.804 68.3113 129.181 68.5084C123.621 69.1488 118.112 69.7892 113.044 70.7251C107.682 81.4149 102.369 92.0553 97.0067 102.745C94.5962 107.573 88.1024 109.839 83.1336 107.72C78.5585 105.257 76.5415 98.9519 78.8537 94.2721C85.7902 80.1341 95.2357 67.8187 106.649 56.3901Z" fill="#F47AEE"/>
<path d="M89.779 116.341C86.1878 117.178 81.2191 119.888 77.6278 120.824C76.0044 120.824 73.8889 117.622 75.4632 116.784C73.1018 115.848 72.4131 111.168 72.3147 106.981C72.2655 105.405 73.0526 103.927 74.4301 103.139C77.0867 101.513 79.8416 99.8384 82.9409 97.8679C85.6467 96.1438 88.6476 97.326 91.6977 98.4098C100.897 101.661 116.394 109.444 117.87 108.558C125.397 103.779 156.045 69.3948 167.606 75.8973C172.378 78.6067 173.903 84.7644 171.099 89.4935C160.129 107.967 141.287 123.681 123.035 136.046C110.294 134.568 90.9105 117.178 89.779 116.341Z" fill="#F47AEE"/>
<path d="M154.131 37.6741C150.097 34.1273 148.326 28.2652 149.704 23.0435C145.817 24.9154 141.045 24.7677 137.306 22.6494C136.372 22.1075 135.781 20.9745 135.929 19.8908C136.076 18.807 136.913 17.8218 137.946 17.5755C141.389 16.6395 144.833 15.7528 148.277 14.8168C151.327 13.9794 154.525 16.2454 155.804 19.1026C157.034 22.009 156.788 25.3095 156.148 28.3637C155.459 31.4672 154.475 34.5214 154.131 37.6741Z" fill="#D358D6"/>
<path d="M150.978 14.7653C151.667 4.91306 161.456 -0.259396 171.246 0.676571C198.501 3.28743 189.695 37.5734 185.021 45.2582C175.92 60.2336 196.09 92.894 213.948 88.7067C206.716 96.3422 194.959 105.554 184.972 108.658C179.068 104.963 174.887 98.559 174.001 91.6624C172.525 98.7561 175.674 106.589 180.938 110.037C180.348 111.219 164.949 119.84 163.719 118.953C149.502 108.51 137.449 64.2731 157.078 35.1596C160.817 29.593 154.864 19.9871 150.978 14.7653Z" fill="#7D3294"/>
<path d="M155.75 39.0034C150.782 33.8309 150.142 27.4762 151.962 21.1215C143.156 24.9146 137.45 22.7964 133.711 20.9244C137.056 13.9786 145.223 9.69284 152.848 10.8751C160.473 12.0574 166.918 18.6584 168 26.3432C169.033 34.028 164.606 42.1068 157.571 45.3088C157.374 43.8803 155.8 40.9246 155.75 39.0034Z" fill="#7D3294"/>
<path d="M150.241 40.7251C150.586 37.9665 156.145 36.5871 159.047 37.6709C163.229 39.198 163.229 49.5429 149.996 48.5577C148.618 46.4394 149.848 43.6808 150.241 40.7251Z" fill="#F47AEE"/>
<path d="M65.1318 313.879C53.62 318.509 43.289 326.884 35.4177 337.13C33.6959 338.854 96.2233 337.475 96.2233 337.475C96.1249 330.283 96.0757 323.091 95.9281 315.849L65.1318 313.879ZM140.647 318.953C149.354 317.031 158.947 315.012 167.606 313.238C180.446 318.312 191.81 327.179 199.534 338.559C180.298 338.165 161.014 337.82 141.877 337.573L140.647 318.953Z" fill="#4224A3"/>
<path d="M97.2482 130.532C95.8708 133.093 94.4933 135.655 93.0666 138.217C97.6418 139.793 102.217 141.369 106.792 142.995C107.678 140.236 108.612 137.478 109.498 134.719C105.513 133.192 101.479 131.714 97.2482 130.532ZM112.646 136.443C111.712 139.103 110.777 141.813 109.842 144.473C112.154 144.965 114.467 145.458 116.779 145.951C117.664 143.29 118.55 140.63 119.386 137.97C117.32 137.576 115.254 137.182 112.646 136.443ZM122.436 139.448C121.551 141.96 120.665 144.424 119.78 146.936C122.879 147.231 126.028 147.478 129.127 147.773C129.028 145.261 128.979 142.699 128.881 140.187C126.913 140.039 124.994 139.891 122.436 139.448ZM94.7393 129.694C93.1158 132.059 91.4432 134.473 89.8197 136.837C87.2616 135.507 84.7034 134.177 82.1452 132.847C83.5227 130.433 84.9002 128.019 86.3269 125.606C88.9834 127.034 91.7384 128.512 94.7393 129.694ZM83.8671 124.473C82.4896 127.034 81.0629 129.596 79.6855 132.157C78.8 131.96 77.9636 131.763 77.0781 131.566C78.7508 128.758 80.4726 125.95 82.1452 123.143C83.0308 123.832 83.8671 124.571 83.8671 124.473ZM131.39 140.532C131.587 143.29 131.783 146.049 131.98 148.759C132.62 148.759 133.259 148.759 133.899 148.759C133.702 145.901 133.505 143.044 133.308 140.187C132.718 140.335 132.079 140.433 131.39 140.532Z" fill="#1F1F21"/>
<path d="M141.284 34.8618C140.595 33.5318 140.989 31.9062 142.17 31.0687C143.498 30.1328 144.63 29.8372 146.647 30.5268C148.86 31.315 151.369 34.1229 150.927 37.2264C145.909 39.788 142.367 36.9308 141.284 34.8618Z" fill="white"/>
<path d="M145.412 34.6627C146.472 33.3174 146.416 31.5025 145.286 30.6091C144.155 29.7156 142.379 30.082 141.319 31.4273C140.258 32.7727 140.315 34.5876 141.445 35.481C142.575 36.3744 144.351 36.008 145.412 34.6627Z" fill="#1F1F21"/>
<path d="M137.301 31.4657C138.433 29.8893 138.039 27.4262 136.514 26.2932C134.989 25.1602 132.578 25.6036 131.447 27.1799C131.348 28.7071 132.037 30.2342 133.267 31.1209C134.497 32.0076 136.563 32.5494 137.301 31.4657Z" fill="white"/>
<path d="M135.75 29.5988C136.693 28.403 136.627 26.7776 135.603 25.9685C134.58 25.1593 132.986 25.4728 132.043 26.6687C131.1 27.8645 131.166 29.4899 132.189 30.2991C133.213 31.1082 134.807 30.7947 135.75 29.5988Z" fill="#1F1F21"/>
<path d="M154.965 37.081C154.03 36.2435 153.489 34.7657 153.046 33.6327C152.554 32.4011 152.21 31.1204 151.964 29.7903C151.914 29.4947 151.865 29.1992 151.816 28.9036C152.308 29.0514 152.8 29.1499 153.292 29.2977C153.636 29.3962 153.981 29.0514 153.882 28.7065C153.587 27.4257 152.702 26.2927 151.619 25.5538C151.619 25.1597 151.619 24.7656 151.619 24.3715C151.668 23.1893 151.767 22.4011 152.013 21.3173C152.21 21.1695 152.357 21.0218 152.505 20.8247C152.849 20.3814 153.292 19.5932 152.702 19.1991C151.816 18.8543 151.619 20.2336 151.422 20.8247C151.422 20.874 151.422 20.9232 151.373 20.9725C150.685 21.4651 149.75 21.9085 148.963 22.1548C145.125 23.3863 141.337 23.0415 137.451 21.9085C136.418 21.6129 135.828 21.3173 134.844 20.8247C134.598 20.6769 134.253 20.9232 134.352 21.2188C134.401 21.4159 134.598 21.4651 134.745 21.5144C135.336 21.81 135.975 22.1055 136.615 22.3026C135.729 22.3026 134.794 22.6474 134.106 23.2385C133.86 23.4848 134.007 23.9282 134.352 23.9282C136.27 23.9282 138.238 24.8149 139.419 26.342C139.616 26.5883 140.009 26.4898 140.058 26.1942C140.354 25.0119 139.714 23.6819 138.632 22.8937C139.222 23.0415 139.763 23.14 140.354 23.2385C143.748 23.8297 147.388 23.6326 150.586 22.1548C150.734 22.0563 150.931 21.9577 151.078 21.8592C150.931 22.6474 150.832 23.4356 150.832 24.2238C150.832 24.5193 150.783 24.8149 150.783 25.1105C150.488 24.9627 150.193 24.8641 149.848 24.7656C147.979 24.273 145.913 24.7656 144.437 25.9972C144.142 26.2435 144.24 26.6868 144.584 26.8346C146.7 27.5735 148.815 28.1154 150.931 28.6573C151.029 29.5933 151.226 30.48 151.472 31.4159C151.914 33.1401 152.603 34.815 153.439 36.3913C153.636 36.7362 153.882 37.0317 154.177 37.3273C154.276 37.4258 154.423 37.6229 154.571 37.6229C155.014 37.6721 155.161 37.278 154.965 37.081ZM138.927 30.1844C136.861 32.4011 134.647 34.4209 132.728 36.7362C132.482 37.1303 132.63 37.6721 132.63 38.1155C132.728 39.1007 132.876 40.0859 133.171 41.0219C133.22 41.2189 133.269 41.416 133.417 41.5145C133.565 41.613 133.811 41.5638 133.909 41.3667C134.056 41.1204 133.86 40.9234 133.811 40.6771C133.663 40.1845 133.565 39.6426 133.466 39.15C133.417 38.8051 133.319 38.2633 133.319 37.6721C133.319 37.5736 133.319 37.2288 133.319 37.1795V37.1302C133.319 37.1302 133.319 37.1302 133.319 37.081C134.598 35.5539 135.975 34.1746 137.402 32.746C138.091 32.0071 138.828 31.3174 139.468 30.5292C139.665 30.2337 139.173 29.9381 138.927 30.1844Z" fill="#1F1F21"/>
<path d="M153.445 46.5391C153.937 43.7312 155.708 41.1696 158.119 39.6425C158.709 39.2484 159.595 39.4455 160.038 40.0366C160.431 40.6278 160.283 41.5145 159.742 41.9578C157.578 43.6327 155.413 45.3076 153.445 46.5391Z" fill="#D358D6"/>
<path d="M141.927 43.6342C141.681 43.585 141.435 43.782 141.189 43.782C139.123 44.3731 137.45 44.6687 135.335 44.6687C134.253 44.6687 133.318 44.6195 132.433 44.4224C131.99 44.3239 131.793 44.9643 132.236 45.0628C133.564 45.3584 134.991 45.3584 136.368 45.3091C137.696 45.2599 138.976 45.0135 140.255 44.718C140.845 44.5702 141.484 44.4717 142.075 44.1761C142.272 44.0776 142.222 43.7327 141.927 43.6342ZM158.358 39.7918C157.424 39.3977 156.587 40.3337 156.046 40.9741C155.456 41.713 154.816 42.4027 154.324 43.2401C153.98 43.8313 153.685 44.4224 153.488 45.0628C153.439 45.3091 153.193 45.6047 153.341 45.851C153.488 46.0973 153.882 46.048 153.98 45.7525C154.226 45.0135 154.57 44.1761 155.013 43.4864C155.062 43.585 155.112 43.7327 155.259 43.7327C155.456 43.782 155.604 43.6342 155.8 43.585C156.735 43.0923 157.719 42.4519 158.358 41.5652C158.654 41.0726 159.096 40.1367 158.358 39.7918ZM156.735 42.1564C156.391 42.4027 155.997 42.6983 155.604 42.8953C155.505 42.9446 155.358 42.9938 155.259 43.0431C155.456 42.7475 155.653 42.452 155.85 42.2056C156.341 41.5653 157.079 40.7278 157.522 40.4815C157.817 40.3337 157.67 40.383 157.965 40.3337H158.014C158.014 40.3337 158.014 40.3337 158.063 40.3337C158.162 40.7278 157.424 41.713 156.735 42.1564ZM127.021 40.4815C126.923 39.8904 126.775 39.3485 126.529 38.8066C126.431 38.5603 126.332 38.2647 126.135 38.0677C125.84 37.8214 125.447 38.2155 125.644 38.511C126.824 40.6293 126.578 43.1416 125.89 45.6539C125.644 46.5407 125.348 47.4274 125.053 48.3141C124.906 48.7574 124.758 49.25 124.561 49.6934C124.512 49.7919 124.561 49.8904 124.61 49.9397C124.758 50.186 125.152 50.1367 125.25 49.8412C125.496 49.1022 125.742 48.4126 125.988 47.6737C126.726 45.3584 127.415 42.8953 127.021 40.4815ZM145.518 48.3633C144.731 47.9692 143.846 48.117 143.01 48.1663C141.435 48.3141 139.861 48.5111 138.287 48.6589C136.417 48.8067 134.548 49.053 132.678 49.2993C130.612 49.5949 128.497 49.8904 126.431 50.186C126.135 50.2352 125.84 50.2845 125.545 50.3338C125.398 50.3338 125.201 50.383 125.102 50.5308C124.955 50.7771 125.201 51.122 125.496 51.0234C128.694 50.5308 132.482 49.989 135.384 49.5949C136.86 49.3978 138.287 49.3485 139.763 49.1515C140.943 49.0037 142.173 48.9052 143.354 48.8067C144.043 48.8067 144.535 48.7574 144.977 48.9052C145.715 49.1515 145.666 50.186 145.076 50.8756C144.338 51.8116 142.911 52.452 141.976 52.8461C140.205 53.585 138.287 53.9791 136.417 54.4225C135.925 54.521 135.433 54.6688 134.892 54.7673C134.843 54.7673 134.843 54.7673 134.794 54.7673C134.745 54.7673 134.646 54.8166 134.597 54.8166C134.548 54.8166 134.45 54.8658 134.4 54.8658C134.204 54.9643 133.908 54.9151 133.712 55.0629C133.023 55.2599 132.334 55.457 131.645 55.5555C130.858 55.7033 130.17 55.7525 129.382 55.851C129.53 55.5555 129.678 55.2599 129.874 54.9643C129.924 54.8166 130.022 54.718 129.973 54.5702C129.924 54.2747 129.481 54.2254 129.333 54.4717C128.989 55.1614 128.546 55.851 128.202 56.59C128.153 56.9348 128.644 57.1318 128.841 56.787C128.89 56.7378 128.94 56.6392 128.94 56.59C129.136 56.59 129.284 56.5407 129.481 56.5407C131.252 56.3437 133.072 56.0481 134.745 55.457C134.941 55.4077 135.187 55.3584 135.384 55.3092C135.384 55.851 135.286 56.59 135.286 56.787C135.138 57.6245 135.04 57.8215 134.499 58.3634C134.45 58.4126 133.859 58.856 133.515 58.9545C133.367 59.0531 132.137 59.3979 131.596 59.4964C131.399 59.5457 131.252 59.5457 131.055 59.5949C130.711 59.6934 130.366 59.792 130.022 59.8412C129.825 59.8905 129.678 59.9398 129.481 59.9398C129.481 59.9398 129.481 59.9398 129.53 59.9398L129.481 59.989C129.333 60.2353 129.579 60.5801 129.874 60.4816C130.858 60.2846 131.793 60.0875 132.777 59.8412C133.515 59.6442 134.253 59.3979 134.843 58.9053C135.286 58.5604 135.679 58.0678 135.827 57.5259C136.024 56.8855 136.073 56.1959 136.073 55.5555C136.073 55.4077 136.122 55.2599 136.073 55.1121C139.713 54.2747 145.027 53.0924 146.06 50.3338C146.453 49.6934 146.256 48.8067 145.518 48.3633ZM133.761 61.8117C133.613 61.5654 133.22 61.6146 133.121 61.9102C133.072 62.058 132.875 62.7477 132.826 62.7969C132.334 63.8314 132.039 64.2255 131.153 64.4718C129.973 64.6688 128.054 64.7181 126.529 64.8166C126.234 64.8166 125.939 64.8166 125.644 64.8166H125.594C125.742 64.5211 125.89 64.2255 125.988 63.9299C126.037 63.5851 125.545 63.388 125.348 63.7329C125.053 64.2748 124.807 64.8166 124.561 65.3585C124.463 65.6048 124.266 65.8019 124.315 66.0482C124.364 66.3437 124.807 66.393 124.955 66.1467C125.053 65.9004 125.201 65.7033 125.299 65.457C125.348 65.5063 125.398 65.5063 125.496 65.5063C126.578 65.5556 127.661 65.457 128.743 65.4078C129.678 65.3585 130.661 65.3585 131.596 65.1122C131.891 65.0137 132.187 64.8659 132.482 64.6688C132.924 64.2747 133.269 63.6836 133.466 63.1417C133.564 62.8462 133.662 62.5999 133.761 62.3043C133.81 62.058 133.859 61.9102 133.761 61.8117ZM131.695 66.0482C131.547 65.8019 131.153 65.8511 131.055 66.1467C131.006 66.3437 130.957 66.4915 130.907 66.6886V66.7378C130.661 67.1812 130.563 67.329 130.317 67.6245C130.071 67.8708 130.071 67.8708 129.727 68.0186C128.792 68.462 126.185 68.9546 125.201 69.0531C124.66 69.1024 124.118 69.1516 123.627 69.1516C123.381 69.2009 123.085 69.1024 122.839 69.2009C122.495 69.3487 122.593 69.8906 122.987 69.8413C124.217 69.8413 125.398 69.7428 126.578 69.4965C127.611 69.2994 128.595 69.1024 129.579 68.7575C129.874 68.659 130.219 68.5112 130.465 68.3142C130.809 68.0186 131.104 67.6738 131.35 67.2797C131.498 67.0334 131.596 66.7378 131.695 66.4423C131.695 66.3437 131.793 66.196 131.695 66.0482ZM113.148 70.5802C113 70.3339 112.607 70.3832 112.508 70.6787C112.016 72.2551 111.377 73.4374 110.737 75.063C109.458 78.0679 107.933 80.9251 106.31 83.733C103.899 88.1665 101.341 92.5016 98.832 96.8858C98.5369 97.3784 98.2417 97.9203 97.9465 98.4129C97.8481 98.61 97.7006 98.807 97.6022 99.0041C97.553 99.1026 97.553 99.2996 97.6513 99.3981C97.7497 99.5459 97.9465 99.5952 98.0941 99.4967C98.3401 99.2996 98.4385 98.9548 98.5861 98.7085C98.832 98.2651 99.078 97.8218 99.324 97.3784C101.784 93.0434 104.293 88.8069 106.703 84.4227C107.933 82.2552 109.163 80.0384 110.245 77.7724C111.229 75.5556 112.312 73.3881 113.099 71.0728C113.148 70.8758 113.197 70.728 113.148 70.5802ZM109.016 105.408C108.966 105.31 108.917 105.26 108.819 105.26C108.573 105.162 108.327 105.063 108.032 104.965C107.244 104.62 106.408 104.324 105.621 103.979C103.506 103.142 101.439 102.255 99.57 101.467C97.8481 100.728 96.1755 99.94 94.552 99.0041C93.3222 98.3144 92.0923 97.5755 90.764 97.0829C89.8785 96.7873 88.993 96.6395 88.0582 96.541C86.238 96.3439 84.4178 96.7873 82.8435 97.6247C81.4661 98.4129 80.1378 99.2011 78.7603 99.9893C76.9893 100.975 75.1691 101.861 73.4472 102.896C73.0537 103.142 73.398 103.733 73.7916 103.487C75.1691 102.649 76.5465 101.91 77.9732 101.172C79.6458 100.285 81.2693 99.2996 82.8927 98.3637C83.8766 97.7725 85.3525 97.3292 86.3364 97.2306C88.3534 97.0829 90.1245 97.4277 91.7479 98.2159C93.9125 99.3489 95.9787 100.63 98.1925 101.566C100.505 102.6 102.866 103.585 105.227 104.521C106.064 104.866 106.949 105.211 107.786 105.556C108.081 105.654 108.327 105.753 108.622 105.901C108.671 105.901 108.72 105.901 108.77 105.901C109.016 105.901 109.163 105.605 109.016 105.408ZM137.5 63.5358C137.352 63.191 136.811 63.2895 136.86 63.6836C136.713 65.1122 136.663 66.5408 136.467 67.9694C136.467 68.2649 136.86 68.4127 137.057 68.2157C137.106 68.1664 137.155 68.0679 137.155 67.9694C137.204 67.6738 137.204 67.4275 137.254 67.1319C137.352 66.1959 137.401 65.3092 137.45 64.3733C137.45 64.1762 137.5 63.9792 137.5 63.7821C137.549 63.7329 137.549 63.6344 137.5 63.5358ZM150.832 49.1515C150.832 49.1515 150.832 49.2008 150.782 49.2008C150.832 49.25 150.832 49.2008 150.832 49.1515Z" fill="#1F1F21"/>
<path d="M164.014 118.805C163.965 118.706 163.866 118.657 163.768 118.607C163.915 118.755 163.62 118.509 163.571 118.46C163.473 118.361 163.325 118.263 163.227 118.164C162.587 117.671 161.997 117.08 161.456 116.489C159.832 114.814 158.651 112.795 157.372 110.627C155.355 107.376 153.732 103.977 152.453 100.627C151.469 98.0654 150.534 95.5039 149.944 92.8437C149.501 91.0703 149.206 89.3954 149.058 87.8191C148.911 86.489 148.566 84.5186 148.468 83.5333C147.976 79.5924 147.386 75.6022 147.238 71.6121C147.189 69.7894 147.287 67.9667 147.386 66.0948C147.582 62.3017 148.517 58.5578 149.255 54.6169C149.649 52.7942 150.141 50.9223 150.829 49.1489C150.829 49.1489 150.879 49.0503 150.879 49.0011C150.928 48.9026 150.928 48.7055 150.829 48.607C150.682 48.4099 150.387 48.4099 150.239 48.6562C149.108 51.4149 148.517 54.3213 147.976 57.2277C147.681 58.7056 147.386 60.1342 147.14 61.612H147.091C145.467 62.2031 144.188 62.3017 142.466 62.4002C140.646 62.548 138.826 62.5972 137.005 62.4494C136.858 62.4494 136.661 62.4002 136.563 62.548C136.366 62.745 136.514 63.1391 136.809 63.1391C138.58 63.2869 140.351 63.2376 142.122 63.1391C142.023 63.1884 141.925 63.2376 141.876 63.3854C141.581 64.6662 141.63 66.0455 141.827 67.3263C141.876 67.6219 141.925 67.9175 142.023 68.213C142.023 68.3608 142.073 68.4593 142.22 68.5579C142.565 68.7549 142.86 68.3608 142.712 68.016C142.614 67.5726 142.515 67.08 142.466 66.6367C142.368 66.2426 142.319 64.814 142.466 64.0751C142.417 64.2721 142.466 63.9766 142.515 63.878C142.515 63.7302 142.614 63.5824 142.614 63.4347C142.614 63.2869 142.466 63.1884 142.319 63.1391C143.007 63.0898 143.647 63.0406 144.336 62.9913C144.778 62.9421 145.27 62.8928 145.713 62.7943C145.565 63.6317 145.615 64.4692 145.664 65.2573C145.664 65.5529 145.713 65.8485 145.762 66.144C145.762 66.2426 145.811 66.3411 145.861 66.3904C146.057 66.5874 146.451 66.4396 146.451 66.144C146.353 65.2081 146.254 64.2721 146.353 63.3362C146.402 62.9913 146.353 63.1391 146.402 62.7943C146.402 62.745 146.402 62.6465 146.402 62.5972C146.549 62.548 146.697 62.4987 146.845 62.4987C146.894 62.4494 146.992 62.4494 147.091 62.4002C146.992 63.0406 146.894 63.681 146.845 64.3214C146.697 66.6859 146.5 69.0505 146.549 71.415C146.648 74.8633 147.14 78.3116 147.533 81.7599C147.533 81.957 147.582 82.154 147.582 82.3018C147.484 82.3018 147.386 82.3018 147.287 82.4003C143.352 86.2427 138.875 89.494 134.644 92.9915C132.971 94.3708 131.446 95.8979 129.872 97.3758C127.314 99.6911 124.756 102.056 122.148 104.272C121.706 104.666 121.263 105.011 120.82 105.405C120.722 105.504 120.525 105.602 120.427 105.75C120.377 105.849 120.427 106.046 120.476 106.144C120.623 106.292 120.82 106.292 120.968 106.144C121.509 105.701 122.05 105.208 122.591 104.765C126.724 101.267 130.61 97.5236 134.595 93.9275C137.104 91.8092 139.662 89.8388 142.22 87.7698C144.04 86.292 145.811 84.7649 147.484 83.1392C147.533 83.09 147.632 82.9914 147.681 82.9422C147.878 84.3215 148.124 85.7993 148.271 86.8338C148.468 88.8536 148.812 90.8733 149.304 92.893C149.944 95.7502 150.977 98.5088 152.01 101.267C153.043 103.928 154.273 106.538 155.7 109.051C155.552 108.952 155.405 108.952 155.257 109.1C153.584 111.021 151.666 112.696 149.796 114.42C147.435 116.588 144.926 118.558 142.466 120.578C138.383 124.026 134.3 127.77 130.266 130.775C129.725 131.169 129.233 131.563 128.691 131.957C128.495 132.056 128.445 132.351 128.642 132.499C128.987 132.844 129.429 132.204 129.725 132.056C130.315 131.612 130.905 131.169 131.446 130.775C135.874 127.425 139.957 123.583 144.286 120.036C147.484 117.474 150.583 114.814 153.535 111.957C154.322 111.169 155.159 110.43 155.847 109.543C155.847 109.494 155.897 109.445 155.897 109.396C156.241 109.987 156.585 110.578 156.93 111.169C158.504 113.78 160.127 116.391 162.489 118.361C162.784 118.607 163.079 118.805 163.325 119.051C163.423 119.149 163.522 119.248 163.719 119.297C163.866 119.346 164.014 119.248 164.063 119.149C164.063 119.051 164.063 118.903 164.014 118.805Z" fill="#1F1F21"/>
<path d="M167.113 20.8759C166.522 19.4474 165.637 18.1666 164.702 16.935C163.226 14.9153 161.357 13.0926 158.995 12.2059C158.11 11.8118 157.224 11.5655 156.29 11.3685C155.404 11.1222 154.519 10.8266 153.633 10.6788C153.436 10.6788 153.19 10.531 152.993 10.6296C152.747 10.7774 152.797 11.1714 153.092 11.27C154.174 11.467 155.207 11.7626 156.29 12.0581C158.011 12.5015 159.34 12.9448 160.816 13.9301C161.947 14.6197 163.57 16.3932 164.308 17.4769C165.391 18.9055 166.375 20.5311 166.867 22.009C168.736 27.5262 166.67 35.1618 163.964 40.2357C163.62 40.8761 163.226 41.5165 162.833 42.1076C162.685 42.3539 162.439 42.6002 162.341 42.8958C162.291 43.1421 162.537 43.3391 162.783 43.2899C162.931 43.2406 163.029 43.0928 163.128 42.9451C163.324 42.6495 163.521 42.3539 163.718 42.0091C164.997 40.0386 165.981 37.8711 166.719 35.6051C167.211 34.1765 167.604 32.6987 167.9 31.2208C168.392 27.7725 168.539 24.0779 167.113 20.8759Z" fill="#1F1F21"/>
<path d="M207.157 88.4105C207.206 88.3612 207.206 88.3612 207.255 88.3119C204.943 87.3267 202.877 86.637 200.614 85.4055C196.776 83.3365 193.825 80.2331 191.119 76.7355C189.495 74.7158 187.872 72.4498 186.741 69.8882C186.003 68.2625 185.265 65.898 184.625 63.8783C183.936 61.5137 183.248 59.1492 182.854 56.7354C182.411 54.5186 182.461 52.3018 183.297 49.9865C183.986 47.8683 185.068 45.9964 186.052 43.8289C186.79 42.2032 187.38 40.5284 187.921 38.8535C188.905 35.75 189.495 32.548 189.84 29.346C190.037 27.4248 190.037 25.5036 190.086 23.5332C190.086 21.1194 190.135 18.6563 189.791 16.2425C189.545 14.8139 189.299 13.3361 188.708 12.006C187.921 10.1341 186.888 8.31139 185.461 6.83355C182.805 4.12417 179.263 2.35076 175.672 1.36554C172.08 0.380308 168.341 -0.358618 164.603 0.183257C162.389 0.528087 160.273 1.36553 158.355 2.44929C156.682 3.38525 155.157 4.56753 154.026 6.14389C153.091 7.47395 152.156 8.85328 151.713 10.4296C151.615 10.873 152.255 11.0208 152.353 10.6267C152.55 9.73998 152.894 9.1981 153.386 8.31139C154.075 7.17838 154.616 6.3902 155.403 5.5035C156.584 4.27196 157.814 3.48377 159.388 2.64633C160.864 1.90741 162.192 1.4148 163.914 0.971443C165.291 0.626613 166.915 0.62661 168.587 0.675872C170.112 0.774395 171.588 1.06996 173.261 1.41479C175.672 1.95667 177.885 2.59707 179.952 3.68082C181.919 4.71531 183.494 5.70054 184.969 7.22765C185.953 8.21288 186.544 9.14884 187.232 10.4296C188.118 11.9567 188.61 13.4838 188.905 15.3558C189.397 17.6711 189.348 20.4297 189.348 23.0898C189.348 24.7647 189.348 26.3903 189.2 28.0652C189.003 30.5283 188.659 32.6465 188.118 35.1589C187.577 37.6219 186.593 40.5776 185.757 42.5973C184.92 44.5678 183.838 46.4397 183.002 48.4594C182.264 50.2329 181.723 52.154 181.772 54.0752C181.87 56.1442 182.264 58.1639 182.756 60.1344C183.297 62.2034 183.887 64.2724 184.576 66.2921C185.215 68.164 185.904 70.0852 186.839 71.8093C187.97 73.9276 189.446 75.7995 190.922 77.6715C192.595 79.7404 194.317 81.7109 196.383 83.3858C197.76 84.4695 199.187 85.4548 200.712 86.243C202.68 87.2282 204.697 88.0164 206.714 88.8045C206.763 88.8045 206.763 88.8045 206.812 88.8538C206.96 88.7553 207.009 88.5582 207.157 88.4105Z" fill="#1F1F21"/>
<path d="M184.618 107.968C184.027 107.623 183.437 107.279 182.896 106.884C181.814 106.096 180.387 104.766 179.403 103.485C178.763 102.599 177.583 100.875 176.992 99.5445C176.156 97.7218 175.369 95.6528 174.975 93.4853C174.877 92.9435 174.779 92.4509 174.729 91.909C174.729 91.7612 174.68 91.6134 174.533 91.5149C174.287 91.3671 173.942 91.6134 174.041 91.909C174.336 94.4213 175.025 96.8351 176.058 99.1011C176.599 100.431 177.337 101.613 178.124 102.796C179.403 104.766 181.076 106.441 182.994 107.82C183.585 108.215 184.175 108.559 184.765 108.855C184.864 108.904 184.962 108.953 185.06 109.003C185.208 109.052 185.356 108.953 185.405 108.855C185.602 108.264 184.864 108.165 184.618 107.968Z" fill="#1F1F21"/>
<path d="M152.796 243.338C152.599 242.845 152.058 243.24 151.714 243.338C151.025 243.584 150.287 243.831 149.599 244.077C146.548 245.062 143.449 245.9 140.35 246.836C137.3 247.772 134.2 248.708 131.101 249.397C126.624 250.481 122.098 251.171 117.572 252.057C115.9 252.402 114.522 252.599 112.997 252.747C112.554 252.796 112.112 252.846 111.62 252.895C111.571 252.796 111.521 252.698 111.472 252.599C111.177 252.008 111.079 251.762 110.882 251.269C110.39 250.087 109.652 248.018 109.111 246.54C107.438 242.156 106.061 237.673 104.732 233.19C102.125 224.964 100.157 216.54 98.2385 208.116C97.5006 204.865 96.9103 201.121 96.5167 198.116C96.2707 195.899 96.1232 193.683 95.828 191.466C95.3852 187.722 95.0901 183.978 94.7457 180.185C94.4505 177.229 94.0569 174.274 93.7126 171.318C93.5158 169.791 93.2698 168.362 93.1222 167.032C93.1222 166.983 93.1222 166.983 93.1222 166.934C93.6634 167.525 94.2537 168.165 94.8441 168.756C95.3852 169.249 95.828 169.84 96.4183 170.283C96.6151 170.382 96.9103 170.185 96.9103 169.988C96.9103 169.741 96.6643 169.594 96.5167 169.446C95.336 168.264 94.1553 167.032 93.073 165.751C93.073 165.653 93.0238 165.604 92.9746 165.505C92.9254 165.456 92.8763 165.406 92.7779 165.406C92.1875 164.717 91.5972 164.027 91.0068 163.338C90.1705 162.303 89.5802 161.564 88.8914 160.579C88.793 160.431 88.7438 160.283 88.547 160.234C88.2519 160.136 88.0059 160.48 88.1535 160.727C89.3342 162.5 90.7609 164.126 92.1383 165.751C92.2367 165.85 92.2859 165.899 92.3843 165.998C92.5319 167.673 92.8762 169.692 93.073 171.072C93.4666 174.274 93.9093 177.525 94.2045 180.727C94.5489 184.717 94.8933 188.658 95.3852 192.599C95.6804 195.949 96.0248 199.348 96.6151 202.697C97.1563 206.392 98.091 210.037 98.9273 213.683C100.059 218.363 101.141 222.993 102.469 227.624C103.158 230.087 103.945 232.55 104.683 235.062C105.913 239.299 107.34 243.535 108.914 247.673C109.406 249.003 110.045 250.777 110.488 251.811C110.636 252.205 110.833 252.599 111.029 252.993C110.833 253.19 110.98 253.584 111.275 253.584C112.948 253.486 114.571 253.289 116.195 252.993C116.539 255.259 117.228 257.427 117.868 259.594C118.507 261.614 119.097 263.634 119.639 265.653C120.819 269.791 121.951 273.979 123.328 278.018C124.558 281.663 126.083 285.21 127.707 288.708C127.953 289.299 128.248 289.841 128.494 290.383C128.641 290.678 128.74 291.122 129.182 290.925C129.478 290.728 129.281 290.383 129.182 290.136C128.887 289.545 128.592 288.954 128.346 288.314C126.477 284.324 124.902 280.53 123.525 276.245C121.803 271.072 120.475 265.752 118.901 260.481C118.31 258.56 117.72 256.639 117.228 254.717C117.13 254.225 116.982 253.683 116.933 253.19C116.884 253.092 116.884 252.944 116.884 252.846C118.114 252.648 119.393 252.402 120.622 252.156C123.279 251.614 125.936 251.22 128.592 250.678C132.675 249.841 136.709 248.708 140.694 247.476C143.793 246.54 146.893 245.703 149.992 244.717C150.73 244.471 151.517 244.225 152.255 243.929C152.353 243.781 152.895 243.781 152.796 243.338Z" fill="#1F1F21"/>
<path d="M106.804 253.881C105.377 254.078 103.114 254.078 101.343 254.176C97.4072 254.324 93.4224 254.225 89.4867 253.733C86.6334 253.388 83.3373 252.748 80.1888 252.354C78.7129 252.156 77.2371 251.812 75.8104 251.516C73.6458 251.122 71.5304 250.679 69.415 250.087C68.3327 249.792 67.2504 249.496 66.1189 249.152C65.8237 249.102 65.4794 248.807 65.2334 249.102C65.0858 249.299 65.1842 249.595 65.4302 249.644C65.7745 249.743 66.0697 249.841 66.4141 249.94C67.398 250.235 68.3327 250.482 69.3166 250.728C72.2192 251.516 75.1709 252.009 78.1226 252.649C79.992 252.994 81.8614 253.191 83.7309 253.487C86.4366 253.93 89.1916 254.373 91.9465 254.57C93.4716 254.718 94.9966 254.767 96.4725 254.817C96.4725 254.817 96.4725 254.817 96.4725 254.866C96.4233 257.083 96.4233 259.299 96.4725 261.565C96.5709 263.585 96.5709 265.605 96.4725 267.625C96.4233 269.447 96.2265 271.27 96.0297 273.093C95.7345 276.836 95.2918 280.531 95.095 284.275C95.0458 284.915 94.9966 285.556 94.9474 286.196C94.9474 286.393 95.095 286.541 95.2918 286.541C95.6854 286.541 95.6362 286.098 95.6853 285.802C95.7345 285.309 95.7345 284.817 95.7837 284.275C95.9805 280.58 96.3741 276.935 96.6693 273.29C96.8168 271.763 97.0136 270.285 97.0628 268.758C97.112 267.329 97.2104 265.95 97.2104 264.521C97.2104 262.994 97.112 261.467 97.112 259.989C97.112 258.314 97.0628 256.59 97.112 254.915C98.3911 254.915 99.6702 254.915 100.949 254.866C102.917 254.767 104.934 254.817 106.902 254.57C107.394 254.422 107.246 253.782 106.804 253.881Z" fill="#1F1F21"/>
<path d="M140.607 317.426C139.229 314.175 137.704 310.234 136.425 306.638C135.589 304.47 134.752 302.303 133.916 300.185C133.818 299.988 133.768 299.692 133.572 299.544C133.326 299.396 132.981 299.643 133.08 299.938C135.392 305.554 137.311 311.318 139.672 316.884C139.82 317.18 139.918 317.475 140.065 317.82C140.115 317.919 140.164 317.968 140.262 317.968C140.508 318.017 140.754 317.672 140.607 317.426Z" fill="#1F1F21"/>
<path d="M166.778 313.438C165.253 308.709 164.417 303.832 163.138 299.054C162.548 296.837 162.056 294.571 161.465 292.305C161.416 292.01 161.318 291.763 161.219 291.468C161.219 291.369 161.121 291.32 161.072 291.271C160.826 291.123 160.481 291.369 160.58 291.665C161.022 293.241 161.367 294.818 161.711 296.394C162.105 298.069 162.597 299.744 162.99 301.468C163.876 305.212 164.663 309.005 165.745 312.699C165.844 312.995 165.942 313.34 166.04 313.685C166.04 313.783 166.139 313.832 166.188 313.882C166.532 313.98 166.877 313.734 166.778 313.438Z" fill="#1F1F21"/>
<path d="M95.4367 292.006C95.2399 291.809 94.8464 291.956 94.8464 292.252C94.6004 296.981 94.5512 301.76 94.5512 306.489C94.502 309.592 94.4528 312.745 94.4528 315.848C94.502 316.095 94.3544 316.439 94.5512 316.636C94.8463 316.883 95.1907 316.636 95.1415 316.242C95.1415 311.267 95.2399 306.341 95.2891 301.365C95.3383 298.705 95.3875 295.996 95.5351 293.336C95.5351 292.991 95.5843 292.646 95.5843 292.351C95.5351 292.301 95.5351 292.104 95.4367 292.006Z" fill="#1F1F21"/>
<path d="M65.4733 300.483C65.4241 297.922 65.3749 295.311 65.3749 292.7C65.3749 292.503 65.3749 292.257 65.3749 292.06C65.3749 291.961 65.3749 291.813 65.2765 291.715C65.0797 291.518 64.6861 291.665 64.6861 291.961C64.5385 296.936 64.7845 301.912 64.9321 306.887C64.9813 308.464 64.9813 310.04 64.9813 311.616C64.9813 312.306 64.9321 313.143 64.9813 313.784C65.0797 314.03 65.4733 314.079 65.5717 313.833C65.6701 313.636 65.6209 313.39 65.6209 313.143C65.7684 308.956 65.5717 304.72 65.4733 300.483Z" fill="#1F1F21"/>
<path d="M180.202 316.984C178.677 317.821 177.152 318.56 175.578 319.299C175.381 319.004 175.234 318.708 175.086 318.413C174.201 316.885 173.512 315.309 172.675 313.782C172.577 313.634 172.528 313.486 172.331 313.437C172.036 313.339 171.79 313.683 171.938 313.93C172.971 315.654 173.709 317.526 174.742 319.25C174.791 319.349 174.889 319.496 174.938 319.595C174.643 319.743 174.397 319.841 174.102 319.989C172.577 320.629 171.495 321.22 169.97 321.664C169.773 321.713 169.675 321.959 169.773 322.156C169.921 322.403 170.167 322.354 170.363 322.255C171.495 321.91 172.626 321.418 173.709 320.925C174.25 320.679 174.742 320.482 175.283 320.235C176.021 321.516 176.808 322.748 177.595 324.028C178.284 325.112 178.923 326.196 179.661 327.23C179.858 327.378 180.153 327.28 180.202 327.033C180.252 326.787 180.055 326.639 179.956 326.442C178.579 324.324 177.201 322.156 175.873 319.94C176.66 319.595 177.398 319.25 178.185 318.856C178.874 318.511 179.514 318.166 180.202 317.821C180.35 317.723 180.645 317.674 180.694 317.427C180.842 317.083 180.498 316.836 180.202 316.984Z" fill="#06D0FF"/>
<path d="M196.233 327.672C195.593 327.426 194.855 327.475 194.216 327.623C193.281 327.82 192.346 328.116 191.461 328.461C189.1 329.347 186.837 330.431 184.77 331.909C184.328 332.204 183.934 332.549 183.541 332.943C183.344 333.14 183.049 333.337 183.196 333.633C183.245 333.781 183.442 333.879 183.639 333.83C183.786 333.781 183.885 333.584 184.032 333.485C184.278 333.239 184.377 333.19 184.721 332.894C187.132 331.071 189.493 329.988 192.297 328.953C193.232 328.608 194.019 328.411 194.855 328.313C195.446 328.264 195.593 328.264 196.184 328.461C196.528 328.461 196.676 327.771 196.233 327.672Z" fill="#06D0FF"/>
<path d="M52.5781 336.241C52.2829 335.551 51.9878 334.813 51.6926 334.123C50.8563 332.103 49.8232 330.182 48.4949 328.409C47.5602 327.177 46.5763 325.946 45.2972 325.01C44.6085 324.517 43.9197 323.975 43.0342 323.926C42.6898 323.975 42.6406 324.517 42.985 324.615C45.2972 325.108 47.8061 328.556 49.1836 330.675C50.1675 332.251 50.8563 333.975 51.5942 335.65C51.6926 335.896 51.791 336.093 51.8894 336.34C52.0369 336.586 52.0369 336.882 52.2337 337.079C52.4305 337.177 52.6765 337.079 52.7257 336.882C52.8241 336.635 52.6765 336.438 52.5781 336.241Z" fill="#06D0FF"/>
<path d="M64.8771 315.453C63.2045 316.34 61.5318 317.178 59.8592 318.015C59.7608 317.818 59.6624 317.621 59.564 317.424C59.0229 316.34 58.7769 315.552 58.2849 314.419C58.0881 314.123 57.5962 314.37 57.6946 314.715C58.1866 315.946 58.6785 317.128 59.2688 318.311C58.9737 318.458 58.6785 318.606 58.4325 318.754C56.3171 319.788 54.005 320.971 52.0371 321.759C51.742 321.808 51.6928 322.252 51.9387 322.399C52.1355 322.498 52.3323 322.35 52.5291 322.301C54.8905 321.266 57.2518 320.133 59.564 318.951C59.8592 319.591 60.2036 320.183 60.4987 320.823C60.8923 321.562 61.2859 322.35 61.6794 323.089C61.9254 323.483 62.073 323.976 62.3682 324.321C62.565 324.468 62.8601 324.37 62.9093 324.123C62.9585 323.877 62.7617 323.68 62.6633 323.483C61.827 321.857 60.9907 320.281 60.2036 318.655C60.7447 318.409 61.2859 318.114 61.7778 317.867C62.6141 317.473 63.4505 317.03 64.2868 316.586C64.6311 316.389 65.0739 316.242 65.3691 315.995C65.5659 315.7 65.2215 315.256 64.8771 315.453Z" fill="#06D0FF"/>
<path d="M147.649 40.0833C147.501 39.9355 147.304 39.9848 147.107 40.034C146.714 40.0833 146.369 40.1818 145.976 40.2311C146.074 39.9848 146.025 39.6892 145.681 39.5907C145.386 39.5414 145.09 39.6892 144.795 39.7385C144.254 39.8863 143.713 40.034 143.221 40.1326C143.369 39.8863 143.418 39.64 143.172 39.4429C142.975 39.3444 142.778 39.3936 142.532 39.4429C142.385 39.4429 142.188 39.4922 142.04 39.4922C142.335 39.2951 142.631 39.0488 142.729 38.7533C142.778 38.5562 142.631 38.3099 142.434 38.2606C142.04 38.1621 141.696 38.3099 141.302 38.4084C141.204 38.4084 141.155 38.4577 141.056 38.4577C141.056 38.3099 140.909 38.1621 140.712 38.1621C140.417 38.2114 140.171 38.3592 139.876 38.4577C139.679 38.5562 139.384 38.6547 139.285 38.8518C139.138 39.1473 139.482 39.4429 139.777 39.3444C140.318 39.2951 140.958 39.1473 141.499 39.0488C141.352 39.1473 141.204 39.2951 141.106 39.4922C140.86 40.034 141.45 40.2804 141.893 40.2311C142.04 40.2311 142.237 40.2311 142.385 40.1818L142.335 40.2311C142.188 40.5267 142.385 40.8715 142.729 40.8715C143.418 40.9207 144.402 40.5759 145.09 40.3789C145.041 40.4774 145.041 40.6252 145.09 40.7237C145.336 41.0685 145.828 40.9207 146.173 40.8715C146.714 40.773 147.206 40.6744 147.501 40.6252C147.747 40.5759 147.845 40.2311 147.649 40.0833Z" fill="#FF526F"/>
<path d="M134.639 33.1882C134.295 33.336 133.852 33.5823 133.459 33.7794C133.459 33.7301 133.508 33.6809 133.508 33.6316C133.557 33.3853 133.409 33.1882 133.164 33.139C132.967 33.0897 132.77 33.139 132.573 33.1882C132.475 33.1882 131.983 33.2868 131.884 33.336C131.884 33.2868 131.934 33.1882 131.934 33.0405C131.934 32.6464 131.54 32.4001 131.196 32.3015C131.147 32.2523 131.147 32.2523 131.097 32.203C130.999 32.1045 130.95 31.9567 130.802 31.9567C130.605 31.9074 130.359 32.0552 130.359 32.3015C130.409 32.5478 130.605 32.7449 130.802 32.8927C130.851 32.9419 131.048 32.9912 131.097 33.0405C131.147 33.0405 131.196 33.0897 131.196 33.0897C131.196 33.0897 131.196 33.0897 131.196 33.139C131.196 33.2375 131.147 33.3853 131.147 33.4838C131.196 34.1242 131.835 34.0749 132.278 33.9272C132.376 33.9272 132.426 33.8779 132.524 33.8779C132.426 34.0257 132.327 34.1242 132.278 34.3213C132.18 34.5676 132.426 34.8139 132.672 34.8139C133.262 34.7646 133.754 34.3705 134.295 34.1242C134.541 34.0257 134.738 33.8779 134.984 33.7794C135.082 33.7301 135.131 33.6809 135.131 33.5823C135.23 33.2868 134.885 32.9912 134.639 33.1882Z" fill="#FF526F"/>
<path d="M90.2632 116.487C89.3285 115.945 88.4922 115.206 87.4099 114.96C85.9832 114.665 84.5566 114.665 83.0807 114.714C82.1952 114.763 81.2605 114.763 80.375 114.911C80.129 115.009 80.0798 115.404 80.3258 115.502C80.5718 115.601 80.8669 115.502 81.1129 115.502C81.8016 115.453 82.4904 115.404 83.2283 115.404C83.0807 115.502 82.9331 115.601 82.7363 115.65C82.5888 115.699 82.4412 115.798 82.4412 115.945C82.392 116.142 82.5396 116.389 82.7856 116.389C83.0315 116.339 83.2283 116.142 83.4743 116.044C83.7694 115.847 84.1138 115.699 84.409 115.453C84.4582 115.404 84.4582 115.404 84.4582 115.354C85.4913 115.354 86.4752 115.404 87.2623 115.601C88.1478 115.798 88.9842 116.487 89.9189 117.029C90.3125 117.325 90.6568 116.734 90.2632 116.487Z" fill="#1F1F21"/>
<path d="M83.3776 118.312C83.2301 117.918 82.8365 118.115 82.5905 118.214C82.2462 118.362 81.8526 118.509 81.5082 118.657C80.5243 119.051 79.4912 119.396 78.4581 119.642C77.3758 119.839 76.6871 119.889 76.0475 119.15C75.7032 118.706 75.3588 117.672 75.4572 116.835C75.4572 116.638 75.3588 116.539 75.2112 116.539C75.2112 116.539 75.2112 116.539 75.2112 116.49C75.1128 116.243 74.9652 116.046 74.8668 115.8C74.6701 115.307 74.4241 114.569 74.5225 113.78C74.5225 113.731 74.5717 113.534 74.5717 113.485C74.6701 113.14 74.7685 112.647 74.3749 112.5C74.1289 112.45 74.1289 112.5 74.0305 112.45C73.9813 112.45 73.9321 112.401 73.8829 112.401C73.7353 111.859 73.5878 110.775 73.6862 109.839C73.6862 109.544 74.0305 108.559 73.9813 107.918C73.9813 107.623 73.8829 107.376 73.7354 107.13C73.4894 106.785 73.3418 106.588 73.2926 106.342C73.2434 106.046 73.2434 105.899 73.1942 105.455C73.1942 105.209 73.2434 104.963 73.145 104.766C72.9974 104.421 72.4563 104.519 72.5055 104.913C72.5055 105.504 72.4563 106.145 72.653 106.736C72.7514 107.032 72.9482 107.278 73.145 107.524C73.2926 107.721 73.2926 108.115 73.2434 108.411C72.9482 109.593 72.8498 110.775 73.0466 111.958C73.145 112.697 73.2434 113.041 73.8829 113.14C73.8337 113.436 73.7354 113.928 73.7354 114.273C73.7354 114.913 73.9321 115.554 74.1781 116.145C74.3257 116.391 74.3749 116.736 74.6209 116.933C74.6209 116.933 74.6701 116.933 74.6701 116.982C74.6209 117.573 74.7193 118.115 74.9161 118.657C75.162 119.347 75.6048 119.938 76.2443 120.234C77.4742 120.775 78.9009 120.234 80.1308 119.839C80.9671 119.544 81.7542 119.248 82.5413 118.953C82.9349 118.805 83.476 118.756 83.3776 118.312Z" fill="#1F1F21"/>
<path d="M160.623 192.01H156.688V202.108H160.623V192.01Z" fill="#B6FFF1"/>
<path d="M172.379 207.281H164.016V210.927H172.379V207.281Z" fill="#B6FFF1"/>
<path d="M172.375 192.01H169.719V194.67H172.375V192.01Z" fill="#B6FFF1"/>
<path d="M184.878 218.266H179.516V223.635H184.878V218.266Z" fill="#B6FFF1"/>
<path d="M166.289 218.266H163.633V220.926H166.289V218.266Z" fill="#B6FFF1"/>
<path d="M199.538 231.369H179.516V235.014H199.538V231.369Z" fill="#B6FFF1"/>
<path d="M194.174 240.73H189.5V252.997H194.174V240.73Z" fill="#B6FFF1"/>
<path d="M203.379 250.633H199.492V254.524H203.379V250.633Z" fill="#B6FFF1"/>
<path d="M178.719 249.057H175.227V252.554H178.719V249.057Z" fill="#B6FFF1"/>
<path d="M181.637 239.844H180.555V247.184H181.637V239.844Z" fill="#B6FFF1"/>
<path d="M173.756 245.656H170.312V247.233H173.756V245.656Z" fill="#B6FFF1"/>
<path d="M175.238 256.443H163.234V263.783H175.238V256.443Z" fill="#B6FFF1"/>
</svg>
