<svg width="213" height="200" viewBox="0 0 213 200" fill="none" xmlns="http://www.w3.org/2000/svg">
<path d="M142.299 61.3496C142.477 38.5394 157.629 20.075 176.17 18.707C181.018 18.3479 185.34 21.7004 186.219 26.5016C190.339 49.0806 181.269 72.0201 163.868 79.0142C156.388 73.0392 148.934 67.1194 142.299 61.3496ZM107.633 87.2114C90.8047 70.6632 65.7345 64.786 45.4929 73.2112C42.2707 74.554 41.1633 78.7485 43.1898 81.9818C55.9595 102.513 77.249 117.191 99.6818 120.4C102.214 109.28 104.802 98.1344 107.633 87.2114Z" fill="#74597D"/>
<path d="M152.111 46.6016C154.013 37.2775 161.28 29.3806 170.142 26.0777C175.206 24.1903 180.787 27.4811 181.603 32.8557C183.34 43.8254 180.167 55.5908 172.754 64.0323C165.486 58.4985 158.244 53.0198 152.111 46.6016Z" fill="#FF526F"/>
<path d="M80.0303 109.277C79.5843 87.8514 83.3178 63.403 111.197 47.8529C142.25 30.5763 163.213 50.2279 177.035 66.5906C192.306 84.7002 225.9 143.536 243.657 177.004C250.612 190.082 245.452 206.329 232.268 213.063C207.417 225.735 168.702 244.857 148.491 254.76C141.019 258.413 132.068 255.451 128.165 248.166C113.457 220.629 81.0389 155.056 80.0303 109.277Z" fill="#A690F0"/>
<path d="M133.381 89.9822C134.262 99.7345 141.147 108.709 150.338 112.031C159.53 115.353 170.566 112.906 177.489 105.988C184.412 99.0702 186.861 88.059 183.51 78.8138C182.306 75.4571 178.429 73.3154 174.944 73.9701C159.74 77.0608 145.092 83.0054 133.381 89.9822Z" fill="#9079D9"/>
<path d="M182.803 68.4345C183.94 79.285 183.341 90.9007 177.339 100.022C171.338 109.143 158.507 114.351 149.075 108.973C140.022 103.821 132.886 95.1707 130.342 85.0632C127.798 74.9558 130.143 63.5873 137.079 55.8492C144.016 48.1111 155.535 44.5503 165.468 47.7202C175.4 50.8902 182.047 61.0641 182.803 68.4345Z" fill="white"/>
<path d="M120.153 86.0205C127.399 94.6176 129.246 107.23 124.808 117.772C120.37 128.313 109.79 136.375 98.2208 137.993C89.0088 139.293 80.6644 130.952 80.1534 121.972C79.6425 112.991 85.3353 104.358 92.7039 98.6507C100.044 93.0254 109.068 89.7798 120.153 86.0205Z" fill="#9079D9"/>
<path d="M84.7352 80.4939C76.2075 75.0217 65.0616 74.1299 55.6752 77.7526C52.7574 78.8815 51.6875 82.4475 53.4516 84.9926C59.3856 93.5411 68.0852 100.22 77.9055 103.579C79.9726 95.8716 82.0109 88.2456 84.7352 80.4939Z" fill="#FF526F"/>
<path d="M154.18 249.655C143.101 261.484 115.441 265.194 100.498 258.934C85.5547 252.674 74.4186 239.363 67.4353 224.67C60.4786 210.033 57.1564 193.922 53.94 178.032C52.2668 169.881 58.1845 160.868 66.3357 159.195C74.4869 157.522 83.502 163.303 85.2568 171.483C86.8088 178.675 85.4011 214.895 99.0599 231.201C112.719 247.506 119.955 241.524 131.933 240.049C138.264 239.249 153.3 243.158 154.18 249.655Z" fill="#A690F0"/>
<path d="M94.9991 215.106C84.1704 218.267 73.8114 222.832 64.0897 228.583C67.7245 223.718 71.3594 218.853 74.9942 213.988C72.5904 213.785 70.1732 214.403 67.8134 214.857C65.4801 215.366 62.9571 215.763 60.6415 215.178C58.2708 214.62 56.0567 212.833 55.7129 210.421C55.369 208.008 57.4908 205.362 59.8902 205.838C71.5609 208.106 83.2316 210.374 94.9991 215.106Z" fill="#74597D"/>
<path d="M92.5592 190.366C79.0999 188.752 65.1662 191.098 52.9546 196.89C60.6423 200.188 69.8167 199.516 76.9712 195.201C75.3016 196.952 73.632 198.703 71.9624 200.454C80.572 202.563 89.9119 201.811 98.1205 198.279C95.1942 196.563 92.6626 194.115 92.5592 190.366Z" fill="#74597D"/>
<path d="M90.5943 174.551C78.0772 167.126 61.4134 167.458 49.2765 175.385C53.5552 172.993 58.8524 173.571 63.5056 175.069C68.1589 176.567 72.5805 178.854 77.408 179.726C82.1803 180.624 87.7203 179.729 90.5943 174.551Z" fill="#74597D"/>
<path d="M87.9919 131.096C73.2097 126.726 63.5581 109.583 67.5466 94.7123C71.5351 79.8418 88.4115 69.7756 103.425 73.3561C118.439 76.9367 128.891 93.6278 125.666 108.675C122.44 123.722 105.687 136.307 87.9919 131.096Z" fill="white"/>
<path d="M192.214 112.217C191.18 111.899 191.136 112.938 190.933 113.646C190.672 114.517 190.438 115.443 190.152 116.259C188.171 122.026 185.55 126.743 180.923 130.388C178.319 132.452 176.382 133.789 173.167 134.721C171.215 135.319 167.269 135.72 164.947 135.545C163.69 135.47 162.49 135.232 161.291 134.994C159.465 134.581 157.967 134.147 155.93 133.293C152.291 131.647 148.672 128.771 145.986 125.719C144.67 124.248 143.463 122.724 142.367 121.147C140.736 118.877 139.724 117.192 138.758 114.332C138.707 114.085 138.705 114.222 138.577 113.673C138.553 113.481 138.447 113.26 138.257 113.148C137.717 112.729 136.861 113.207 136.987 113.893C137.886 117.464 139.86 120.586 142.056 123.467C144.947 127.371 148.476 130.765 152.619 133.321C156.031 135.483 159.981 136.504 163.911 137.06C169.018 137.526 174.446 136.821 178.786 133.992C181.274 132.391 183.629 130.514 185.581 128.221C188.343 124.928 190.321 120.994 191.673 116.886C192.046 115.825 192.337 114.735 192.629 113.646C192.659 113.428 192.801 113.156 192.805 112.883C192.754 112.636 192.54 112.332 192.214 112.217Z" fill="#1F1F21"/>
<path d="M98.9705 152.419C99.4514 151.442 100.234 152.084 100.885 152.45C101.699 152.874 102.512 153.297 103.381 153.694C108.921 156.191 114.123 157.561 119.937 156.671C123.227 156.177 125.505 155.694 128.432 154.018C130.254 153.008 133.196 150.375 134.647 148.594C135.428 147.676 136.074 146.62 136.72 145.564C137.704 143.938 138.41 142.582 139.182 140.516C140.42 136.734 140.876 132.173 140.533 128.064C140.345 126.119 140.103 124.2 139.724 122.279C139.221 119.536 138.65 117.639 137.243 114.991C137.138 114.77 137.19 114.88 136.897 114.41C136.763 114.272 136.712 114.025 136.743 113.806C136.836 113.151 137.771 112.838 138.172 113.392C140.201 116.488 141.045 120.085 141.616 123.678C142.469 128.424 142.526 133.348 141.546 138.092C140.798 142.046 138.827 145.57 136.531 148.843C133.374 152.868 129.133 156.327 124.081 157.531C121.224 158.223 118.236 158.64 115.257 158.51C110.939 158.276 106.72 156.976 102.865 155.163C101.833 154.709 100.83 154.173 99.9077 153.665C99.7181 153.553 99.4733 153.467 99.2571 153.299C98.8778 153.074 98.8294 152.691 98.9705 152.419Z" fill="#1F1F21"/>
<path d="M98.3246 183.866C107.318 207.837 122.624 225.455 149.541 232.21C176.457 238.965 207.203 227.127 222.08 203.707C236.957 180.287 229.862 157.304 219.554 133.422C224.01 142.001 244.596 178.113 245.146 179.681C250.281 193.633 245.331 207.066 229.066 214.871C200.119 228.763 170.773 243.66 141.495 257.71C137.085 259.827 130.839 256.99 128.806 252.471C118.011 228.28 100.386 193.392 98.3246 183.866Z" fill="#9079D9"/>
<path d="M126.48 103.874L139.779 98.5096C141.1 98.0113 142.476 99.1824 142.125 100.572L139.105 113.078C138.841 114.223 137.491 114.803 136.49 114.13C132.833 111.882 129.206 109.553 126.05 106.794C125.025 105.929 125.269 104.32 126.48 103.874Z" fill="#FF526F"/>
<path d="M245.613 100.089C244.929 100.078 244.191 100.093 243.507 100.082C241.756 100.109 239.976 100.217 238.251 100.298C215.992 101.551 193.509 103.183 172.041 109.619C167.476 111.132 162.939 112.563 158.451 114.377C157.569 114.801 158.12 116.232 159.139 115.811C161.673 114.73 164.342 113.789 166.982 112.929C171.328 111.386 176.22 109.988 181.191 108.755C199.368 104.509 218.048 103.007 236.666 101.941C238.966 101.787 240.964 101.71 243.646 101.644C244.111 101.624 244.603 101.659 245.068 101.639C245.478 101.646 246.052 101.71 246.279 101.194C246.559 100.788 246.16 100.098 245.613 100.089ZM228.975 112.347C228.514 112.094 227.909 112.248 227.391 112.158C226.161 112.138 224.985 112.091 223.755 112.071C211.149 111.812 198.503 112.319 186.007 113.703C179.294 114.414 172.684 115.483 166.046 116.634C164.977 116.808 163.878 117.064 162.835 117.293C162.368 117.45 161.794 117.386 161.514 117.792C161.095 118.332 161.629 119.161 162.314 119.035C166.461 118.063 170.71 117.448 174.934 116.778C180.363 115.936 185.791 115.231 191.269 114.773C202.199 113.801 212.271 113.444 223.428 113.653C224.74 113.701 226.081 113.668 227.42 113.772C228.077 113.728 228.946 114.125 229.341 113.393C229.429 113.011 229.272 112.544 228.975 112.347ZM198.096 122.214C197.772 121.963 197.333 122.038 196.923 122.031C196.213 121.965 195.584 121.927 194.901 121.916C186.704 121.373 178.477 120.911 170.265 121.325C168.758 121.438 167.226 121.495 165.719 121.607C165.144 121.68 164.597 121.671 163.995 121.689C163.858 121.686 163.803 121.713 163.719 121.821C162.974 122.246 163.474 123.431 164.27 123.252C169.199 122.922 173.143 122.658 178.175 122.684C183.481 122.716 188.809 123.076 194.138 123.435C195.04 123.477 195.887 123.546 196.815 123.643C197.307 123.678 197.988 123.826 198.271 123.284C198.551 122.878 198.394 122.41 198.096 122.214ZM52.9234 174.924C53.4241 174.412 53.9512 173.956 54.4783 173.5C55.8105 172.318 57.169 171.191 58.5276 170.064C75.691 155.79 93.2888 141.714 113.389 131.865C117.716 129.856 122.099 127.821 126.585 126.143C127.546 125.885 128.097 127.316 127.052 127.682C124.465 128.652 121.876 129.759 119.368 130.895C115.154 132.714 110.575 135.047 106.131 137.519C89.8966 146.802 75.1571 158.352 60.8499 170.238C59.1031 171.687 57.5504 172.975 55.5522 174.748C55.1641 175.07 54.831 175.365 54.4693 175.742C54.1363 176.038 53.801 176.47 53.285 176.243C52.7138 176.042 52.5617 175.301 52.9234 174.924ZM73.4225 172.548C73.5946 172.059 74.1195 171.739 74.4548 171.307C75.3171 170.418 76.206 169.585 77.0948 168.751C86.1817 159.981 95.7514 151.793 105.912 144.271C111.311 140.256 116.898 136.49 122.537 132.833C123.477 132.247 124.416 131.66 125.382 131.129C125.823 130.917 126.185 130.54 126.703 130.631C127.385 130.778 127.561 131.711 126.926 132.084C123.199 134.212 119.685 136.644 116.146 139.021C111.582 142.093 107.127 145.248 102.804 148.68C94.0795 155.377 86.477 162.01 78.4466 169.73C77.474 170.672 76.5565 171.587 75.5838 172.529C75.0854 172.904 74.7148 173.828 73.954 173.514C73.6011 173.344 73.3343 172.93 73.4225 172.548ZM102.777 158.8C102.865 158.419 103.225 158.178 103.476 157.854C103.922 157.369 104.423 156.857 104.868 156.372C110.49 150.418 116.194 144.493 122.543 139.207C123.708 138.241 124.872 137.275 126.063 136.365C126.507 136.016 126.95 135.668 127.367 135.264C127.477 135.211 127.532 135.185 127.669 135.187C128.52 134.982 128.966 136.193 128.22 136.618C124.367 139.756 121.29 142.25 117.651 145.693C113.763 149.322 110.117 153.175 106.416 157.054C105.832 157.673 105.192 158.32 104.634 158.994C104.272 159.371 103.935 159.94 103.337 159.685C102.901 159.623 102.689 159.182 102.777 158.8Z" fill="#1F1F21"/>
<path d="M165.226 246.662C156.669 227.84 148.138 209.074 139.69 190.2C133.907 174.049 142.381 154.109 158.113 147.17C173.818 140.176 194.275 147.182 201.681 162.757C210.503 180.433 219.299 198.055 227.905 215.564C206.7 226.08 185.494 236.596 165.226 246.662Z" fill="#FFCC00"/>
<path d="M86.3447 73.8186C81.689 75.8493 76.9472 78.1249 73.5484 81.9267C71.0165 84.5663 69.457 87.9603 68.0078 91.3013C66.1571 95.7847 65.612 100.727 66.2181 105.524C65.7043 105.16 65.1904 104.796 64.7318 104.405C62.5684 102.866 59.4436 99.8883 58.1514 98.6091C55.7543 96.2999 53.3021 94.0171 51.1278 91.4653C49.1674 89.2179 47.3724 86.8911 45.8554 84.2952C45.3284 83.0558 43.6743 83.8496 44.3953 84.9281C47.3237 89.8992 51.2489 94.1206 55.3969 98.0994C58.6011 101.242 61.8604 104.359 65.5387 106.935C65.918 107.16 66.2687 107.467 66.648 107.692C66.8728 109.008 67.2344 110.327 67.6511 111.619C69.6442 118.6 74.6411 124.206 80.1763 128.672C80.743 129.147 81.3384 129.539 82.0154 129.96C82.2867 130.102 82.5557 130.379 82.913 130.276C83.4335 130.23 83.7709 129.661 83.5328 129.164C83.3211 128.723 82.8028 128.633 82.4522 128.326C81.8568 127.934 81.2901 127.459 80.7233 126.985C76.9171 123.86 73.1528 119.833 71.0051 115.64C70.1562 114.012 69.5829 112.252 69.0097 110.493C68.4629 108.788 67.8765 106.152 67.751 103.77C67.4733 100.648 67.9236 96.4971 68.9294 93.5045C69.9044 90.7302 71.4021 87.773 72.5557 85.7948C73.1755 84.6834 75.0701 82.5531 75.4031 82.2576C76.3493 81.2609 77.43 80.4031 78.5636 79.6556C80.639 78.1847 82.3769 77.2829 84.9397 76.1209C85.6564 75.7769 86.3445 75.5145 87.0062 75.197C87.1716 75.1176 87.3657 74.9566 87.423 74.7934C87.6789 74.1958 86.9512 73.5275 86.3447 73.8186Z" fill="#1F1F21"/>
<path d="M179.357 58.4214C176.847 54.6059 173.453 51.3505 169.413 49.1514C167.027 47.8545 164.557 46.6656 161.884 46.1846C160.275 45.9397 158.579 45.9395 156.964 45.9681C155.213 45.9944 153.46 46.1575 151.702 46.594C151.235 46.7505 150.606 46.713 150.271 47.1452C149.852 47.6855 150.33 48.5412 151.016 48.4156C153.16 47.7938 155.352 47.5558 157.595 47.5648C158.526 47.5252 160.987 47.5651 162.539 47.9732C164.528 48.4431 168.03 50.0864 169.898 51.2929C171.442 52.2479 173.519 54.0322 174.355 54.7843C175.782 56.2025 177.041 57.8368 178.163 59.4689C179.553 61.5156 180.854 63.9438 181.738 66.7756C182.443 68.8112 182.816 72.8382 182.824 75.6832C182.895 76.3955 183.876 76.6029 184.295 76.0626C184.518 75.82 184.441 75.5179 184.419 75.1893C184.399 74.7239 184.379 74.2586 184.359 73.7933C184.249 72.1503 184.166 70.5624 183.864 68.9436C183.213 65.1856 181.52 61.6569 179.357 58.4214Z" fill="#1F1F21"/>
<path d="M146.408 155.432C143.719 159.3 141.165 163.307 139.317 167.654C137.409 172.3 136.833 177.461 137.216 182.5C137.73 187.952 139.615 193.152 141.529 198.271C143.733 203.997 146.049 209.669 148.831 215.185C151.374 220.341 153.835 225.469 156.322 230.652C156.93 231.92 157.539 233.188 158.119 234.538C158.41 235.144 158.701 235.751 158.91 236.329C159.096 236.715 159.585 236.887 159.998 236.757C160.384 236.571 160.582 236.137 160.426 235.669C159.396 233.382 158.337 231.177 157.253 228.916C155.242 224.726 153.312 220.564 151.191 216.427C147.983 210.165 145.189 203.637 142.697 197.032C139.761 189.216 137.659 182.152 139.133 173.915C140.014 168.54 142.828 163.662 146.024 158.873C146.5 158.169 147.006 157.384 147.482 156.681C147.65 156.464 147.846 156.167 147.769 155.865C147.809 155.099 146.801 154.837 146.408 155.432Z" fill="#1F1F21"/>
<path d="M127.858 244.851C125.367 239.942 122.518 235.136 119.806 230.332C114.756 221.224 110.919 211.533 106.421 202.16C105.866 201.002 105.31 199.844 104.754 198.686C104.569 198.3 104.079 198.128 103.667 198.258C102.811 198.737 103.292 199.456 103.665 200.091C104.141 201.084 104.644 202.131 105.12 203.124C108.375 209.905 111.298 216.846 114.553 223.628C116.8 228.451 119.516 232.981 122.068 237.591C125.102 242.782 127.695 248.186 130.288 253.589C131.269 255.492 132.222 257.477 133.424 259.275C133.988 259.886 135.067 259.165 134.696 258.393C132.085 254.083 130.11 249.401 127.858 244.851Z" fill="#1F1F21"/>
<path d="M175.685 18.124C174.507 18.2144 173.272 18.4679 172.119 18.7501C164.15 20.946 157.137 24.9901 152.024 31.5815C149.539 34.7416 147.296 38.1245 145.569 41.7346C144.865 42.9541 146.658 43.7217 147.035 42.3875C148.647 39.1038 152.24 33.4451 155.745 29.8638C158.361 27.1162 162.622 24.1216 166.587 22.4899C169.121 21.4095 171.433 20.5717 173.656 20.1153C174.26 19.961 174.836 19.8883 175.466 19.7891C175.795 19.767 176.26 19.7472 176.457 19.4495C176.849 18.8541 176.371 17.9984 175.685 18.124Z" fill="#1F1F21"/>
<path d="M137.688 112.948C134.402 111.472 131.853 110.118 129.063 108.404C128.278 107.899 127.495 107.257 127.226 106.979C126.931 106.646 126.662 106.368 126.422 106.009C126.236 105.623 126.236 105.623 126.212 105.431C126.188 105.239 126.219 105.021 126.084 104.882C125.659 104.136 124.503 104.555 124.626 105.378C125.017 108.311 128.871 110.124 131.229 111.503C132.612 112.264 133.968 112.97 135.379 113.649C136.248 114.046 137.115 114.58 138.07 114.732C138.617 114.741 139.009 114.146 138.826 113.623C138.533 113.153 138.041 113.118 137.688 112.948Z" fill="#1F1F21"/>
<path d="M133.3 260.285C132.786 259.921 132.096 260.321 131.576 260.367C130.698 260.517 129.738 260.638 128.861 260.788C125.021 261.409 120.941 261.672 117.66 261.618C114.46 261.594 111.235 261.377 108.018 260.751C99.5625 259.246 93.6854 255.622 87.0279 249.524C82.0639 245.258 77.5433 240.644 73.9755 234.623C72.4033 232.054 70.6723 229.154 69.164 226.011C67.0252 221.271 65.1621 216.4 63.3805 211.556C62.1259 207.953 60.8471 204.157 60.0226 201.026C59.7139 199.817 59.4604 198.582 59.2333 197.402C59.0768 196.934 59.1672 196.416 58.735 196.081C58.1947 195.662 57.339 196.14 57.4647 196.826C58.7983 203.987 61.259 210.811 63.885 217.555C65.014 220.473 66.1429 223.391 67.4372 226.229C68.7845 229.178 70.3809 231.939 72.0325 234.674C73.3644 236.884 74.725 239.012 76.306 241.035C78.3436 243.584 80.6304 245.946 83.001 248.2C90.7082 255.355 96.7549 260.322 107.418 262.328C110.717 262.983 114.104 263.257 117.441 263.283C121.406 263.348 125.323 263.028 129.189 262.462C130.396 262.29 131.602 262.118 132.782 261.891C133.607 261.631 133.867 260.76 133.3 260.285Z" fill="#1F1F21"/>
<path d="M105.718 115.737C104.836 116.161 103.928 116.529 103.021 116.76C98.7889 117.977 94.312 117.413 90.4903 115.244C86.6685 113.076 83.8812 109.53 82.6642 105.297C81.4472 101.065 82.0121 96.5884 84.1803 92.7666C86.3485 88.9449 89.8949 86.1576 94.1272 84.9405C98.3594 83.7235 102.836 84.2885 106.658 86.4566C110.48 88.6248 113.267 92.1713 114.484 96.4035C115.701 100.636 115.136 105.113 112.968 108.934C111.278 111.916 108.751 114.282 105.718 115.737ZM92.7794 88.7756C87.0452 91.5274 83.902 98.1235 85.6591 104.471C86.6425 107.933 88.8939 110.787 91.9835 112.56C95.1282 114.307 98.7318 114.749 102.139 113.792C105.602 112.809 108.456 110.557 110.229 107.468C111.976 104.323 112.417 100.719 111.46 97.3119C110.477 93.8494 108.226 90.9954 105.136 89.2221C101.991 87.4752 98.3878 87.0338 94.9804 87.9907C94.1842 88.1692 93.441 88.4581 92.7794 88.7756Z" fill="#1F1F21"/>
<path d="M104.713 113.642C103.997 113.985 103.198 114.301 102.402 114.479C94.8727 116.6 87.0396 112.151 84.9451 104.677C83.9375 101.023 84.4098 97.201 86.214 93.8931C88.0734 90.5587 91.0928 88.2279 94.7471 87.2203C102.276 85.0994 110.11 89.5482 112.204 97.0224C114.065 103.727 110.778 110.731 104.713 113.642ZM93.7302 90.8966C91.6901 91.8756 89.9963 93.4347 88.9243 95.4415C87.4597 98.0437 87.111 100.992 87.94 103.851C89.5958 109.704 95.722 113.14 101.602 111.54C107.455 109.884 110.891 103.758 109.291 97.8779C107.635 92.0247 101.509 88.5882 95.6291 90.1888C94.9145 90.3961 94.3367 90.6055 93.7302 90.8966Z" fill="#00DBB1"/>
<path d="M103.415 110.941C102.808 111.232 102.23 111.442 101.571 111.622C98.7126 112.451 95.6824 112.074 93.0802 110.61C90.478 109.145 88.5749 106.734 87.8011 103.85C86.9721 100.991 87.3494 97.9612 88.814 95.359C90.2786 92.7568 92.6892 90.8537 95.5739 90.0799C101.564 88.4263 107.717 91.9179 109.399 97.8263C110.228 100.684 109.85 103.715 108.386 106.317C107.204 108.377 105.455 109.962 103.415 110.941ZM94.998 93.5445C93.5093 94.2589 92.2875 95.388 91.4427 96.8787C90.3729 98.7488 90.1456 100.961 90.6858 103.076C91.281 105.164 92.6483 106.882 94.5183 107.952C96.3884 109.022 98.6004 109.249 100.715 108.709C105.029 107.521 107.537 102.993 106.349 98.6795C105.16 94.3657 100.633 91.8578 96.3191 93.0462C95.9067 93.1763 95.4391 93.3328 94.998 93.5445Z" fill="#D358D6"/>
<path d="M102.2 108.403C101.759 108.615 101.292 108.772 100.824 108.928C96.4001 110.169 91.7646 107.578 90.4969 103.099C89.8751 100.955 90.1311 98.6613 91.2296 96.7097C92.328 94.758 94.1012 93.3644 96.2449 92.7426C98.3886 92.1209 100.682 92.3769 102.634 93.4753C104.586 94.5737 105.979 96.347 106.601 98.4906C107.739 102.557 105.784 106.684 102.2 108.403ZM96.2998 96.108C95.3073 96.5843 94.5023 97.3098 94.0215 98.2868C93.3179 99.5063 93.1854 100.927 93.5735 102.3C94.376 105.104 97.2759 106.764 100.079 105.962C101.453 105.574 102.589 104.69 103.292 103.47C103.996 102.251 104.128 100.83 103.74 99.4564C103.352 98.0824 102.468 96.9466 101.249 96.243C100.029 95.5393 98.6089 95.4069 97.2349 95.7949C96.8512 95.8434 96.5755 95.9757 96.2998 96.108Z" fill="#4224A3"/>
<path d="M162.019 90.0088C161.192 90.4057 160.283 90.7739 159.322 91.0319C155.09 92.2489 150.613 91.684 146.791 89.5158C142.969 87.3476 140.182 83.8011 138.965 79.5689C137.748 75.3367 138.313 70.8599 140.481 67.0381C142.649 63.2164 146.196 60.4291 150.428 59.212C159.221 56.756 168.329 61.882 170.758 70.6199C172.928 78.5329 169.077 86.6219 162.019 90.0088ZM149.051 63.1287C146.57 64.3194 144.57 66.2291 143.218 68.6416C141.471 71.7864 141.03 75.3899 141.986 78.7973C142.943 82.2047 145.221 85.1137 148.311 86.8871C151.455 88.634 155.059 89.0754 158.466 88.1185C165.583 86.1277 169.752 78.7003 167.761 71.5834C165.77 64.4665 158.343 60.2977 151.226 62.2886C150.511 62.4959 149.768 62.7847 149.051 63.1287Z" fill="#1F1F21"/>
<path d="M161.011 87.9133C160.294 88.2573 159.496 88.5726 158.645 88.7776C154.99 89.7852 151.169 89.313 147.861 87.5087C144.526 85.6493 142.195 82.63 141.188 78.9756C139.067 71.4463 143.516 63.6131 150.99 61.5186C158.519 59.3976 166.352 63.8465 168.447 71.3207C169.454 74.9751 168.982 78.797 167.178 82.1049C165.769 84.6806 163.603 86.6697 161.011 87.9133ZM150.055 65.2236C145.313 67.4991 142.708 72.955 144.209 78.2039C145.038 81.0622 146.86 83.4441 149.435 84.8536C152.038 86.3181 154.986 86.6668 157.845 85.8378C160.703 85.0088 163.085 83.1874 164.494 80.6116C165.959 78.0094 166.307 75.0608 165.478 72.2026C163.823 66.3494 157.696 62.9129 151.817 64.5136C151.239 64.723 150.661 64.9325 150.055 65.2236Z" fill="#00DBB1"/>
<path d="M159.744 85.2668C159.138 85.5578 158.56 85.7673 157.901 85.9481C151.911 87.6017 145.758 84.11 144.076 78.2017C142.422 72.2118 145.914 66.0591 151.822 64.3769C154.68 63.5479 157.71 63.9252 160.313 65.3898C162.915 66.8544 164.818 69.265 165.592 72.1497C166.421 75.0079 166.043 78.0381 164.579 80.6403C163.478 82.7287 161.784 84.2878 159.744 85.2668ZM151.328 67.8701C147.854 69.5371 145.957 73.5 147.015 77.4014C148.204 81.7152 152.731 84.2231 157.045 83.0347C159.134 82.4395 160.852 81.0723 161.921 79.2022C162.991 77.3321 163.219 75.1201 162.678 73.0051C162.083 70.9166 160.716 69.1985 158.846 68.1288C156.976 67.059 154.764 66.8317 152.649 67.3718C152.236 67.5019 151.769 67.6584 151.328 67.8701Z" fill="#D358D6"/>
<path d="M158.527 82.7314C158.086 82.9431 157.619 83.0997 157.151 83.2562C155.007 83.878 152.714 83.622 150.762 82.5235C148.811 81.4251 147.417 79.6519 146.795 77.5082C145.554 73.0841 148.146 68.4486 152.625 67.1809C157.049 65.9396 161.684 68.5313 162.952 73.0105C163.574 75.1542 163.318 77.4478 162.219 79.3994C161.322 80.7799 160.071 81.9906 158.527 82.7314ZM152.545 70.4073C150.285 71.4922 149.038 74.1253 149.737 76.5711C150.125 77.9451 151.009 79.081 152.229 79.7846C153.449 80.4882 154.869 80.6206 156.243 80.2326C157.617 79.8445 158.753 78.9603 159.456 77.7408C160.16 76.5213 160.292 75.101 159.904 73.727C159.102 70.9239 156.202 69.263 153.399 70.0656C153.123 70.1979 152.821 70.275 152.545 70.4073Z" fill="#4224A3"/>
<path d="M86.4967 132.789L77.1108 137.402L78.0821 139.378L87.4679 134.765L86.4967 132.789Z" fill="#A690F0"/>
</svg>
