<svg xmlns="http://www.w3.org/2000/svg" width="141" height="30" viewBox="0 0 141 30" fill="none">
  <path d="M37.5423 8.14258H33.772V21.0852H48.7712V19.1993H37.5423V8.14258Z" fill="#232859"/>
  <path d="M66.5993 10.0284C66.2566 9.60034 65.7416 9.17067 65.143 8.91483C64.5428 8.65735 63.9426 8.39988 63.2571 8.3146L62.3994 8.22932L61.5416 8.14404H57.8566C57.3417 8.14404 56.8284 8.14404 56.3134 8.22932C56.1412 8.22932 55.8854 8.22932 55.7132 8.3146C55.541 8.39988 55.2852 8.39988 55.0277 8.57208C54.3422 8.82955 53.7419 9.17231 53.3139 9.51506C53.0564 9.77253 52.7137 10.2006 52.4562 10.7155L52.284 11.3157L52.1987 11.8307V21.0883H55.9707V15.5174H63.4276V21.0883H67.1996V11.4879C67.1996 11.3157 67.1996 11.1452 67.1143 10.8877C67.029 10.545 66.8568 10.2875 66.5993 10.03V10.0284ZM63.4276 13.7134H55.8854V11.9127L55.9707 11.6552C55.9707 11.3977 56.0559 11.2272 56.1429 11.055C56.2281 10.8828 56.3151 10.7122 56.4003 10.627L56.7431 10.3695C57.0006 10.1973 57.3433 10.112 57.8566 10.112H61.5416L61.9697 10.1973C62.1419 10.1973 62.3977 10.2826 62.5699 10.4548C62.7421 10.54 62.9127 10.7122 63.1701 11.055C63.2554 11.3125 63.3423 11.5699 63.4276 11.998V13.7117V13.7134Z" fill="#232859"/>
  <path d="M84.7701 10.0284C84.4274 9.60034 83.9124 9.17067 83.3122 8.91483C82.712 8.65735 82.1117 8.39988 81.4262 8.3146L80.5685 8.22932L79.883 8.14404H70.4548V21.0867H79.7977C80.9113 21.0867 81.769 21.0014 82.5398 20.7439C83.14 20.4865 83.7402 20.1437 84.2536 19.801C84.4258 19.6288 84.6816 19.3729 84.7685 19.2007C84.9407 19.0285 85.026 18.7727 85.1113 18.6005L85.2835 18.0003L85.3687 17.4853V11.4847C85.3687 11.3125 85.3687 11.1419 85.2835 10.8844C85.1982 10.5417 85.026 10.2842 84.7685 10.0267L84.7701 10.0284ZM81.7706 17.4853L81.6854 17.7428L81.6001 18.0856C81.5148 18.1708 81.5148 18.343 81.4279 18.4283C81.3426 18.6005 81.1704 18.8563 80.9129 19.0285C80.8277 19.1138 80.6555 19.2007 80.4849 19.286C80.3127 19.3713 80.0569 19.3713 79.8847 19.3713H74.2284V10.0284H79.8847L80.3127 10.1136C80.4849 10.1136 80.7407 10.1989 80.9129 10.3711C81.0851 10.4564 81.2557 10.6286 81.5132 10.9714C81.5984 11.2288 81.6854 11.4863 81.7706 11.9143V17.4853Z" fill="#232859"/>
  <path d="M103.198 10.0284C102.856 9.60034 102.341 9.17067 101.742 8.91483C101.142 8.65735 100.542 8.39988 99.8562 8.3146L98.9985 8.22932L98.2277 8.14404H88.8848V21.0867H98.2277C99.3412 21.0867 100.199 21.0014 100.97 20.7439C101.57 20.4865 102.17 20.1437 102.683 19.801C102.856 19.6288 103.112 19.3729 103.198 19.2007C103.371 19.0285 103.456 18.7727 103.541 18.6005L103.713 18.0003L103.799 17.4853V11.4847C103.799 11.3125 103.799 11.1419 103.713 10.8844C103.628 10.5417 103.456 10.2842 103.198 10.0267V10.0284ZM100.027 17.7428L99.9415 18.0856C99.8562 18.1708 99.8562 18.343 99.7693 18.4283C99.684 18.6005 99.5118 18.8563 99.2543 19.0285C99.169 19.1138 98.9968 19.2007 98.8263 19.286C98.6541 19.3713 98.3982 19.3713 98.226 19.3713H92.5698V10.0284H98.226L98.6541 10.1136C98.8263 10.1136 99.0821 10.1989 99.2543 10.3711C99.4265 10.4564 99.5971 10.6286 99.8545 10.9714C99.9398 11.2288 100.027 11.4863 100.112 11.9143V17.4853L100.027 17.7428Z" fill="#232859"/>
  <path d="M111.771 19.0269L111.171 18.4267L110.998 17.7412V15.5978H116.655V13.7118H110.998V11.9111C110.998 11.5683 111.084 11.2256 111.171 10.9681L111.513 10.5401L111.856 10.2826C112.028 10.1973 112.199 10.1104 112.456 10.1104L112.884 10.0251H122.227V8.13916H112.884C112.369 8.13916 111.771 8.22444 111.171 8.31136C110.913 8.31136 110.742 8.39664 110.656 8.39664C110.483 8.48191 110.313 8.48191 110.228 8.56883L109.285 8.91159C108.684 9.16906 108.171 9.59709 107.741 10.112C107.569 10.3695 107.399 10.627 107.313 10.9698C107.228 11.3125 107.141 11.57 107.141 11.9127V17.4837L107.226 18.1692C107.226 18.3414 107.312 18.512 107.399 18.5973L107.484 18.8547L107.912 19.455L108.34 19.883C108.683 20.2258 109.283 20.4832 110.054 20.826C110.824 21.0835 111.767 21.1687 112.883 21.1687H122.226V19.2828H112.883C112.455 19.2828 112.112 19.1975 111.769 19.0253L111.771 19.0269Z" fill="#232859"/>
  <path d="M140.055 13.5428C140.398 13.1148 140.57 12.5146 140.57 11.8291V11.401C140.57 11.2288 140.57 11.0583 140.485 10.8008C140.4 10.458 140.227 10.2006 139.97 9.94309C139.627 9.51506 139.112 9.08539 138.514 8.82955C137.915 8.57372 137.313 8.3146 136.628 8.22932L135.77 8.14404H131.227C130.712 8.14404 130.114 8.22932 129.514 8.31624C129.256 8.31624 129.086 8.40152 128.999 8.40152C128.826 8.4868 128.656 8.4868 128.571 8.57372L127.628 8.91647C127.027 9.17395 126.514 9.60198 126.084 10.1169C125.912 10.3744 125.742 10.6319 125.656 10.9746C125.571 11.3174 125.484 11.5749 125.484 11.9176V21.1753H129.256V15.6043H134.912L135.34 15.6896C135.513 15.6896 135.768 15.7748 135.941 15.947C136.198 16.0323 136.369 16.2898 136.541 16.5473C136.626 16.8047 136.713 17.0622 136.798 17.4902V21.1753H140.57V17.4902C140.57 17.1475 140.57 16.8047 140.485 16.6325C140.485 16.4603 140.4 16.2898 140.313 16.1176C140.227 15.9454 140.141 15.8601 140.055 15.7748C139.97 15.6026 139.798 15.3468 139.54 15.1746C139.368 15.0024 139.112 14.8318 138.77 14.6596C139.198 14.4022 139.627 14.0594 140.055 13.5461V13.5428ZM136.626 12.8573C136.454 13.0295 136.283 13.2001 136.026 13.3723C135.768 13.4576 135.598 13.5445 135.34 13.6297L134.912 13.715H129.256V11.9143H129.341C129.341 11.5716 129.427 11.2288 129.514 10.9714L129.856 10.5433L130.199 10.2858C130.371 10.2006 130.542 10.1136 130.799 10.1136L131.227 10.0284H134.912L135.34 10.1136C135.513 10.1136 135.768 10.1989 135.941 10.3711C136.113 10.4564 136.283 10.6286 136.541 10.9714C136.626 11.2288 136.713 11.4863 136.798 11.9143C136.798 12.2571 136.713 12.5998 136.626 12.8573Z" fill="#232859"/>
  <path d="M13.1149 0L0 7.45695V22.4561L4.37216 24.9423V19.9716L4.4148 19.947L13.1575 24.9177L13.1149 24.9423V30L26.315 22.4578V7.41923L13.1149 0.0016397V0ZM21.9428 14.9139L21.3426 14.5711L13.1149 9.89395V4.97075L13.1575 4.94615L21.9428 9.94151V14.9123V14.9139ZM8.74269 12.5146L11.4978 14.0021L17.4854 17.5329V22.4086L8.74269 17.4378V12.5146Z" fill="#232859"/>
</svg>