<svg width="35" height="40" viewBox="0 0 35 40" fill="none" xmlns="http://www.w3.org/2000/svg">
<path fill-rule="evenodd" clip-rule="evenodd" d="M1.56518 30.8963L5.83762 33.3402L5.83126 26.6803L11.653 23.3378V16.6717L17.4715 20.0016V0L8.34446 5.21561L1.56518 9.10051V9.10367L0 9.99921V29.9976L1.56518 30.8963ZM17.4779 0.00630705V6.66614L23.2964 3.33622L17.4779 0.00630705ZM29.1245 20.0079L23.2996 23.3378V30.0134L17.4747 33.3433V40L34.1636 30.4486L34.943 30.0008V10.0024L34.1636 10.4501V10.4533L34.1604 10.4501L29.1245 13.3323V20.0079Z" fill="white"/>
<path fill-rule="evenodd" clip-rule="evenodd" d="M29.1751 19.9366L23.3502 23.2665L11.7036 16.6004L17.5253 13.2705L28.3957 19.492L29.1751 19.9366ZM35 9.93424L29.1751 13.2642L17.5285 6.59802L23.347 3.26494L35 9.93424ZM5.88188 26.6091L11.7036 23.2791L23.3502 29.9453L17.5253 33.2752L5.88188 26.6091Z" fill="white"/>
</svg>
