<svg xmlns="http://www.w3.org/2000/svg" width="225" height="48" viewBox="0 0 225 48" fill="none">
  <path d="M60.0676 13.0283H54.0352V33.7366H78.0338V30.719H60.0676V13.0283Z" fill="#252525"/>
  <path d="M106.559 16.0456C106.011 15.3607 105.187 14.6732 104.229 14.2639C103.269 13.8519 102.308 13.44 101.211 13.3035L99.8391 13.1671L98.4667 13.0306H92.5707C91.7468 13.0306 90.9255 13.0306 90.1016 13.1671C89.826 13.1671 89.4167 13.1671 89.1412 13.3035C88.8657 13.44 88.4563 13.44 88.0444 13.7155C86.9476 14.1275 85.9872 14.6759 85.3024 15.2243C84.8904 15.6362 84.342 16.3211 83.93 17.145L83.6545 18.1054L83.5181 18.9293V33.7415H89.5532V24.8279H101.484V33.7415H107.519V18.3809C107.519 18.1054 107.519 17.8325 107.383 17.4205C107.246 16.8721 106.971 16.4601 106.559 16.0482V16.0456ZM101.484 21.9416H89.4167V19.0605L89.5532 18.6485C89.5532 18.2366 89.6896 17.9637 89.8287 17.6882C89.9651 17.4126 90.1042 17.1398 90.2406 17.0033L90.789 16.5913C91.201 16.3158 91.7494 16.1794 92.5707 16.1794H98.4667L99.1516 16.3158C99.4271 16.3158 99.8364 16.4523 100.112 16.7278C100.387 16.8642 100.66 17.1398 101.072 17.6882C101.209 18.1001 101.348 18.5121 101.484 19.1969V21.939V21.9416Z" fill="#252525"/>
  <path d="M135.632 16.0456C135.084 15.3607 134.26 14.6732 133.299 14.2639C132.339 13.8519 131.379 13.44 130.282 13.3035L128.909 13.1671L127.813 13.0306H112.728V33.7389H127.676C129.458 33.7389 130.83 33.6024 132.063 33.1905C133.024 32.7785 133.984 32.2301 134.805 31.6817C135.081 31.4062 135.49 30.9969 135.629 30.7213C135.905 30.4458 136.041 30.0365 136.178 29.761L136.453 28.8006L136.59 27.9767V18.3756C136.59 18.1001 136.59 17.8272 136.453 17.4153C136.317 16.8669 136.041 16.4549 135.629 16.0429L135.632 16.0456ZM130.833 27.9767L130.696 28.3886L130.56 28.9371C130.423 29.0735 130.423 29.349 130.284 29.4855C130.148 29.761 129.872 30.1703 129.46 30.4458C129.324 30.5823 129.049 30.7213 128.776 30.8578C128.5 30.9942 128.091 30.9942 127.815 30.9942H118.765V16.0456H127.815L128.5 16.182C128.776 16.182 129.185 16.3185 129.46 16.594C129.736 16.7304 130.009 17.0059 130.421 17.5543C130.557 17.9663 130.696 18.3783 130.833 19.0631V27.9767Z" fill="#252525"/>
  <path d="M165.118 16.0456C164.569 15.3607 163.745 14.6732 162.788 14.2639C161.827 13.8519 160.867 13.44 159.77 13.3035L158.398 13.1671L157.164 13.0306H142.216V33.7389H157.164C158.946 33.7389 160.318 33.6024 161.552 33.1905C162.512 32.7785 163.472 32.2301 164.294 31.6817C164.569 31.4062 164.979 30.9969 165.118 30.7213C165.393 30.4458 165.53 30.0365 165.666 29.761L165.942 28.8006L166.078 27.9767V18.3756C166.078 18.1001 166.078 17.8272 165.942 17.4153C165.805 16.8669 165.53 16.4549 165.118 16.0429V16.0456ZM160.043 28.3886L159.907 28.9371C159.77 29.0735 159.77 29.349 159.631 29.4855C159.495 29.761 159.219 30.1703 158.807 30.4458C158.671 30.5823 158.395 30.7213 158.122 30.8578C157.847 30.9942 157.437 30.9942 157.162 30.9942H148.112V16.0456H157.162L157.847 16.182C158.122 16.182 158.532 16.3185 158.807 16.594C159.083 16.7304 159.355 17.0059 159.767 17.5543C159.904 17.9663 160.043 18.3783 160.179 19.0631V27.9767L160.043 28.3886Z" fill="#252525"/>
  <path d="M178.833 30.4433L177.872 29.4829L177.597 28.3861V24.9566H186.647V21.939H177.597V19.0579C177.597 18.5095 177.733 17.9611 177.872 17.5491L178.421 16.8643L178.969 16.4523C179.245 16.3159 179.518 16.1768 179.93 16.1768L180.614 16.0404H195.563V13.0228H180.614C179.79 13.0228 178.833 13.1593 177.872 13.2983C177.46 13.2983 177.187 13.4348 177.048 13.4348C176.773 13.5712 176.5 13.5712 176.364 13.7103L174.855 14.2587C173.894 14.6707 173.073 15.3555 172.386 16.1794C172.11 16.5914 171.837 17.0034 171.701 17.5518C171.564 18.1002 171.425 18.5121 171.425 19.0605V27.9741L171.562 29.0709C171.562 29.3464 171.698 29.6193 171.837 29.7558L171.974 30.1677L172.659 31.1281L173.343 31.813C173.892 32.3614 174.852 32.7733 176.085 33.3217C177.319 33.7337 178.827 33.8701 180.612 33.8701H195.56V30.8526H180.612C179.927 30.8526 179.378 30.7162 178.83 30.4406L178.833 30.4433Z" fill="#252525"/>
  <path d="M224.088 21.6687C224.637 20.9838 224.912 20.0235 224.912 18.9267V18.2418C224.912 17.9663 224.912 17.6934 224.776 17.2814C224.639 16.733 224.364 16.3211 223.952 15.9091C223.403 15.2243 222.579 14.5368 221.622 14.1275C220.664 13.7181 219.701 13.3035 218.604 13.1671L217.232 13.0306H209.964C209.14 13.0306 208.182 13.1671 207.221 13.3062C206.81 13.3062 206.537 13.4426 206.398 13.4426C206.122 13.579 205.849 13.579 205.713 13.7181L204.204 14.2665C203.244 14.6785 202.422 15.3633 201.735 16.1873C201.459 16.5992 201.186 17.0112 201.05 17.5596C200.913 18.108 200.774 18.52 200.774 19.0684V33.8806H206.81V24.967H215.86L216.544 25.1035C216.82 25.1035 217.229 25.2399 217.505 25.5154C217.917 25.6519 218.19 26.0638 218.465 26.4758C218.602 26.8877 218.741 27.2997 218.877 27.9846V33.8806H224.912V27.9846C224.912 27.4362 224.912 26.8877 224.776 26.6122C224.776 26.3367 224.639 26.0638 224.5 25.7883C224.364 25.5128 224.225 25.3763 224.088 25.2399C223.952 24.9644 223.676 24.555 223.264 24.2795C222.989 24.004 222.579 23.7311 222.031 23.4556C222.716 23.0436 223.403 22.4952 224.088 21.6739V21.6687ZM218.602 20.5719C218.326 20.8474 218.053 21.1203 217.641 21.3958C217.229 21.5323 216.956 21.6713 216.544 21.8078L215.86 21.9442H206.81V19.0631H206.946C206.946 18.5147 207.082 17.9663 207.221 17.5543L207.77 16.8695L208.318 16.4575C208.594 16.3211 208.867 16.182 209.279 16.182L209.964 16.0456H215.86L216.544 16.182C216.82 16.182 217.229 16.3185 217.505 16.594C217.78 16.7304 218.053 17.0059 218.465 17.5543C218.602 17.9663 218.741 18.3783 218.877 19.0631C218.877 19.6115 218.741 20.1599 218.602 20.5719Z" fill="#252525"/>
  <path d="M20.9837 0L0 11.9311V35.9298L6.99546 39.9077V31.9545L7.06368 31.9152L21.052 39.8684L20.9837 39.9077V48L42.1039 35.9324V11.8708L20.9837 0.00262351V0ZM35.1085 23.8622L34.1481 23.3138L20.9837 15.8303V7.95321L21.052 7.91385L35.1085 15.9064V23.8596V23.8622ZM13.9883 20.0234L18.3965 22.4033L27.9766 28.0527V35.8537L13.9883 27.9005V20.0234Z" fill="#252525"/>
</svg>