<svg width="40" height="40" viewBox="0 0 40 40" fill="none" xmlns="http://www.w3.org/2000/svg">
<path fill-rule="evenodd" clip-rule="evenodd" d="M7.61627 28.5406L10.9366 30.4956L10.9316 25.1678L15.4559 22.4937V17.1608L19.9778 19.8247V3.82349L12.8847 7.99597L7.61627 11.1039V11.1064L6.3999 11.8229V27.8216L7.61627 28.5406ZM19.9827 3.82853V9.1564L24.5046 6.49247L19.9827 3.82853ZM29.0338 19.8298L24.507 22.4937V27.8342L19.9802 30.4981V35.8235L32.9499 28.1823L33.5556 27.8241V11.8254L32.9499 12.1836V12.1861L32.9475 12.1836L29.0338 14.4893V19.8298Z" fill="#232859"/>
<path fill-rule="evenodd" clip-rule="evenodd" d="M29.0731 19.7728L24.5464 22.4367L15.4953 17.1038L20.0196 14.4399L28.4674 19.4171L29.0731 19.7728ZM33.5999 11.7709L29.0731 14.4348L20.0221 9.1019L24.5439 6.43544L33.5999 11.7709ZM10.971 25.1107L15.4953 22.4468L24.5464 27.7797L20.0196 30.4436L10.971 25.1107Z" fill="#232859"/>
</svg>
