<svg width="33" height="32" viewBox="0 0 33 32" fill="none" xmlns="http://www.w3.org/2000/svg">
<circle cx="16.2002" cy="16" r="16" fill="#252525"/>
<path d="M17.0139 15.9999C17.0139 18.76 14.7915 20.9977 12.0501 20.9977C9.30859 20.9977 7.08643 18.7607 7.08643 15.9999C7.08643 13.239 9.30876 11.0022 12.0501 11.0022C14.7914 11.0022 17.0139 13.2397 17.0139 15.9999ZM22.4592 15.9999C22.4592 18.5982 21.348 20.7044 19.9773 20.7044C18.6067 20.7044 17.4954 18.5976 17.4954 15.9999C17.4954 13.4022 18.6067 11.2953 19.9773 11.2953C21.348 11.2953 22.4592 13.4022 22.4592 15.9999ZM24.6864 15.9999C24.6864 18.3279 24.2956 20.215 23.8135 20.215C23.3315 20.215 22.9406 18.3272 22.9406 15.9999C22.9406 13.6725 23.3315 11.7848 23.8137 11.7848C24.2959 11.7848 24.6864 13.672 24.6864 15.9999Z" fill="white"/>
</svg>
