<svg width="24" height="24" viewBox="0 0 24 24" fill="none" xmlns="http://www.w3.org/2000/svg">
<path d="M22.5888 0H2.21846C1.8808 0 1.55697 0.136282 1.31821 0.378867C1.07945 0.621451 0.945313 0.950466 0.945312 1.29353V21.99C0.945313 22.3331 1.07945 22.6621 1.31821 22.9047C1.55697 23.1473 1.8808 23.2836 2.21846 23.2836H22.5888C22.9265 23.2836 23.2503 23.1473 23.4891 22.9047C23.7278 22.6621 23.862 22.3331 23.862 21.99V1.29353C23.862 0.950466 23.7278 0.621451 23.4891 0.378867C23.2503 0.136282 22.9265 0 22.5888 0ZM19.984 5.51691L18.7541 6.71343C18.7022 6.75369 18.6621 6.80767 18.6383 6.8695C18.6145 6.93132 18.6079 6.9986 18.6192 7.06398V15.8613C18.6079 15.9267 18.6145 15.994 18.6383 16.0558C18.6621 16.1176 18.7022 16.1716 18.7541 16.2118L19.9534 17.4096V17.6735H13.9174V17.4096L15.1613 16.1834C15.2848 16.0592 15.2848 16.0217 15.2848 15.8328V8.72099L11.8269 17.6412H11.3584L7.33397 8.72099V14.6997C7.31808 14.8239 7.32997 14.9502 7.36877 15.0691C7.40756 15.1881 7.47226 15.2966 7.55804 15.3866L9.17622 17.3799V17.6425H4.58779V17.3799L6.20596 15.3866C6.29113 15.2966 6.35438 15.1876 6.39064 15.0683C6.4269 14.949 6.43516 14.8228 6.41476 14.6997V7.78706C6.42428 7.69244 6.41172 7.59687 6.37809 7.50809C6.34447 7.41932 6.29073 7.33985 6.22124 7.27612L4.78258 5.51691V5.25433H9.24624L12.6965 12.9418L15.7291 5.25433H19.9852V5.51691H19.984Z" fill="white"/>
</svg>
