<svg width="40" height="40" viewBox="0 0 40 40" fill="none" xmlns="http://www.w3.org/2000/svg">
<circle opacity="0.4" cx="20" cy="20" r="20" fill="white"/>
<path d="M21.1453 19.9998C21.1453 23.7637 18.1149 26.8151 14.3765 26.8151C10.6381 26.8151 7.60791 23.7646 7.60791 19.9998C7.60791 16.235 10.6384 13.1848 14.3765 13.1848C18.1146 13.1848 21.1453 16.236 21.1453 19.9998ZM28.5708 19.9998C28.5708 23.5431 27.0554 26.4152 25.1864 26.4152C23.3173 26.4152 21.802 23.5421 21.802 19.9998C21.802 16.4575 23.3173 13.5845 25.1864 13.5845C27.0554 13.5845 28.5708 16.4575 28.5708 19.9998ZM31.6079 19.9998C31.6079 23.1744 31.0749 25.7477 30.4176 25.7477C29.7602 25.7477 29.2272 23.1735 29.2272 19.9998C29.2272 16.8262 29.7602 14.252 30.4178 14.252C31.0754 14.252 31.6079 16.8255 31.6079 19.9998Z" fill="#252525"/>
</svg>
