<svg width="84" height="39" viewBox="0 0 84 39" fill="none" xmlns="http://www.w3.org/2000/svg">
<path d="M49.219 8.52654C51.5706 8.52654 53.477 6.6178 53.477 4.26326C53.477 1.90872 51.5706 0 49.219 0C46.8673 0 44.9609 1.90872 44.9609 4.26326C44.9609 6.6178 46.8673 8.52654 49.219 8.52654Z" fill="#120A23" fill-opacity="0.23"/>
<path d="M64.4807 8.52654C66.8323 8.52654 68.7387 6.6178 68.7387 4.26326C68.7387 1.90872 66.8323 0 64.4807 0C62.129 0 60.2227 1.90872 60.2227 4.26326C60.2227 6.6178 62.129 8.52654 64.4807 8.52654Z" fill="#120A23" fill-opacity="0.23"/>
<path d="M79.7424 8.52654C82.094 8.52654 84.0004 6.6178 84.0004 4.26326C84.0004 1.90872 82.094 0 79.7424 0C77.3907 0 75.4844 1.90872 75.4844 4.26326C75.4844 6.6178 77.3907 8.52654 79.7424 8.52654Z" fill="#120A23" fill-opacity="0.23"/>
<path d="M49.219 23.7642C51.5706 23.7642 53.477 21.8555 53.477 19.5009C53.477 17.1464 51.5706 15.2377 49.219 15.2377C46.8673 15.2377 44.9609 17.1464 44.9609 19.5009C44.9609 21.8555 46.8673 23.7642 49.219 23.7642Z" fill="#120A23" fill-opacity="0.23"/>
<path d="M64.4807 23.7642C66.8323 23.7642 68.7387 21.8555 68.7387 19.5009C68.7387 17.1464 66.8323 15.2377 64.4807 15.2377C62.129 15.2377 60.2227 17.1464 60.2227 19.5009C60.2227 21.8555 62.129 23.7642 64.4807 23.7642Z" fill="#120A23" fill-opacity="0.23"/>
<path d="M79.7424 23.7642C82.094 23.7642 84.0004 21.8555 84.0004 19.5009C84.0004 17.1464 82.094 15.2377 79.7424 15.2377C77.3907 15.2377 75.4844 17.1464 75.4844 19.5009C75.4844 21.8555 77.3907 23.7642 79.7424 23.7642Z" fill="#120A23" fill-opacity="0.23"/>
<path d="M49.219 39C51.5706 39 53.477 37.0913 53.477 34.7367C53.477 32.3822 51.5706 30.4734 49.219 30.4734C46.8673 30.4734 44.9609 32.3822 44.9609 34.7367C44.9609 37.0913 46.8673 39 49.219 39Z" fill="#120A23" fill-opacity="0.23"/>
<path d="M64.4807 39C66.8323 39 68.7387 37.0913 68.7387 34.7367C68.7387 32.3822 66.8323 30.4734 64.4807 30.4734C62.129 30.4734 60.2227 32.3822 60.2227 34.7367C60.2227 37.0913 62.129 39 64.4807 39Z" fill="#120A23" fill-opacity="0.23"/>
<path d="M79.7424 39C82.094 39 84.0004 37.0913 84.0004 34.7367C84.0004 32.3822 82.094 30.4734 79.7424 30.4734C77.3907 30.4734 75.4844 32.3822 75.4844 34.7367C75.4844 37.0913 77.3907 39 79.7424 39Z" fill="#120A23" fill-opacity="0.23"/>
<path d="M4.25803 8.52654C6.60967 8.52654 8.51605 6.6178 8.51605 4.26326C8.51605 1.90872 6.60967 0 4.25803 0C1.90639 0 0 1.90872 0 4.26326C0 6.6178 1.90639 8.52654 4.25803 8.52654Z" fill="#120A23" fill-opacity="0.23"/>
<path d="M19.5198 8.52654C21.8714 8.52654 23.7778 6.6178 23.7778 4.26326C23.7778 1.90872 21.8714 0 19.5198 0C17.1681 0 15.2617 1.90872 15.2617 4.26326C15.2617 6.6178 17.1681 8.52654 19.5198 8.52654Z" fill="#120A23" fill-opacity="0.23"/>
<path d="M34.7815 8.52654C37.1331 8.52654 39.0395 6.6178 39.0395 4.26326C39.0395 1.90872 37.1331 0 34.7815 0C32.4298 0 30.5234 1.90872 30.5234 4.26326C30.5234 6.6178 32.4298 8.52654 34.7815 8.52654Z" fill="#120A23" fill-opacity="0.23"/>
<path d="M4.25803 23.7642C6.60967 23.7642 8.51605 21.8555 8.51605 19.5009C8.51605 17.1464 6.60967 15.2377 4.25803 15.2377C1.90639 15.2377 0 17.1464 0 19.5009C0 21.8555 1.90639 23.7642 4.25803 23.7642Z" fill="#120A23" fill-opacity="0.23"/>
<path d="M19.5198 23.7642C21.8714 23.7642 23.7778 21.8555 23.7778 19.5009C23.7778 17.1464 21.8714 15.2377 19.5198 15.2377C17.1681 15.2377 15.2617 17.1464 15.2617 19.5009C15.2617 21.8555 17.1681 23.7642 19.5198 23.7642Z" fill="#120A23" fill-opacity="0.23"/>
<path d="M34.7815 23.7642C37.1331 23.7642 39.0395 21.8555 39.0395 19.5009C39.0395 17.1464 37.1331 15.2377 34.7815 15.2377C32.4298 15.2377 30.5234 17.1464 30.5234 19.5009C30.5234 21.8555 32.4298 23.7642 34.7815 23.7642Z" fill="#120A23" fill-opacity="0.23"/>
<path d="M4.25803 39C6.60967 39 8.51605 37.0913 8.51605 34.7367C8.51605 32.3822 6.60967 30.4734 4.25803 30.4734C1.90639 30.4734 0 32.3822 0 34.7367C0 37.0913 1.90639 39 4.25803 39Z" fill="#120A23" fill-opacity="0.23"/>
<path d="M19.5198 39C21.8714 39 23.7778 37.0913 23.7778 34.7367C23.7778 32.3822 21.8714 30.4734 19.5198 30.4734C17.1681 30.4734 15.2617 32.3822 15.2617 34.7367C15.2617 37.0913 17.1681 39 19.5198 39Z" fill="#120A23" fill-opacity="0.23"/>
<path d="M34.7815 39C37.1331 39 39.0395 37.0913 39.0395 34.7367C39.0395 32.3822 37.1331 30.4734 34.7815 30.4734C32.4298 30.4734 30.5234 32.3822 30.5234 34.7367C30.5234 37.0913 32.4298 39 34.7815 39Z" fill="#120A23" fill-opacity="0.23"/>
</svg>
