<svg xmlns="http://www.w3.org/2000/svg" width="48" height="48" viewBox="0 0 48 48" fill="none">
  <g clip-path="url(#clip0_98_2081)">
    <g filter="url(#filter0_f_98_2081)">
      <circle cx="23" cy="30" r="13" fill="#FFD6D6"/>
    </g>
    <path d="M23.7504 1.8846L23.7504 1.8846L6.28425 5.10071L23.7504 1.8846ZM23.7504 1.8846C23.9348 1.85058 24.1233 1.85058 24.3073 1.88459L41.6749 5.1007C42.4019 5.23551 42.9289 5.86925 42.9285 6.60882V27.1918C42.9285 30.4027 41.9162 33.4113 39.9181 36.1353C38.3656 38.2522 36.2187 40.1919 33.5354 41.9005C29.0496 44.757 24.6174 45.9875 24.4328 46.0382C24.1712 46.11 23.8957 46.1108 23.6336 46.0411C23.4478 45.9918 18.99 44.786 14.4774 41.9416L14.4508 41.9839M23.7504 1.8846L14.4508 41.9839M14.4508 41.9839L14.4774 41.9416C11.7781 40.2403 9.61824 38.3015 8.05622 36.1794L8.01595 36.2091L8.05621 36.1794C6.04652 33.4503 5.02852 30.4266 5.02852 27.1922V6.60885C5.02852 5.86885 5.55684 5.23468 6.28425 5.10071L14.4508 41.9839ZM23.8787 42.9124L23.8787 42.9124C23.972 42.9442 24.0731 42.9442 24.1663 42.9124C27.1544 41.8966 29.7493 40.6842 31.9503 39.2743C37.1941 35.9163 39.8623 31.8521 39.8623 27.1922L39.8619 8.25506C39.8619 8.03979 39.709 7.85555 39.4974 7.81646L24.1077 4.96638L24.1077 4.96636C24.0544 4.95659 23.9997 4.9566 23.9462 4.96635L23.946 4.96637L8.46008 7.81819L8.46005 7.8182C8.24864 7.85725 8.09475 8.04136 8.09475 8.2568V27.1926C8.09475 34.0906 13.3728 39.327 23.8787 42.9124Z" fill="#252525" stroke="#252525" stroke-width="0.1"/>
    <path d="M23.9998 17.8703C24.3466 17.8707 24.6912 17.82 25.0226 17.7201M23.9998 17.8703L24 17.6703V17.8703C23.9999 17.8703 23.9999 17.8703 23.9998 17.8703ZM23.9998 17.8703C23.6446 17.8703 23.3012 17.8183 22.9773 17.7202M25.0226 17.7201L23.0587 17.5793L22.9773 17.7202M25.0226 17.7201L30.245 26.7652C29.8552 27.132 29.5532 27.5822 29.3618 28.0823H18.6384C18.4477 27.5818 18.1456 27.1313 17.7551 26.765M25.0226 17.7201L17.7551 26.765M22.9773 17.7202L17.7551 26.765M22.9773 17.7202L17.7551 26.765M25.8822 11.3427C25.3185 10.9881 24.666 10.8 24 10.8C23.334 10.8 22.6815 10.9881 22.1178 11.3427C21.554 11.6972 21.1019 12.2039 20.8135 12.8042C20.525 13.4045 20.412 14.074 20.4875 14.7357C20.5578 15.3518 20.7887 15.9377 21.1561 16.4352L15.7316 25.8307C15.0958 25.7589 14.4516 25.861 13.8679 26.1272C13.2425 26.4126 12.7138 26.8741 12.3466 27.4552C11.9794 28.0364 11.7896 28.712 11.8004 29.3994C11.8113 30.0868 12.0224 30.7561 12.4077 31.3254C12.7931 31.8946 13.3362 32.3392 13.9703 32.6046C14.6045 32.87 15.3023 32.9448 15.9783 32.8197C16.6543 32.6947 17.2791 32.3752 17.7764 31.9005C18.2351 31.4626 18.5668 30.91 18.7381 30.3014H29.2619C29.4332 30.91 29.7649 31.4626 30.2236 31.9005C30.7209 32.3752 31.3457 32.6947 32.0217 32.8197C32.6977 32.9448 33.3955 32.87 34.0297 32.6046C34.6638 32.3392 35.2069 31.8946 35.5923 31.3254C35.9776 30.7561 36.1887 30.0868 36.1996 29.3994C36.2104 28.712 36.0206 28.0364 35.6534 27.4552C35.2862 26.8741 34.7575 26.4125 34.1321 26.1272C33.5484 25.861 32.9042 25.7589 32.2684 25.8307L26.8439 16.4352C27.2113 15.9377 27.4422 15.3518 27.5125 14.7357C27.588 14.074 27.475 13.4045 27.1865 12.8042C26.8981 12.2039 26.446 11.6972 25.8822 11.3427ZM16.1365 28.2947C16.2737 28.401 16.3884 28.5334 16.4742 28.6843C16.646 28.9864 16.6913 29.3442 16.6002 29.6795C16.5092 30.0149 16.2892 30.3007 15.9882 30.4744C15.6873 30.6482 15.3298 30.6958 14.9938 30.607C14.6579 30.5182 14.3707 30.3001 14.1949 30.0003C14.1072 29.8506 14.0499 29.685 14.0264 29.513C14.0028 29.3411 14.0136 29.1662 14.0579 28.9984C14.1023 28.8306 14.1794 28.6732 14.2848 28.5354C14.3902 28.3975 14.5219 28.2819 14.6722 28.1951C14.8225 28.1083 14.9885 28.0521 15.1606 28.0297C15.3327 28.0074 15.5075 28.0193 15.675 28.0647L15.7274 27.8717L15.675 28.0647C15.8425 28.1102 15.9993 28.1884 16.1365 28.2947ZM32.8343 28.0346C33.0063 28.0581 33.1719 28.1154 33.3216 28.2031C33.6214 28.3789 33.8395 28.6661 33.9283 29.0021C34.0172 29.338 33.9695 29.6955 33.7957 29.9964C33.622 30.2974 33.3362 30.5174 33.0009 30.6084C32.6655 30.6995 32.3077 30.6542 32.0056 30.4824C31.8548 30.3967 31.7223 30.2819 31.616 30.1447C31.5097 30.0076 31.4315 29.8507 31.386 29.6832C31.3406 29.5157 31.3287 29.3409 31.3511 29.1688C31.3734 28.9967 31.4296 28.8307 31.5164 28.6804C31.6032 28.5301 31.7188 28.3985 31.8567 28.293C31.9945 28.1876 32.1519 28.1105 32.3197 28.0662C32.4875 28.0218 32.6624 28.0111 32.8343 28.0346ZM23.4964 13.1194C23.6561 13.0532 23.8272 13.0192 24 13.0192C24.349 13.0192 24.6837 13.1578 24.9305 13.4046C25.1773 13.6514 25.316 13.9862 25.316 14.3352C25.316 14.6842 25.1773 15.0189 24.9305 15.2657C24.6837 15.5125 24.349 15.6512 24 15.6512C23.8272 15.6512 23.6561 15.6171 23.4964 15.551C23.3367 15.4849 23.1917 15.3879 23.0695 15.2657C22.9473 15.1435 22.8503 14.9984 22.7842 14.8388C22.7181 14.6791 22.684 14.508 22.684 14.3352C22.684 14.1624 22.7181 13.9912 22.7842 13.8316C22.8503 13.6719 22.9473 13.5268 23.0695 13.4046C23.1917 13.2824 23.3367 13.1855 23.4964 13.1194Z" fill="#252525" stroke="#252525" stroke-width="0.4"/>
  </g>
  <defs>
    <filter id="filter0_f_98_2081" x="2" y="9" width="42" height="42" filterUnits="userSpaceOnUse" color-interpolation-filters="sRGB">
      <feFlood flood-opacity="0" result="BackgroundImageFix"/>
      <feBlend mode="normal" in="SourceGraphic" in2="BackgroundImageFix" result="shape"/>
      <feGaussianBlur stdDeviation="4" result="effect1_foregroundBlur_98_2081"/>
    </filter>
    <clipPath id="clip0_98_2081">
      <rect width="48" height="48" fill="white"/>
    </clipPath>
  </defs>
</svg>  