<svg width="420" height="405" viewBox="0 0 420 405" fill="none" xmlns="http://www.w3.org/2000/svg">
<path d="M206.258 0.911044L207.888 0.420678L208.073 1.03665L208.888 0.791464C209.147 0.713378 209.424 0.713378 209.683 0.791464L210.498 1.0366L210.683 0.420627L212.313 0.910996L212.128 1.52697L213.757 2.01733L213.943 1.40137L215.572 1.89173L215.387 2.5077L217.017 2.99807L217.202 2.3821L218.832 2.87247L218.646 3.48844L220.276 3.97881L220.461 3.36285L222.091 3.85321L221.906 4.46918L223.535 4.95955L223.721 4.34358L225.35 4.83395L225.165 5.44992L226.795 5.94029L226.98 5.32432L228.61 5.81469L228.424 6.43066L230.054 6.92103L230.239 6.30506L231.869 6.79543L231.684 7.4114L233.313 7.90177L233.499 7.2858L235.128 7.77617L234.943 8.39214L236.572 8.88251L236.758 8.26654L238.387 8.75691L238.202 9.37288L239.832 9.86325L240.017 9.24728L241.647 9.73765L241.461 10.3536L243.091 10.844L243.276 10.228L244.906 10.7184L244.721 11.3344L246.35 11.8247L246.536 11.2088L248.165 11.6991L247.98 12.3151L249.61 12.8055L249.795 12.1895L251.425 12.6799L251.239 13.2958L252.869 13.7862L253.054 13.1702L254.684 13.6606L254.499 14.2766L256.128 14.7669L256.314 14.151L257.943 14.6413L257.758 15.2573L259.388 15.7477L259.573 15.1317L261.203 15.6221L261.017 16.2381L262.647 16.7284L262.832 16.1124L264.462 16.6028L264.277 17.2188L265.906 17.7092L266.092 17.0932L267.721 17.5836L267.536 18.1995L269.165 18.6899L269.351 18.0739L270.98 18.5643L270.795 19.1803L272.425 19.6706L272.61 19.0547L274.24 19.545L274.054 20.161L275.684 20.6514L275.869 20.0354L277.499 20.5258L277.314 21.1417L278.943 21.6321L279.129 21.0161L280.758 21.5065L280.573 22.1225L282.203 22.6128L282.388 21.9969L284.018 22.4872L283.832 23.1032L285.462 23.5936L285.647 22.9776L287.277 23.468L287.092 24.0839L288.721 24.5743L288.907 23.9583L290.536 24.4487L290.351 25.0647L291.98 25.555L292.166 24.9391L293.795 25.4294L293.61 26.0454L295.24 26.5358L295.425 25.9198L297.055 26.4102L296.869 27.0261L298.499 27.5165L298.684 26.9005L300.314 27.3909L300.129 28.0069L301.758 28.4972L301.944 27.8813L303.573 28.3716L303.388 28.9876L305.018 29.478L305.203 28.862L306.833 29.3524L306.647 29.9683L308.277 30.4587L308.462 29.8427L310.092 30.3331L309.907 30.9491L311.536 31.4395L311.722 30.8235L313.351 31.3138L313.166 31.9298L314.795 32.4202L314.981 31.8042L316.61 32.2946L316.425 32.9106L318.055 33.4009L318.24 32.7849L319.87 33.2753L319.684 33.8913L321.314 34.3817L321.499 33.7657L323.129 34.2561L322.944 34.872L324.573 35.3624L324.759 34.7464L326.388 35.2368L326.203 35.8528L327.833 36.3431L328.018 35.7272L329.648 36.2175L329.462 36.8335L331.092 37.3239L331.277 36.7079L332.907 37.1983L332.721 37.8142L334.351 38.3046L334.536 37.6886L336.166 38.179L335.981 38.795L337.61 39.2853L337.796 38.6694L339.425 39.1597L339.24 39.7757L340.87 40.2661L341.055 39.6501L342.685 40.1405L342.499 40.7564L344.129 41.2468L344.314 40.6308L345.944 41.1212L345.759 41.7372L347.388 42.2275L347.574 41.6116L349.203 42.1019L349.018 42.7179L350.648 43.2083L350.833 42.5923L352.463 43.0827L352.277 43.6986L353.907 44.189L354.092 43.573L355.722 44.0634L355.536 44.6794L357.166 45.1697L357.351 44.5538L358.981 45.0441L358.796 45.6601L360.425 46.1505L360.611 45.5345L362.24 46.0249L362.055 46.6408L363.685 47.1312L363.87 46.5152L365.5 47.0056L365.314 47.6216L366.944 48.1119L367.129 47.496L368.759 47.9863L368.574 48.6023L370.203 49.0927L370.389 48.4767L372.018 48.9671L371.833 49.583L373.463 50.0734L373.648 49.4574L375.278 49.9478L375.092 50.5638L376.722 51.0541L376.907 50.4382L378.537 50.9285L378.351 51.5445L379.981 52.0349L380.166 51.4189L381.796 51.9093L381.611 52.5252L383.24 53.0156L383.426 52.3996L385.055 52.89L384.87 53.506L386.5 53.9963L386.685 53.3804L388.315 53.8707L388.129 54.4867L389.759 54.9771L389.944 54.3611L391.574 54.8515L391.389 55.4675L392.203 55.7126C392.362 55.7603 392.496 55.8264 392.61 55.9042L392.973 55.3731C393.35 55.6308 393.603 55.9955 393.731 56.3965L393.118 56.5922C393.209 56.8777 393.209 57.1922 393.118 57.4776L393.731 57.6734C393.603 58.0744 393.35 58.439 392.973 58.6967L392.61 58.1657C392.496 58.2434 392.362 58.3095 392.203 58.3572L391.389 58.6023L391.574 59.2183L389.945 59.7087L389.759 59.0927L388.13 59.5831L388.315 60.199L386.685 60.6894L386.5 60.0734L384.87 60.5638L385.056 61.1798L383.426 61.6701L383.241 61.0542L381.611 61.5445L381.796 62.1605L380.167 62.6509L379.981 62.0349L378.352 62.5253L378.537 63.1412L376.907 63.6316L376.722 63.0157L375.092 63.506L375.278 64.122L373.648 64.6124L373.463 63.9964L371.833 64.4868L372.018 65.1027L370.389 65.5931L370.203 64.9771L368.574 65.4675L368.759 66.0835L367.129 66.5738L366.944 65.9579L365.314 66.4482L365.5 67.0642L363.87 67.5546L363.685 66.9386L362.055 67.429L362.24 68.0449L360.611 68.5353L360.425 67.9193L358.796 68.4097L358.981 69.0257L357.352 69.5161L357.166 68.9001L355.537 69.3905L355.722 70.0064L354.092 70.4968L353.907 69.8808L352.277 70.3712L352.463 70.9872L350.833 71.4775L350.648 70.8616L349.018 71.3519L349.203 71.9679L347.574 72.4583L347.388 71.8423L345.759 72.3327L345.944 72.9486L344.314 73.439L344.129 72.823L342.499 73.3134L342.685 73.9294L341.055 74.4197L340.87 73.8038L339.24 74.2942L339.425 74.9101L337.796 75.4005L337.61 74.7845L335.981 75.2749L336.166 75.8909L334.536 76.3812L334.351 75.7653L332.721 76.2556L332.907 76.8716L331.277 77.362L331.092 76.746L329.462 77.2364L329.647 77.8523L328.018 78.3427L327.832 77.7267L326.203 78.2171L326.388 78.8331L324.759 79.3234L324.573 78.7075L322.944 79.1978L323.129 79.8138L321.499 80.3042L321.314 79.6882L319.684 80.1786L319.87 80.7945L318.24 81.2849L318.055 80.6689L316.425 81.1593L316.61 81.7753L314.981 82.2656L314.795 81.6497L313.166 82.14L313.351 82.756L311.721 83.2464L311.536 82.6304L309.906 83.1208L310.092 83.7367L308.462 84.2271L308.277 83.6111L306.647 84.1015L306.832 84.7175L305.203 85.2078L305.018 84.5919L303.388 85.0822L303.573 85.6982L301.944 86.1886L301.758 85.5726L300.129 86.063L300.314 86.6789L298.684 87.1693L298.499 86.5533L296.869 87.0437L297.055 87.6597L295.425 88.1501L295.24 87.5341L293.61 88.0245L293.795 88.6404L292.166 89.1308L291.98 88.5148L290.351 89.0052L290.536 89.6212L288.906 90.1115L288.721 89.4956L287.091 89.9859L287.277 90.6019L285.647 91.0923L285.462 90.4763L283.832 90.9667L284.018 91.5826L282.388 92.073L282.203 91.457L280.573 91.9474L280.758 92.5634L279.129 93.0537L278.943 92.4378L277.314 92.9281L277.499 93.5441L275.869 94.0345L275.684 93.4185L274.054 93.9089L274.24 94.5248L272.61 95.0152L272.425 94.3992L270.795 94.8896L270.98 95.5056L269.351 95.9959L269.165 95.38L267.536 95.8703L267.721 96.4863L266.091 96.9767L265.906 96.3607L264.276 96.8511L264.462 97.467L262.832 97.9574L262.647 97.3414L261.017 97.8318L261.203 98.4478L259.573 98.9381L259.388 98.3222L257.758 98.8125L257.943 99.4285L256.314 99.9189L256.128 99.3029L254.499 99.7933L254.684 100.409L253.054 100.9L252.869 100.284L251.239 100.774L251.425 101.39L249.795 101.88L249.61 101.264L247.98 101.755L248.165 102.371L246.536 102.861L246.35 102.245L244.721 102.735L244.906 103.351L243.276 103.842L243.091 103.226L241.461 103.716L241.647 104.332L240.017 104.823L239.832 104.207L238.202 104.697L238.388 105.313L236.758 105.803L236.573 105.187L234.943 105.678L235.128 106.294L233.499 106.784L233.313 106.168L231.684 106.658L231.869 107.274L230.239 107.765L230.054 107.149L228.424 107.639L228.61 108.255L226.98 108.745L226.795 108.13L225.165 108.62L225.35 109.236L223.721 109.726L223.535 109.11L221.906 109.601L222.091 110.217L220.461 110.707L220.276 110.091L218.646 110.581L218.832 111.197L217.202 111.688L217.017 111.072L215.387 111.562L215.573 112.178L213.943 112.668L213.758 112.052L212.128 112.543L212.313 113.159L210.684 113.649L210.498 113.033L209.683 113.278C209.424 113.356 209.147 113.356 208.888 113.278L208.073 113.033L207.888 113.649L206.258 113.159L206.443 112.543L204.814 112.052L204.628 112.668L202.999 112.178L203.184 111.562L201.554 111.072L201.369 111.688L199.739 111.197L199.925 110.581L198.295 110.091L198.11 110.707L196.48 110.217L196.666 109.601L195.036 109.11L194.851 109.726L193.221 109.236L193.406 108.62L191.777 108.13L191.591 108.746L189.962 108.255L190.147 107.639L188.517 107.149L188.332 107.765L186.702 107.274L186.888 106.658L185.258 106.168L185.073 106.784L183.443 106.294L183.628 105.678L181.999 105.187L181.813 105.803L180.184 105.313L180.369 104.697L178.739 104.207L178.554 104.823L176.924 104.332L177.11 103.716L175.48 103.226L175.295 103.842L173.665 103.351L173.85 102.735L172.221 102.245L172.035 102.861L170.406 102.371L170.591 101.755L168.961 101.264L168.776 101.88L167.146 101.39L167.332 100.774L165.702 100.284L165.517 100.9L163.887 100.409L164.073 99.7933L162.443 99.3029L162.258 99.9189L160.628 99.4285L160.813 98.8125L159.184 98.3222L158.998 98.9381L157.369 98.4478L157.554 97.8318L155.924 97.3414L155.739 97.9574L154.109 97.467L154.295 96.851L152.665 96.3607L152.48 96.9766L150.85 96.4863L151.035 95.8703L149.406 95.3799L149.22 95.9959L147.591 95.5055L147.776 94.8896L146.146 94.3992L145.961 95.0152L144.331 94.5248L144.517 93.9088L142.887 93.4185L142.702 94.0344L141.072 93.5441L141.257 92.9281L139.628 92.4377L139.442 93.0537L137.813 92.5633L137.998 91.9474L136.369 91.457L136.183 92.073L134.554 91.5826L134.739 90.9666L133.109 90.4763L132.924 91.0922L131.294 90.6019L131.48 89.9859L129.85 89.4955L129.665 90.1115L128.035 89.6211L128.22 89.0052L126.591 88.5148L126.405 89.1308L124.776 88.6404L124.961 88.0244L123.331 87.5341L123.146 88.15L121.516 87.6597L121.702 87.0437L120.072 86.5533L119.887 87.1693L118.257 86.6789L118.442 86.063L116.813 85.5726L116.628 86.1886L114.998 85.6982L115.183 85.0822L113.554 84.5919L113.368 85.2078L111.739 84.7175L111.924 84.1015L110.294 83.6111L110.109 84.2271L108.479 83.7367L108.665 83.1208L107.035 82.6304L106.85 83.2464L105.22 82.756L105.405 82.14L103.776 81.6497L103.59 82.2656L101.961 81.7752L102.146 81.1593L100.516 80.6689L100.331 81.2849L98.7014 80.7945L98.8868 80.1785L97.2572 79.6882L97.0718 80.3041L95.4422 79.8138L95.6275 79.1978L93.9979 78.7074L93.8125 79.3234L92.1829 78.833L92.3682 78.2171L90.7386 77.7267L90.5532 78.3427L88.9236 77.8523L89.1089 77.2363L87.4793 76.746L87.294 77.3619L85.6643 76.8716L85.8497 76.2556L84.22 75.7652L84.0347 76.3812L82.405 75.8908L82.5904 75.2749L80.9607 74.7845L80.7754 75.4005L79.1457 74.9101L79.3311 74.2941L77.7015 73.8038L77.5161 74.4197L75.8865 73.9294L76.0718 73.3134L74.4422 72.823L74.2568 73.439L72.6272 72.9486L72.8125 72.3327L71.1829 71.8423L70.9975 72.4583L69.3679 71.9679L69.5532 71.3519L67.9236 70.8616L67.7383 71.4775L66.1086 70.9872L66.294 70.3712L64.6643 69.8808L64.479 70.4968L62.8493 70.0064L63.0347 69.3905L61.405 68.9001L61.2197 69.5161L59.59 69.0257L59.7754 68.4097L58.1457 67.9194L57.9604 68.5353L56.3308 68.045L56.5161 67.429L54.8865 66.9386L54.7011 67.5546L53.0715 67.0642L53.2568 66.4483L51.6272 65.9579L51.4418 66.5739L49.8122 66.0835L49.9975 65.4675L48.3679 64.9772L48.1825 65.5931L46.5529 65.1028L46.7382 64.4868L45.1086 63.9964L44.9233 64.6124L43.2936 64.122L43.479 63.5061L41.8493 63.0157L41.664 63.6317L40.0343 63.1413L40.2197 62.5253L38.59 62.035L38.4047 62.6509L36.775 62.1606L36.9604 61.5446L35.3307 61.0542L35.1454 61.6702L33.5158 61.1798L33.7011 60.5639L32.0715 60.0735L31.8861 60.6894L30.2565 60.1991L30.4418 59.5831L28.8122 59.0927L28.6268 59.7087L26.9972 59.2183L27.1825 58.6024L26.3677 58.3572C26.2093 58.3095 26.0747 58.2434 25.9609 58.1657L25.5979 58.6967C25.221 58.439 24.9685 58.0744 24.8404 57.6734L25.4531 57.4776C25.362 57.1922 25.362 56.8777 25.4531 56.5922L24.8404 56.3965C24.9685 55.9955 25.221 55.6308 25.5979 55.3731L25.9609 55.9042C26.0747 55.8264 26.2093 55.7603 26.3677 55.7126L27.1824 55.4675L26.997 54.8515L28.6267 54.3612L28.812 54.9771L30.4417 54.4868L30.2563 53.8708L31.886 53.3804L32.0713 53.9964L33.7009 53.506L33.5156 52.8901L35.1453 52.3997L35.3306 53.0157L36.9603 52.5253L36.7749 51.9093L38.4046 51.419L38.5899 52.0349L40.2196 51.5446L40.0342 50.9286L41.6638 50.4382L41.8492 51.0542L43.4788 50.5638L43.2935 49.9478L44.9231 49.4575L45.1085 50.0734L46.7382 49.5831L46.5528 48.9671L48.1824 48.4767L48.3678 49.0927L49.9974 48.6023L49.8121 47.9864L51.4417 47.496L51.6271 48.112L53.2567 47.6216L53.0714 47.0056L54.701 46.5153L54.8864 47.1312L56.516 46.6409L56.3307 46.0249L57.9603 45.5345L58.1457 46.1505L59.7753 45.6601L59.59 45.0441L61.2196 44.5538L61.405 45.1697L63.0346 44.6794L62.8493 44.0634L64.4789 43.573L64.6643 44.189L66.2939 43.6986L66.1086 43.0827L67.7382 42.5923L67.9236 43.2083L69.5532 42.7179L69.3679 42.1019L70.9975 41.6116L71.1829 42.2275L72.8125 41.7372L72.6272 41.1212L74.2568 40.6308L74.4422 41.2468L76.0718 40.7564L75.8865 40.1405L77.5161 39.6501L77.7015 40.2661L79.3311 39.7757L79.1458 39.1597L80.7754 38.6693L80.9608 39.2853L82.5904 38.7949L82.4051 38.179L84.0347 37.6886L84.2201 38.3046L85.8497 37.8142L85.6644 37.1982L87.294 36.7079L87.4794 37.3238L89.109 36.8335L88.9237 36.2175L90.5533 35.7271L90.7387 36.3431L92.3683 35.8527L92.183 35.2368L93.8126 34.7464L93.9979 35.3624L95.6276 34.872L95.4422 34.256L97.0719 33.7657L97.2572 34.3816L98.8869 33.8913L98.7015 33.2753L100.331 32.7849L100.517 33.4009L102.146 32.9105L101.961 32.2946L103.59 31.8042L103.776 32.4202L105.405 31.9298L105.22 31.3138L106.85 30.8235L107.035 31.4394L108.665 30.9491L108.479 30.3331L110.109 29.8427L110.294 30.4587L111.924 29.9683L111.739 29.3524L113.368 28.862L113.554 29.478L115.183 28.9876L114.998 28.3716L116.628 27.8813L116.813 28.4972L118.443 28.0069L118.257 27.3909L119.887 26.9005L120.072 27.5165L121.702 27.0261L121.517 26.4102L123.146 25.9198L123.331 26.5358L124.961 26.0454L124.776 25.4294L126.405 24.9391L126.591 25.555L128.22 25.0647L128.035 24.4487L129.665 23.9583L129.85 24.5743L131.48 24.0839L131.294 23.468L132.924 22.9776L133.109 23.5936L134.739 23.1032L134.554 22.4872L136.183 21.9968L136.369 22.6128L137.998 22.1224L137.813 21.5065L139.443 21.0161L139.628 21.6321L141.258 21.1417L141.072 20.5257L142.702 20.0354L142.887 20.6513L144.517 20.161L144.331 19.545L145.961 19.0546L146.146 19.6706L147.776 19.1802L147.591 18.5643L149.22 18.0739L149.406 18.6899L151.035 18.1995L150.85 17.5835L152.48 17.0932L152.665 17.7091L154.295 17.2188L154.109 16.6028L155.739 16.1124L155.924 16.7284L157.554 16.238L157.369 15.6221L158.998 15.1317L159.184 15.7477L160.813 15.2573L160.628 14.6413L162.258 14.151L162.443 14.7669L164.073 14.2766L163.887 13.6606L165.517 13.1702L165.702 13.7862L167.332 13.2958L167.146 12.6799L168.776 12.1895L168.961 12.8055L170.591 12.3151L170.406 11.6991L172.035 11.2088L172.221 11.8247L173.85 11.3344L173.665 10.7184L175.295 10.228L175.48 10.844L177.11 10.3536L176.924 9.73767L178.554 9.2473L178.739 9.86327L180.369 9.3729L180.184 8.75693L181.813 8.26656L181.999 8.88253L183.628 8.39216L183.443 7.77619L185.073 7.28583L185.258 7.90179L186.888 7.41143L186.702 6.79546L188.332 6.30509L188.517 6.92106L190.147 6.43069L189.961 5.81472L191.591 5.32436L191.776 5.94032L193.406 5.44996L193.221 4.83399L194.85 4.34362L195.036 4.95959L196.665 4.46922L196.48 3.85325L198.11 3.36289L198.295 3.97885L199.925 3.48849L199.739 2.87252L201.369 2.38215L201.554 2.99812L203.184 2.50775L202.999 1.89178L204.628 1.40142L204.814 2.01738L206.443 1.52702L206.258 0.911044Z" stroke="black" stroke-width="1.2865" stroke-dasharray="1.72 1.72"/>
<path d="M202.999 292.35L206.801 291.205L206.947 291.69L208.848 291.118C209.133 291.032 209.438 291.032 209.723 291.118L211.624 291.69L211.77 291.205L215.573 292.35L215.427 292.834L219.229 293.978L219.375 293.494L223.178 294.638L223.032 295.122L226.834 296.267L226.98 295.782L230.783 296.926L230.637 297.411L234.439 298.555L234.585 298.071L238.388 299.215L238.242 299.699L242.044 300.843L242.19 300.359L245.993 301.503L245.847 301.988L249.649 303.132L249.795 302.647L253.598 303.791L253.452 304.276L257.254 305.42L257.4 304.936L261.203 306.08L261.057 306.564L264.859 307.709L265.005 307.224L268.808 308.368L268.662 308.853L272.464 309.997L272.61 309.512L276.413 310.657L276.267 311.141L280.069 312.285L280.215 311.801L284.018 312.945L283.872 313.43L287.674 314.574L287.82 314.089L291.623 315.233L291.477 315.718L295.279 316.862L295.425 316.378L299.228 317.522L299.082 318.006L302.884 319.151L303.03 318.666L306.833 319.81L306.687 320.295L310.489 321.439L310.635 320.954L314.438 322.099L314.292 322.583L318.094 323.727L318.24 323.243L322.043 324.387L321.897 324.871L325.699 326.016L325.845 325.531L329.648 326.675L329.502 327.16L333.304 328.304L333.45 327.819L337.253 328.964L337.107 329.448L340.909 330.592L341.055 330.108L344.858 331.252L344.712 331.737L348.514 332.881L348.66 332.396L352.463 333.54L352.317 334.025L356.119 335.169L356.265 334.685L360.068 335.829L359.922 336.313L363.724 337.458L363.87 336.973L367.673 338.117L367.527 338.602L371.329 339.746L371.475 339.261L375.278 340.406L375.132 340.89L378.934 342.034L379.08 341.55L382.883 342.694L382.737 343.179L386.539 344.323L386.685 343.838L390.488 344.982L390.342 345.467L392.243 346.039C392.598 346.146 392.856 346.342 393.031 346.579L393.438 346.279C393.96 346.987 393.96 347.999 393.438 348.707L393.031 348.406C392.856 348.643 392.598 348.84 392.243 348.946L390.342 349.518L390.488 350.003L386.685 351.147L386.539 350.663L382.737 351.807L382.883 352.291L379.08 353.436L378.934 352.951L375.132 354.095L375.278 354.58L371.475 355.724L371.329 355.239L367.527 356.384L367.673 356.868L363.87 358.012L363.724 357.528L359.922 358.672L360.068 359.157L356.265 360.301L356.119 359.816L352.317 360.96L352.463 361.445L348.66 362.589L348.514 362.105L344.712 363.249L344.858 363.733L341.055 364.878L340.909 364.393L337.107 365.537L337.253 366.022L333.45 367.166L333.304 366.681L329.502 367.826L329.648 368.31L325.845 369.454L325.699 368.97L321.897 370.114L322.043 370.598L318.24 371.743L318.094 371.258L314.292 372.402L314.438 372.887L310.635 374.031L310.489 373.546L306.687 374.691L306.833 375.175L303.03 376.319L302.884 375.835L299.082 376.979L299.228 377.464L295.425 378.608L295.279 378.123L291.477 379.267L291.623 379.752L287.82 380.896L287.674 380.412L283.872 381.556L284.018 382.04L280.215 383.185L280.069 382.7L276.267 383.844L276.413 384.329L272.61 385.473L272.464 384.988L268.662 386.133L268.808 386.617L265.005 387.761L264.859 387.277L261.057 388.421L261.203 388.906L257.4 390.05L257.254 389.565L253.452 390.709L253.598 391.194L249.795 392.338L249.649 391.854L245.847 392.998L245.993 393.482L242.19 394.626L242.044 394.142L238.242 395.286L238.388 395.771L234.585 396.915L234.439 396.43L230.637 397.574L230.783 398.059L226.98 399.203L226.834 398.719L223.032 399.863L223.178 400.347L219.375 401.492L219.229 401.007L215.427 402.151L215.573 402.636L211.77 403.78L211.624 403.295L209.723 403.868C209.438 403.953 209.133 403.953 208.848 403.868L206.947 403.295L206.801 403.78L202.999 402.636L203.144 402.151L199.342 401.007L199.196 401.492L195.394 400.347L195.539 399.863L191.737 398.719L191.591 399.203L187.789 398.059L187.934 397.574L184.132 396.43L183.986 396.915L180.184 395.771L180.329 395.286L176.527 394.142L176.381 394.626L172.579 393.482L172.724 392.998L168.922 391.854L168.776 392.338L164.974 391.194L165.119 390.709L161.317 389.565L161.171 390.05L157.369 388.906L157.514 388.421L153.712 387.277L153.566 387.761L149.764 386.617L149.909 386.133L146.107 384.988L145.961 385.473L142.159 384.329L142.304 383.844L138.502 382.7L138.356 383.185L134.554 382.04L134.699 381.556L130.897 380.412L130.751 380.896L126.949 379.752L127.094 379.267L123.292 378.123L123.146 378.608L119.344 377.464L119.489 376.979L115.687 375.835L115.541 376.319L111.739 375.175L111.884 374.691L108.082 373.546L107.936 374.031L104.134 372.887L104.279 372.402L100.477 371.258L100.331 371.743L96.5286 370.598L96.6744 370.114L92.8719 368.97L92.7261 369.454L88.9236 368.31L89.0694 367.826L85.2669 366.681L85.1211 367.166L81.3186 366.022L81.4644 365.537L77.6619 364.393L77.5161 364.878L73.7136 363.733L73.8594 363.249L70.0569 362.105L69.9111 362.589L66.1086 361.445L66.2544 360.96L62.4519 359.816L62.3061 360.301L58.5036 359.157L58.6494 358.672L54.8469 357.528L54.7011 358.012L50.8986 356.868L51.0444 356.384L47.2419 355.239L47.0961 355.724L43.2936 354.58L43.4394 354.095L39.6369 352.951L39.4911 353.436L35.6886 352.291L35.8344 351.807L32.0319 350.663L31.8861 351.147L28.0836 350.003L28.2294 349.518L26.3282 348.946C25.9731 348.84 25.7151 348.643 25.5404 348.406L25.1332 348.707C24.6109 347.999 24.6109 346.987 25.1332 346.279L25.5404 346.579C25.7151 346.342 25.9731 346.146 26.3282 346.039L28.2294 345.467L28.0836 344.982L31.8861 343.838L32.0319 344.323L35.8344 343.179L35.6886 342.694L39.4911 341.55L39.6369 342.034L43.4394 340.89L43.2936 340.406L47.0961 339.261L47.2419 339.746L51.0444 338.602L50.8986 338.117L54.7011 336.973L54.8469 337.458L58.6494 336.313L58.5036 335.829L62.3061 334.685L62.4519 335.169L66.2544 334.025L66.1086 333.54L69.9111 332.396L70.0569 332.881L73.8594 331.737L73.7136 331.252L77.5161 330.108L77.6619 330.592L81.4644 329.448L81.3186 328.964L85.1211 327.819L85.2669 328.304L89.0694 327.16L88.9236 326.675L92.7261 325.531L92.8719 326.016L96.6744 324.871L96.5286 324.387L100.331 323.243L100.477 323.727L104.279 322.583L104.134 322.099L107.936 320.954L108.082 321.439L111.884 320.295L111.739 319.81L115.541 318.666L115.687 319.151L119.489 318.006L119.344 317.522L123.146 316.378L123.292 316.862L127.094 315.718L126.949 315.233L130.751 314.089L130.897 314.574L134.699 313.43L134.554 312.945L138.356 311.801L138.502 312.285L142.304 311.141L142.159 310.657L145.961 309.512L146.107 309.997L149.909 308.853L149.764 308.368L153.566 307.224L153.712 307.709L157.514 306.564L157.369 306.08L161.171 304.936L161.317 305.42L165.119 304.276L164.974 303.791L168.776 302.647L168.922 303.132L172.724 301.988L172.579 301.503L176.381 300.359L176.527 300.843L180.329 299.699L180.184 299.215L183.986 298.071L184.132 298.555L187.934 297.411L187.789 296.926L191.591 295.782L191.737 296.267L195.539 295.122L195.394 294.638L199.196 293.494L199.342 293.978L203.144 292.834L202.999 292.35Z" stroke="black" stroke-width="1.01205" stroke-dasharray="4.05 4.05"/>
<path d="M95.6445 168L99.1504 161.928H92.1387L95.6445 168ZM95.0373 92.0964V162.535H96.2518V92.0964H95.0373Z" fill="black"/>
<path d="M323.355 92.0964L319.85 98.1687H326.861L323.355 92.0964ZM322.748 97.5615V168H323.963V97.5615H322.748Z" fill="black"/>
<path d="M326.392 234.795L322.301 241.88H330.482L326.392 234.795ZM326.392 310.699L330.482 303.614H322.301L326.392 310.699ZM325.683 236.656V237.4H327.1V236.656H325.683ZM325.683 238.888V239.632H327.1V238.888H325.683ZM325.683 241.12V241.865H327.1V241.12H325.683ZM325.683 243.353V244.097H327.1V243.353H325.683ZM325.683 245.585V246.33H327.1V245.585H325.683ZM325.683 247.818V248.562H327.1V247.818H325.683ZM325.683 250.05V250.794H327.1V250.05H325.683ZM325.683 252.283V253.027H327.1V252.283H325.683ZM325.683 254.515V255.259H327.1V254.515H325.683ZM325.683 256.748V257.492H327.1V256.748H325.683ZM325.683 258.98V259.724H327.1V258.98H325.683ZM325.683 261.213V261.957H327.1V261.213H325.683ZM325.683 263.445V264.189H327.1V263.445H325.683ZM325.683 265.678V266.422H327.1V265.678H325.683ZM325.683 267.91V268.654H327.1V267.91H325.683ZM325.683 270.142V270.887H327.1V270.142H325.683ZM325.683 272.375V273.119H327.1V272.375H325.683ZM325.683 274.607V275.352H327.1V274.607H325.683ZM325.683 276.84V277.584H327.1V276.84H325.683ZM325.683 279.072V279.816H327.1V279.072H325.683ZM325.683 281.305V282.049H327.1V281.305H325.683ZM325.683 283.537V284.281H327.1V283.537H325.683ZM325.683 285.77V286.514H327.1V285.77H325.683ZM325.683 288.002V288.746H327.1V288.002H325.683ZM325.683 290.235V290.979H327.1V290.235H325.683ZM325.683 292.467V293.211H327.1V292.467H325.683ZM325.683 294.7V295.444H327.1V294.7H325.683ZM325.683 296.932V297.676H327.1V296.932H325.683ZM325.683 299.164V299.909H327.1V299.164H325.683ZM325.683 301.397V302.141H327.1V301.397H325.683ZM325.683 303.629V304.373H327.1V303.629H325.683ZM325.683 305.862V306.606H327.1V305.862H325.683ZM325.683 308.094V308.838H327.1V308.094H325.683Z" fill="black"/>
<path d="M92.6084 234.795L88.5183 241.88H96.6985L92.6084 234.795ZM92.6084 310.699L96.6985 303.614H88.5183L92.6084 310.699ZM91.9 236.656V237.4H93.3168V236.656H91.9ZM91.9 238.888V239.632H93.3168V238.888H91.9ZM91.9 241.12V241.865H93.3168V241.12H91.9ZM91.9 243.353V244.097H93.3168V243.353H91.9ZM91.9 245.585V246.33H93.3168V245.585H91.9ZM91.9 247.818V248.562H93.3168V247.818H91.9ZM91.9 250.05V250.794H93.3168V250.05H91.9ZM91.9 252.283V253.027H93.3168V252.283H91.9ZM91.9 254.515V255.259H93.3168V254.515H91.9ZM91.9 256.748V257.492H93.3168V256.748H91.9ZM91.9 258.98V259.724H93.3168V258.98H91.9ZM91.9 261.213V261.957H93.3168V261.213H91.9ZM91.9 263.445V264.189H93.3168V263.445H91.9ZM91.9 265.678V266.422H93.3168V265.678H91.9ZM91.9 267.91V268.654H93.3168V267.91H91.9ZM91.9 270.142V270.887H93.3168V270.142H91.9ZM91.9 272.375V273.119H93.3168V272.375H91.9ZM91.9 274.607V275.352H93.3168V274.607H91.9ZM91.9 276.84V277.584H93.3168V276.84H91.9ZM91.9 279.072V279.816H93.3168V279.072H91.9ZM91.9 281.305V282.049H93.3168V281.305H91.9ZM91.9 283.537V284.281H93.3168V283.537H91.9ZM91.9 285.77V286.514H93.3168V285.77H91.9ZM91.9 288.002V288.746H93.3168V288.002H91.9ZM91.9 290.235V290.979H93.3168V290.235H91.9ZM91.9 292.467V293.211H93.3168V292.467H91.9ZM91.9 294.7V295.444H93.3168V294.7H91.9ZM91.9 296.932V297.676H93.3168V296.932H91.9ZM91.9 299.164V299.909H93.3168V299.164H91.9ZM91.9 301.397V302.141H93.3168V301.397H91.9ZM91.9 303.629V304.373H93.3168V303.629H91.9ZM91.9 305.862V306.606H93.3168V305.862H91.9ZM91.9 308.094V308.838H93.3168V308.094H91.9Z" fill="black"/>
<path d="M20.775 202.427L209.286 145.276L397.796 202.427L209.286 259.577L20.775 202.427Z" fill="white" fill-opacity="0.3" stroke="black" stroke-width="0.6"/>
<circle cx="395.4" cy="202.427" r="4.28834" fill="#262626"/>
<circle cx="209.286" cy="259.891" r="4.28834" fill="#262626"/>
<circle cx="24.0293" cy="202.427" r="4.28834" fill="#262626"/>
<circle cx="209.286" cy="144.963" r="4.28834" fill="#262626"/>
<path d="M181.078 346.928V335.012H182.842V346.928H181.078ZM177.082 335.372V333.788H186.838V335.372H177.082ZM187.693 346.928V337.316H189.061V341.276H188.989C188.989 339.872 189.295 338.846 189.907 338.198C190.531 337.538 191.461 337.208 192.697 337.208H193.021V338.756H192.409C191.449 338.756 190.711 339.014 190.195 339.53C189.679 340.034 189.421 340.766 189.421 341.726V346.928H187.693ZM200.134 346.928V344.048H199.846V340.718C199.846 340.058 199.672 339.56 199.324 339.224C198.988 338.888 198.49 338.72 197.83 338.72C197.458 338.72 197.074 338.726 196.678 338.738C196.282 338.75 195.904 338.762 195.544 338.774C195.184 338.786 194.872 338.804 194.608 338.828V337.316C194.872 337.292 195.148 337.274 195.436 337.262C195.736 337.238 196.042 337.226 196.354 337.226C196.666 337.214 196.966 337.208 197.254 337.208C198.238 337.208 199.042 337.328 199.666 337.568C200.29 337.796 200.752 338.174 201.052 338.702C201.352 339.23 201.502 339.944 201.502 340.844V346.928H200.134ZM196.984 347.18C196.264 347.18 195.64 347.06 195.112 346.82C194.596 346.568 194.194 346.208 193.906 345.74C193.63 345.272 193.492 344.708 193.492 344.048C193.492 343.364 193.642 342.794 193.942 342.338C194.254 341.882 194.704 341.54 195.292 341.312C195.88 341.072 196.588 340.952 197.416 340.952H200.026V342.248H197.344C196.648 342.248 196.114 342.416 195.742 342.752C195.37 343.088 195.184 343.52 195.184 344.048C195.184 344.576 195.37 345.002 195.742 345.326C196.114 345.65 196.648 345.812 197.344 345.812C197.752 345.812 198.142 345.74 198.514 345.596C198.886 345.44 199.192 345.188 199.432 344.84C199.684 344.48 199.822 343.988 199.846 343.364L200.314 344.048C200.254 344.732 200.086 345.308 199.81 345.776C199.546 346.232 199.174 346.58 198.694 346.82C198.226 347.06 197.656 347.18 196.984 347.18ZM207.968 347.252C207.284 347.252 206.654 347.126 206.078 346.874C205.502 346.622 204.998 346.268 204.566 345.812C204.146 345.356 203.816 344.828 203.576 344.228C203.348 343.628 203.234 342.98 203.234 342.284V341.96C203.234 341.276 203.348 340.634 203.576 340.034C203.804 339.434 204.122 338.906 204.53 338.45C204.95 337.994 205.442 337.64 206.006 337.388C206.582 337.124 207.218 336.992 207.914 336.992C208.646 336.992 209.312 337.148 209.912 337.46C210.512 337.76 211.004 338.234 211.388 338.882C211.772 339.53 211.988 340.37 212.036 341.402L211.316 340.25V333.788H213.044V346.928H211.676V342.662H212.18C212.132 343.754 211.904 344.642 211.496 345.326C211.088 345.998 210.572 346.49 209.948 346.802C209.336 347.102 208.676 347.252 207.968 347.252ZM208.202 345.74C208.79 345.74 209.324 345.608 209.804 345.344C210.284 345.08 210.668 344.702 210.956 344.21C211.244 343.706 211.388 343.118 211.388 342.446V341.618C211.388 340.958 211.238 340.4 210.938 339.944C210.65 339.476 210.26 339.122 209.768 338.882C209.288 338.63 208.76 338.504 208.184 338.504C207.548 338.504 206.984 338.654 206.492 338.954C206.012 339.254 205.634 339.674 205.358 340.214C205.094 340.754 204.962 341.39 204.962 342.122C204.962 342.854 205.1 343.496 205.376 344.048C205.652 344.588 206.036 345.008 206.528 345.308C207.02 345.596 207.578 345.74 208.202 345.74ZM219.73 347.252C218.89 347.252 218.164 347.108 217.552 346.82C216.94 346.532 216.442 346.154 216.058 345.686C215.674 345.206 215.386 344.672 215.194 344.084C215.014 343.496 214.924 342.896 214.924 342.284V341.96C214.924 341.336 215.014 340.73 215.194 340.142C215.386 339.554 215.674 339.026 216.058 338.558C216.442 338.078 216.928 337.7 217.516 337.424C218.116 337.136 218.818 336.992 219.622 336.992C220.666 336.992 221.524 337.22 222.196 337.676C222.88 338.12 223.384 338.696 223.708 339.404C224.044 340.112 224.212 340.868 224.212 341.672V342.446H215.68V341.15H222.952L222.556 341.852C222.556 341.168 222.448 340.58 222.232 340.088C222.016 339.584 221.692 339.194 221.26 338.918C220.828 338.642 220.282 338.504 219.622 338.504C218.938 338.504 218.368 338.66 217.912 338.972C217.468 339.284 217.132 339.71 216.904 340.25C216.688 340.79 216.58 341.414 216.58 342.122C216.58 342.806 216.688 343.424 216.904 343.976C217.132 344.516 217.48 344.948 217.948 345.272C218.416 345.584 219.01 345.74 219.73 345.74C220.486 345.74 221.098 345.572 221.566 345.236C222.046 344.9 222.334 344.51 222.43 344.066H224.05C223.918 344.726 223.654 345.296 223.258 345.776C222.862 346.256 222.364 346.622 221.764 346.874C221.164 347.126 220.486 347.252 219.73 347.252ZM225.945 346.928V337.316H227.313V341.276H227.241C227.241 339.872 227.547 338.846 228.159 338.198C228.783 337.538 229.713 337.208 230.949 337.208H231.273V338.756H230.661C229.701 338.756 228.963 339.014 228.447 339.53C227.931 340.034 227.673 340.766 227.673 341.726V346.928H225.945ZM235.758 347.216C234.498 347.216 233.52 346.946 232.824 346.406C232.14 345.866 231.786 345.128 231.762 344.192H233.382C233.406 344.564 233.592 344.918 233.94 345.254C234.3 345.578 234.906 345.74 235.758 345.74C236.526 345.74 237.114 345.59 237.522 345.29C237.93 344.978 238.134 344.6 238.134 344.156C238.134 343.76 237.984 343.454 237.684 343.238C237.384 343.01 236.898 342.86 236.226 342.788L235.182 342.68C234.27 342.584 233.526 342.314 232.95 341.87C232.374 341.414 232.086 340.778 232.086 339.962C232.086 339.35 232.242 338.828 232.554 338.396C232.866 337.952 233.298 337.616 233.85 337.388C234.402 337.148 235.038 337.028 235.758 337.028C236.838 337.028 237.714 337.268 238.386 337.748C239.058 338.228 239.406 338.942 239.43 339.89H237.81C237.798 339.506 237.618 339.182 237.27 338.918C236.934 338.642 236.43 338.504 235.758 338.504C235.086 338.504 234.576 338.642 234.228 338.918C233.88 339.194 233.706 339.542 233.706 339.962C233.706 340.322 233.826 340.61 234.066 340.826C234.318 341.042 234.726 341.18 235.29 341.24L236.334 341.348C237.366 341.456 238.194 341.744 238.818 342.212C239.442 342.668 239.754 343.316 239.754 344.156C239.754 344.756 239.58 345.29 239.232 345.758C238.896 346.214 238.428 346.574 237.828 346.838C237.228 347.09 236.538 347.216 235.758 347.216Z" fill="#252525"/>
<path d="M163.794 200.145V184.085H166.918V200.145H163.794ZM166.478 200.145V197.395H173.408V200.145H166.478ZM175.404 200.145V188.199H178.462V200.145H175.404ZM173.732 190.487V188.199H178.462V190.487H173.732ZM176.526 186.769C175.925 186.769 175.477 186.615 175.184 186.307C174.905 185.984 174.766 185.581 174.766 185.097C174.766 184.613 174.905 184.217 175.184 183.909C175.477 183.601 175.925 183.447 176.526 183.447C177.127 183.447 177.567 183.601 177.846 183.909C178.125 184.217 178.264 184.613 178.264 185.097C178.264 185.581 178.125 185.984 177.846 186.307C177.567 186.615 177.127 186.769 176.526 186.769ZM189.95 204.545V196.603L190.852 195.195C190.808 196.339 190.574 197.314 190.148 198.121C189.723 198.913 189.151 199.514 188.432 199.925C187.714 200.335 186.885 200.541 185.946 200.541C185.096 200.541 184.326 200.387 183.636 200.079C182.947 199.756 182.353 199.316 181.854 198.759C181.37 198.187 180.989 197.534 180.71 196.801C180.446 196.053 180.314 195.246 180.314 194.381V193.919C180.314 193.068 180.454 192.276 180.732 191.543C181.011 190.795 181.4 190.149 181.898 189.607C182.412 189.049 183.013 188.617 183.702 188.309C184.406 187.986 185.191 187.825 186.056 187.825C187.054 187.825 187.919 188.037 188.652 188.463C189.386 188.888 189.958 189.511 190.368 190.333C190.794 191.139 191.028 192.129 191.072 193.303H190.588V188.199H193.008V204.545H189.95ZM186.738 197.923C187.34 197.923 187.89 197.791 188.388 197.527C188.887 197.248 189.283 196.852 189.576 196.339C189.884 195.811 190.038 195.195 190.038 194.491V193.611C190.038 192.907 189.884 192.32 189.576 191.851C189.268 191.367 188.865 191 188.366 190.751C187.868 190.487 187.325 190.355 186.738 190.355C186.078 190.355 185.492 190.516 184.978 190.839C184.48 191.147 184.084 191.594 183.79 192.181C183.512 192.753 183.372 193.413 183.372 194.161C183.372 194.909 183.519 195.569 183.812 196.141C184.106 196.698 184.502 197.138 185 197.461C185.514 197.769 186.093 197.923 186.738 197.923ZM199.679 200.519C198.301 200.519 197.23 200.064 196.467 199.155C195.719 198.245 195.345 196.896 195.345 195.107V188.177H198.403V195.371C198.403 196.104 198.609 196.691 199.019 197.131C199.43 197.556 199.987 197.769 200.691 197.769C201.395 197.769 201.967 197.541 202.407 197.087C202.862 196.632 203.089 196.016 203.089 195.239V188.177H206.147V200.145H203.727V195.063H203.969C203.969 196.265 203.815 197.27 203.507 198.077C203.199 198.883 202.737 199.492 202.121 199.903C201.505 200.313 200.735 200.519 199.811 200.519H199.679ZM209.352 200.145V188.199H212.41V200.145H209.352ZM207.68 190.487V188.199H212.41V190.487H207.68ZM210.474 186.769C209.873 186.769 209.425 186.615 209.132 186.307C208.853 185.984 208.714 185.581 208.714 185.097C208.714 184.613 208.853 184.217 209.132 183.909C209.425 183.601 209.873 183.447 210.474 183.447C211.075 183.447 211.515 183.601 211.794 183.909C212.073 184.217 212.212 184.613 212.212 185.097C212.212 185.581 212.073 185.984 211.794 186.307C211.515 186.615 211.075 186.769 210.474 186.769ZM220.004 200.541C219.168 200.541 218.398 200.387 217.694 200.079C216.99 199.771 216.382 199.338 215.868 198.781C215.355 198.223 214.959 197.578 214.68 196.845C214.402 196.097 214.262 195.29 214.262 194.425V193.963C214.262 193.112 214.394 192.313 214.658 191.565C214.937 190.817 215.318 190.164 215.802 189.607C216.301 189.049 216.895 188.617 217.584 188.309C218.288 187.986 219.066 187.825 219.916 187.825C220.855 187.825 221.676 188.03 222.38 188.441C223.099 188.837 223.671 189.438 224.096 190.245C224.522 191.051 224.756 192.063 224.8 193.281L223.898 192.225V184.085H226.956V200.145H224.536V195.063H225.064C225.02 196.28 224.771 197.299 224.316 198.121C223.862 198.927 223.26 199.536 222.512 199.947C221.779 200.343 220.943 200.541 220.004 200.541ZM220.686 197.967C221.288 197.967 221.838 197.835 222.336 197.571C222.835 197.292 223.231 196.896 223.524 196.383C223.832 195.855 223.986 195.239 223.986 194.535V193.655C223.986 192.951 223.832 192.364 223.524 191.895C223.216 191.411 222.813 191.044 222.314 190.795C221.816 190.531 221.273 190.399 220.686 190.399C220.026 190.399 219.44 190.56 218.926 190.883C218.428 191.191 218.032 191.631 217.738 192.203C217.46 192.775 217.32 193.442 217.32 194.205C217.32 194.967 217.467 195.635 217.76 196.207C218.054 196.764 218.45 197.197 218.948 197.505C219.462 197.813 220.041 197.967 220.686 197.967ZM230.129 200.145V188.199H233.187V200.145H230.129ZM228.457 190.487V188.199H233.187V190.487H228.457ZM231.251 186.769C230.65 186.769 230.202 186.615 229.909 186.307C229.63 185.984 229.491 185.581 229.491 185.097C229.491 184.613 229.63 184.217 229.909 183.909C230.202 183.601 230.65 183.447 231.251 183.447C231.852 183.447 232.292 183.601 232.571 183.909C232.85 184.217 232.989 184.613 232.989 185.097C232.989 185.581 232.85 185.984 232.571 186.307C232.292 186.615 231.852 186.769 231.251 186.769ZM241.023 200.299C239.923 200.299 239.014 200.159 238.295 199.881C237.591 199.587 237.063 199.103 236.711 198.429C236.359 197.739 236.183 196.815 236.183 195.657L236.205 184.833H239.065L239.043 195.855C239.043 196.441 239.197 196.896 239.505 197.219C239.828 197.527 240.283 197.681 240.869 197.681H242.739V200.299H241.023ZM234.291 190.443V188.199H242.739V190.443H234.291ZM244.074 204.853V202.235H246.318C246.743 202.235 247.095 202.176 247.374 202.059C247.667 201.956 247.909 201.78 248.1 201.531C248.291 201.296 248.437 200.966 248.54 200.541L251.752 188.199H254.678L251.136 201.201C250.901 202.095 250.571 202.807 250.146 203.335C249.721 203.877 249.171 204.266 248.496 204.501C247.836 204.735 247.015 204.853 246.032 204.853H244.074ZM247.792 199.881V197.461H250.344V199.881H247.792ZM246.758 199.881L242.886 188.199H245.966L249.64 199.881H246.758ZM183.377 221.217V218.511H186.501C187.132 218.511 187.66 218.386 188.085 218.137C188.525 217.887 188.855 217.543 189.075 217.103C189.31 216.663 189.427 216.157 189.427 215.585C189.427 215.013 189.31 214.507 189.075 214.067C188.855 213.627 188.525 213.289 188.085 213.055C187.66 212.805 187.132 212.681 186.501 212.681H183.377V209.975H186.237C187.586 209.975 188.73 210.195 189.669 210.635C190.622 211.075 191.348 211.705 191.847 212.527C192.346 213.333 192.595 214.294 192.595 215.409V215.761C192.595 216.875 192.346 217.843 191.847 218.665C191.348 219.471 190.622 220.102 189.669 220.557C188.73 220.997 187.586 221.217 186.237 221.217H183.377ZM180.693 226.145V209.975H183.817V226.145H180.693ZM199.622 226.563C198.566 226.563 197.634 226.394 196.828 226.057C196.021 225.719 195.339 225.265 194.782 224.693C194.224 224.106 193.799 223.446 193.506 222.713C193.227 221.979 193.088 221.217 193.088 220.425V219.963C193.088 219.141 193.234 218.364 193.528 217.631C193.836 216.883 194.268 216.223 194.826 215.651C195.398 215.064 196.087 214.609 196.894 214.287C197.7 213.949 198.61 213.781 199.622 213.781C200.634 213.781 201.543 213.949 202.35 214.287C203.156 214.609 203.838 215.064 204.396 215.651C204.968 216.223 205.4 216.883 205.694 217.631C205.987 218.364 206.134 219.141 206.134 219.963V220.425C206.134 221.217 205.987 221.979 205.694 222.713C205.415 223.446 204.997 224.106 204.44 224.693C203.882 225.265 203.2 225.719 202.394 226.057C201.587 226.394 200.663 226.563 199.622 226.563ZM199.622 223.945C200.37 223.945 201 223.783 201.514 223.461C202.027 223.123 202.416 222.676 202.68 222.119C202.944 221.547 203.076 220.901 203.076 220.183C203.076 219.449 202.936 218.804 202.658 218.247C202.394 217.675 201.998 217.227 201.47 216.905C200.956 216.567 200.34 216.399 199.622 216.399C198.903 216.399 198.28 216.567 197.752 216.905C197.238 217.227 196.842 217.675 196.564 218.247C196.285 218.804 196.146 219.449 196.146 220.183C196.146 220.901 196.278 221.547 196.542 222.119C196.82 222.676 197.216 223.123 197.73 223.461C198.243 223.783 198.874 223.945 199.622 223.945ZM213.673 226.563C212.617 226.563 211.686 226.394 210.879 226.057C210.073 225.719 209.391 225.265 208.833 224.693C208.276 224.106 207.851 223.446 207.557 222.713C207.279 221.979 207.139 221.217 207.139 220.425V219.963C207.139 219.141 207.286 218.364 207.579 217.631C207.887 216.883 208.32 216.223 208.877 215.651C209.449 215.064 210.139 214.609 210.945 214.287C211.752 213.949 212.661 213.781 213.673 213.781C214.685 213.781 215.595 213.949 216.401 214.287C217.208 214.609 217.89 215.064 218.447 215.651C219.019 216.223 219.452 216.883 219.745 217.631C220.039 218.364 220.185 219.141 220.185 219.963V220.425C220.185 221.217 220.039 221.979 219.745 222.713C219.467 223.446 219.049 224.106 218.491 224.693C217.934 225.265 217.252 225.719 216.445 226.057C215.639 226.394 214.715 226.563 213.673 226.563ZM213.673 223.945C214.421 223.945 215.052 223.783 215.565 223.461C216.079 223.123 216.467 222.676 216.731 222.119C216.995 221.547 217.127 220.901 217.127 220.183C217.127 219.449 216.988 218.804 216.709 218.247C216.445 217.675 216.049 217.227 215.521 216.905C215.008 216.567 214.392 216.399 213.673 216.399C212.955 216.399 212.331 216.567 211.803 216.905C211.29 217.227 210.894 217.675 210.615 218.247C210.337 218.804 210.197 219.449 210.197 220.183C210.197 220.901 210.329 221.547 210.593 222.119C210.872 222.676 211.268 223.123 211.781 223.461C212.295 223.783 212.925 223.945 213.673 223.945ZM222.137 226.145V210.085H225.195V226.145H222.137ZM220.641 212.373V210.085H225.195V212.373H220.641ZM232.14 226.519C230.497 226.519 229.207 226.174 228.268 225.485C227.344 224.781 226.86 223.813 226.816 222.581H229.566C229.61 222.991 229.837 223.365 230.248 223.703C230.659 224.04 231.304 224.209 232.184 224.209C232.917 224.209 233.497 224.077 233.922 223.813C234.362 223.549 234.582 223.189 234.582 222.735C234.582 222.339 234.413 222.023 234.076 221.789C233.753 221.554 233.196 221.4 232.404 221.327L231.348 221.217C230.013 221.07 228.987 220.689 228.268 220.073C227.549 219.457 227.19 218.635 227.19 217.609C227.19 216.787 227.395 216.098 227.806 215.541C228.217 214.983 228.781 214.565 229.5 214.287C230.233 213.993 231.069 213.847 232.008 213.847C233.475 213.847 234.663 214.169 235.572 214.815C236.481 215.46 236.958 216.406 237.002 217.653H234.252C234.223 217.242 234.017 216.89 233.636 216.597C233.255 216.303 232.705 216.157 231.986 216.157C231.341 216.157 230.842 216.281 230.49 216.531C230.138 216.78 229.962 217.103 229.962 217.499C229.962 217.88 230.101 218.173 230.38 218.379C230.673 218.584 231.143 218.723 231.788 218.797L232.844 218.907C234.252 219.053 235.352 219.442 236.144 220.073C236.951 220.703 237.354 221.554 237.354 222.625C237.354 223.417 237.134 224.106 236.694 224.693C236.269 225.265 235.667 225.712 234.89 226.035C234.113 226.357 233.196 226.519 232.14 226.519Z" fill="#252525"/>
<path d="M173.271 51.4097V38.2697H175.035V51.4097H173.271ZM174.675 51.4097V49.8257H180.687V51.4097H174.675ZM182.558 51.4097V41.7977H184.286V51.4097H182.558ZM181.082 43.1657V41.7977H184.286V43.1657H181.082ZM183.044 40.2497C182.66 40.2497 182.372 40.1477 182.18 39.9437C182 39.7397 181.91 39.4817 181.91 39.1697C181.91 38.8577 182 38.5997 182.18 38.3957C182.372 38.1917 182.66 38.0897 183.044 38.0897C183.428 38.0897 183.71 38.1917 183.89 38.3957C184.082 38.5997 184.178 38.8577 184.178 39.1697C184.178 39.4817 184.082 39.7397 183.89 39.9437C183.71 40.1477 183.428 40.2497 183.044 40.2497ZM194.27 55.0097V48.5477L194.954 47.1797C194.918 48.2237 194.708 49.0817 194.324 49.7537C193.94 50.4257 193.442 50.9237 192.83 51.2477C192.23 51.5717 191.57 51.7337 190.85 51.7337C190.166 51.7337 189.536 51.6017 188.96 51.3377C188.396 51.0737 187.904 50.7077 187.484 50.2397C187.076 49.7717 186.758 49.2377 186.53 48.6377C186.302 48.0257 186.188 47.3777 186.188 46.6937V46.3697C186.188 45.6857 186.302 45.0497 186.53 44.4617C186.758 43.8737 187.082 43.3577 187.502 42.9137C187.922 42.4577 188.42 42.1037 188.996 41.8517C189.572 41.5997 190.214 41.4737 190.922 41.4737C191.738 41.4737 192.452 41.6477 193.064 41.9957C193.688 42.3437 194.18 42.8477 194.54 43.5077C194.9 44.1677 195.098 44.9717 195.134 45.9197H194.63V41.7977H195.998V55.0097H194.27ZM191.156 50.1497C191.744 50.1497 192.278 50.0177 192.758 49.7537C193.238 49.4897 193.622 49.1117 193.91 48.6197C194.198 48.1157 194.342 47.5277 194.342 46.8557V46.0277C194.342 45.3677 194.192 44.8097 193.892 44.3537C193.604 43.8857 193.214 43.5317 192.722 43.2917C192.242 43.0397 191.72 42.9137 191.156 42.9137C190.508 42.9137 189.938 43.0637 189.446 43.3637C188.966 43.6637 188.588 44.0897 188.312 44.6417C188.048 45.1817 187.916 45.8117 187.916 46.5317C187.916 47.2517 188.054 47.8877 188.33 48.4397C188.606 48.9797 188.99 49.3997 189.482 49.6997C189.974 49.9997 190.532 50.1497 191.156 50.1497ZM201.928 51.6977C200.788 51.6977 199.912 51.3257 199.3 50.5817C198.688 49.8377 198.382 48.7637 198.382 47.3597V41.7797H200.11V47.7017C200.11 48.4577 200.314 49.0517 200.722 49.4837C201.13 49.9037 201.682 50.1137 202.378 50.1137C203.098 50.1137 203.686 49.8857 204.142 49.4297C204.598 48.9617 204.826 48.3257 204.826 47.5217V41.7797H206.554V51.4097H205.186V47.2877H205.402C205.402 48.2357 205.276 49.0397 205.024 49.6997C204.772 50.3477 204.394 50.8457 203.89 51.1937C203.398 51.5297 202.768 51.6977 202 51.6977H201.928ZM209.648 51.4097V41.7977H211.376V51.4097H209.648ZM208.172 43.1657V41.7977H211.376V43.1657H208.172ZM210.134 40.2497C209.75 40.2497 209.462 40.1477 209.27 39.9437C209.09 39.7397 209 39.4817 209 39.1697C209 38.8577 209.09 38.5997 209.27 38.3957C209.462 38.1917 209.75 38.0897 210.134 38.0897C210.518 38.0897 210.8 38.1917 210.98 38.3957C211.172 38.5997 211.268 38.8577 211.268 39.1697C211.268 39.4817 211.172 39.7397 210.98 39.9437C210.8 40.1477 210.518 40.2497 210.134 40.2497ZM218.012 51.7337C217.328 51.7337 216.698 51.6077 216.122 51.3557C215.546 51.1037 215.042 50.7497 214.61 50.2937C214.19 49.8377 213.86 49.3097 213.62 48.7097C213.392 48.1097 213.278 47.4617 213.278 46.7657V46.4417C213.278 45.7577 213.392 45.1157 213.62 44.5157C213.848 43.9157 214.166 43.3877 214.574 42.9317C214.994 42.4757 215.486 42.1217 216.05 41.8697C216.626 41.6057 217.262 41.4737 217.958 41.4737C218.69 41.4737 219.356 41.6297 219.956 41.9417C220.556 42.2417 221.048 42.7157 221.432 43.3637C221.816 44.0117 222.032 44.8517 222.08 45.8837L221.36 44.7317V38.2697H223.088V51.4097H221.72V47.1437H222.224C222.176 48.2357 221.948 49.1237 221.54 49.8077C221.132 50.4797 220.616 50.9717 219.992 51.2837C219.38 51.5837 218.72 51.7337 218.012 51.7337ZM218.246 50.2217C218.834 50.2217 219.368 50.0897 219.848 49.8257C220.328 49.5617 220.712 49.1837 221 48.6917C221.288 48.1877 221.432 47.5997 221.432 46.9277V46.0997C221.432 45.4397 221.282 44.8817 220.982 44.4257C220.694 43.9577 220.304 43.6037 219.812 43.3637C219.332 43.1117 218.804 42.9857 218.228 42.9857C217.592 42.9857 217.028 43.1357 216.536 43.4357C216.056 43.7357 215.678 44.1557 215.402 44.6957C215.138 45.2357 215.006 45.8717 215.006 46.6037C215.006 47.3357 215.144 47.9777 215.42 48.5297C215.696 49.0697 216.08 49.4897 216.572 49.7897C217.064 50.0777 217.622 50.2217 218.246 50.2217ZM226.156 51.4097V41.7977H227.884V51.4097H226.156ZM224.68 43.1657V41.7977H227.884V43.1657H224.68ZM226.642 40.2497C226.258 40.2497 225.97 40.1477 225.778 39.9437C225.598 39.7397 225.508 39.4817 225.508 39.1697C225.508 38.8577 225.598 38.5997 225.778 38.3957C225.97 38.1917 226.258 38.0897 226.642 38.0897C227.026 38.0897 227.308 38.1917 227.488 38.3957C227.68 38.5997 227.776 38.8577 227.776 39.1697C227.776 39.4817 227.68 39.7397 227.488 39.9437C227.308 40.1477 227.026 40.2497 226.642 40.2497ZM234.249 51.5177C233.529 51.5177 232.905 51.4157 232.377 51.2117C231.861 51.0077 231.459 50.6597 231.171 50.1677C230.895 49.6637 230.757 48.9857 230.757 48.1337V38.8817H232.413V48.3497C232.413 48.8657 232.551 49.2677 232.827 49.5557C233.115 49.8317 233.517 49.9697 234.033 49.9697H235.725V51.5177H234.249ZM229.101 43.0937V41.7977H235.725V43.0937H229.101ZM236.801 55.1537V53.6057H238.187C238.595 53.6057 238.937 53.5517 239.213 53.4437C239.501 53.3477 239.735 53.1797 239.915 52.9397C240.107 52.6997 240.263 52.3817 240.383 51.9857L243.407 41.7977H245.099L241.895 52.4357C241.703 53.0717 241.433 53.5877 241.085 53.9837C240.737 54.3917 240.311 54.6857 239.807 54.8657C239.315 55.0577 238.739 55.1537 238.079 55.1537H236.801ZM239.735 51.1937V49.7537H241.823V51.1937H239.735ZM239.555 51.1937L236.117 41.7977H237.881L241.175 51.1937H239.555ZM171.256 68.8377V67.2897H174.19C174.814 67.2897 175.33 67.1697 175.738 66.9297C176.146 66.6777 176.452 66.3417 176.656 65.9217C176.872 65.5017 176.98 65.0337 176.98 64.5177C176.98 63.9897 176.872 63.5157 176.656 63.0957C176.452 62.6757 176.146 62.3457 175.738 62.1057C175.33 61.8657 174.814 61.7457 174.19 61.7457H171.256V60.1977H173.866C174.946 60.1977 175.846 60.3717 176.566 60.7197C177.298 61.0557 177.85 61.5357 178.222 62.1597C178.594 62.7837 178.78 63.5217 178.78 64.3737V64.6617C178.78 65.5017 178.594 66.2397 178.222 66.8757C177.85 67.4997 177.298 67.9857 176.566 68.3337C175.846 68.6697 174.946 68.8377 173.866 68.8377H171.256ZM169.852 73.4097V60.1977H171.616V73.4097H169.852ZM180.429 73.4097V63.7977H181.797V67.7577H181.725C181.725 66.3537 182.031 65.3277 182.643 64.6797C183.267 64.0197 184.197 63.6897 185.433 63.6897H185.757V65.2377H185.145C184.185 65.2377 183.447 65.4957 182.931 66.0117C182.415 66.5157 182.157 67.2477 182.157 68.2077V73.4097H180.429ZM191.415 73.7337C190.575 73.7337 189.837 73.5897 189.201 73.3017C188.565 73.0137 188.025 72.6357 187.581 72.1677C187.149 71.6877 186.819 71.1537 186.591 70.5657C186.375 69.9777 186.267 69.3777 186.267 68.7657V68.4417C186.267 67.8297 186.381 67.2297 186.609 66.6417C186.837 66.0417 187.173 65.5077 187.617 65.0397C188.061 64.5597 188.601 64.1817 189.237 63.9057C189.873 63.6177 190.599 63.4737 191.415 63.4737C192.231 63.4737 192.957 63.6177 193.593 63.9057C194.229 64.1817 194.769 64.5597 195.213 65.0397C195.657 65.5077 195.993 66.0417 196.221 66.6417C196.449 67.2297 196.563 67.8297 196.563 68.4417V68.7657C196.563 69.3777 196.449 69.9777 196.221 70.5657C196.005 71.1537 195.675 71.6877 195.231 72.1677C194.799 72.6357 194.265 73.0137 193.629 73.3017C192.993 73.5897 192.255 73.7337 191.415 73.7337ZM191.415 72.1857C192.135 72.1857 192.747 72.0297 193.251 71.7177C193.767 71.3937 194.157 70.9617 194.421 70.4217C194.697 69.8817 194.835 69.2757 194.835 68.6037C194.835 67.9197 194.697 67.3077 194.421 66.7677C194.145 66.2277 193.749 65.8017 193.233 65.4897C192.729 65.1777 192.123 65.0217 191.415 65.0217C190.719 65.0217 190.113 65.1777 189.597 65.4897C189.081 65.8017 188.685 66.2277 188.409 66.7677C188.133 67.3077 187.995 67.9197 187.995 68.6037C187.995 69.2757 188.127 69.8817 188.391 70.4217C188.667 70.9617 189.057 71.3937 189.561 71.7177C190.077 72.0297 190.695 72.1857 191.415 72.1857ZM200.307 73.4097L197.031 63.7977H198.831L202.035 73.4097H200.307ZM200.739 73.4097V72.0417H202.827V73.4097H200.739ZM201.567 73.4097L204.357 63.7977H206.049L203.205 73.4097H201.567ZM208.058 73.4097V63.7977H209.786V73.4097H208.058ZM206.582 65.1657V63.7977H209.786V65.1657H206.582ZM208.544 62.2497C208.16 62.2497 207.872 62.1477 207.68 61.9437C207.5 61.7397 207.41 61.4817 207.41 61.1697C207.41 60.8577 207.5 60.5997 207.68 60.3957C207.872 60.1917 208.16 60.0897 208.544 60.0897C208.928 60.0897 209.21 60.1917 209.39 60.3957C209.582 60.5997 209.678 60.8577 209.678 61.1697C209.678 61.4817 209.582 61.7397 209.39 61.9437C209.21 62.1477 208.928 62.2497 208.544 62.2497ZM216.421 73.7337C215.737 73.7337 215.107 73.6077 214.531 73.3557C213.955 73.1037 213.451 72.7497 213.019 72.2937C212.599 71.8377 212.269 71.3097 212.029 70.7097C211.801 70.1097 211.687 69.4617 211.687 68.7657V68.4417C211.687 67.7577 211.801 67.1157 212.029 66.5157C212.257 65.9157 212.575 65.3877 212.983 64.9317C213.403 64.4757 213.895 64.1217 214.459 63.8697C215.035 63.6057 215.671 63.4737 216.367 63.4737C217.099 63.4737 217.765 63.6297 218.365 63.9417C218.965 64.2417 219.457 64.7157 219.841 65.3637C220.225 66.0117 220.441 66.8517 220.489 67.8837L219.769 66.7317V60.2697H221.497V73.4097H220.129V69.1437H220.633C220.585 70.2357 220.357 71.1237 219.949 71.8077C219.541 72.4797 219.025 72.9717 218.401 73.2837C217.789 73.5837 217.129 73.7337 216.421 73.7337ZM216.655 72.2217C217.243 72.2217 217.777 72.0897 218.257 71.8257C218.737 71.5617 219.121 71.1837 219.409 70.6917C219.697 70.1877 219.841 69.5997 219.841 68.9277V68.0997C219.841 67.4397 219.691 66.8817 219.391 66.4257C219.103 65.9577 218.713 65.6037 218.221 65.3637C217.741 65.1117 217.213 64.9857 216.637 64.9857C216.001 64.9857 215.437 65.1357 214.945 65.4357C214.465 65.7357 214.087 66.1557 213.811 66.6957C213.547 67.2357 213.415 67.8717 213.415 68.6037C213.415 69.3357 213.553 69.9777 213.829 70.5297C214.105 71.0697 214.489 71.4897 214.981 71.7897C215.473 72.0777 216.031 72.2217 216.655 72.2217ZM228.183 73.7337C227.343 73.7337 226.617 73.5897 226.005 73.3017C225.393 73.0137 224.895 72.6357 224.511 72.1677C224.127 71.6877 223.839 71.1537 223.647 70.5657C223.467 69.9777 223.377 69.3777 223.377 68.7657V68.4417C223.377 67.8177 223.467 67.2117 223.647 66.6237C223.839 66.0357 224.127 65.5077 224.511 65.0397C224.895 64.5597 225.381 64.1817 225.969 63.9057C226.569 63.6177 227.271 63.4737 228.075 63.4737C229.119 63.4737 229.977 63.7017 230.649 64.1577C231.333 64.6017 231.837 65.1777 232.161 65.8857C232.497 66.5937 232.665 67.3497 232.665 68.1537V68.9277H224.133V67.6317H231.405L231.009 68.3337C231.009 67.6497 230.901 67.0617 230.685 66.5697C230.469 66.0657 230.145 65.6757 229.713 65.3997C229.281 65.1237 228.735 64.9857 228.075 64.9857C227.391 64.9857 226.821 65.1417 226.365 65.4537C225.921 65.7657 225.585 66.1917 225.357 66.7317C225.141 67.2717 225.033 67.8957 225.033 68.6037C225.033 69.2877 225.141 69.9057 225.357 70.4577C225.585 70.9977 225.933 71.4297 226.401 71.7537C226.869 72.0657 227.463 72.2217 228.183 72.2217C228.939 72.2217 229.551 72.0537 230.019 71.7177C230.499 71.3817 230.787 70.9917 230.883 70.5477H232.503C232.371 71.2077 232.107 71.7777 231.711 72.2577C231.315 72.7377 230.817 73.1037 230.217 73.3557C229.617 73.6077 228.939 73.7337 228.183 73.7337ZM234.398 73.4097V63.7977H235.766V67.7577H235.694C235.694 66.3537 236 65.3277 236.612 64.6797C237.236 64.0197 238.166 63.6897 239.402 63.6897H239.726V65.2377H239.114C238.154 65.2377 237.416 65.4957 236.9 66.0117C236.384 66.5157 236.126 67.2477 236.126 68.2077V73.4097H234.398ZM244.211 73.6977C242.951 73.6977 241.973 73.4277 241.277 72.8877C240.593 72.3477 240.239 71.6097 240.215 70.6737H241.835C241.859 71.0457 242.045 71.3997 242.393 71.7357C242.753 72.0597 243.359 72.2217 244.211 72.2217C244.979 72.2217 245.567 72.0717 245.975 71.7717C246.383 71.4597 246.587 71.0817 246.587 70.6377C246.587 70.2417 246.437 69.9357 246.137 69.7197C245.837 69.4917 245.351 69.3417 244.679 69.2697L243.635 69.1617C242.723 69.0657 241.979 68.7957 241.403 68.3517C240.827 67.8957 240.539 67.2597 240.539 66.4437C240.539 65.8317 240.695 65.3097 241.007 64.8777C241.319 64.4337 241.751 64.0977 242.303 63.8697C242.855 63.6297 243.491 63.5097 244.211 63.5097C245.291 63.5097 246.167 63.7497 246.839 64.2297C247.511 64.7097 247.859 65.4237 247.883 66.3717H246.263C246.251 65.9877 246.071 65.6637 245.723 65.3997C245.387 65.1237 244.883 64.9857 244.211 64.9857C243.539 64.9857 243.029 65.1237 242.681 65.3997C242.333 65.6757 242.159 66.0237 242.159 66.4437C242.159 66.8037 242.279 67.0917 242.519 67.3077C242.771 67.5237 243.179 67.6617 243.743 67.7217L244.787 67.8297C245.819 67.9377 246.647 68.2257 247.271 68.6937C247.895 69.1497 248.207 69.7977 248.207 70.6377C248.207 71.2377 248.033 71.7717 247.685 72.2397C247.349 72.6957 246.881 73.0557 246.281 73.3197C245.681 73.5717 244.991 73.6977 244.211 73.6977Z" fill="#252525"/>
<path d="M16.7495 127.417V126.437H19.5355C20.2262 126.437 20.8282 126.325 21.3415 126.101C21.8642 125.877 22.3029 125.574 22.6575 125.191C23.0122 124.799 23.2782 124.351 23.4555 123.847C23.6329 123.343 23.7215 122.807 23.7215 122.237C23.7215 121.649 23.6282 121.103 23.4415 120.599C23.2642 120.095 22.9982 119.652 22.6435 119.269C22.2889 118.887 21.8502 118.593 21.3275 118.387C20.8142 118.182 20.2169 118.079 19.5355 118.079H16.7495V117.099H19.4235C20.3382 117.099 21.1315 117.239 21.8035 117.519C22.4755 117.799 23.0355 118.182 23.4835 118.667C23.9315 119.143 24.2629 119.68 24.4775 120.277C24.6922 120.875 24.7995 121.481 24.7995 122.097V122.363C24.7995 122.97 24.6922 123.572 24.4775 124.169C24.2629 124.767 23.9362 125.313 23.4975 125.807C23.0589 126.293 22.4989 126.685 21.8175 126.983C21.1455 127.273 20.3475 127.417 19.4235 127.417H16.7495ZM15.9655 127.417V117.099H17.0295V127.417H15.9655ZM29.3905 127.599C28.7558 127.599 28.2051 127.492 27.7384 127.277C27.2718 127.053 26.8891 126.759 26.5904 126.395C26.2918 126.022 26.0678 125.607 25.9184 125.149C25.7784 124.692 25.7084 124.221 25.7084 123.735V123.539C25.7084 123.063 25.7784 122.597 25.9184 122.139C26.0678 121.682 26.2918 121.271 26.5904 120.907C26.8891 120.543 27.2624 120.254 27.7105 120.039C28.1678 119.815 28.6998 119.703 29.3064 119.703C30.0811 119.703 30.7251 119.876 31.2385 120.221C31.7611 120.567 32.1531 121.01 32.4145 121.551C32.6758 122.083 32.8065 122.657 32.8065 123.273V123.819H26.1844V123.007H32.0785L31.8125 123.413C31.8125 122.863 31.7145 122.382 31.5185 121.971C31.3318 121.551 31.0518 121.225 30.6785 120.991C30.3145 120.749 29.8571 120.627 29.3064 120.627C28.7278 120.627 28.2471 120.763 27.8644 121.033C27.4818 121.304 27.1924 121.663 26.9964 122.111C26.8098 122.559 26.7164 123.068 26.7164 123.637C26.7164 124.197 26.8098 124.711 26.9964 125.177C27.1924 125.635 27.4865 125.999 27.8784 126.269C28.2798 126.54 28.7838 126.675 29.3905 126.675C30.0345 126.675 30.5571 126.531 30.9584 126.241C31.3598 125.943 31.6071 125.593 31.7005 125.191H32.6805C32.5871 125.686 32.3911 126.115 32.0925 126.479C31.7938 126.834 31.4158 127.109 30.9584 127.305C30.5011 127.501 29.9785 127.599 29.3905 127.599ZM34.2677 130.161V119.955H35.1077V123.133L34.8557 123.161C34.893 122.415 35.0517 121.785 35.3317 121.271C35.621 120.758 36.0084 120.371 36.4937 120.109C36.9884 119.839 37.539 119.703 38.1457 119.703C38.687 119.703 39.177 119.811 39.6157 120.025C40.0637 120.231 40.4417 120.515 40.7497 120.879C41.067 121.234 41.305 121.645 41.4637 122.111C41.6317 122.569 41.7157 123.049 41.7157 123.553V123.749C41.7157 124.253 41.6317 124.739 41.4637 125.205C41.2957 125.663 41.053 126.073 40.7357 126.437C40.4277 126.792 40.0497 127.077 39.6017 127.291C39.163 127.497 38.6684 127.599 38.1177 127.599C37.5297 127.599 36.9884 127.469 36.4937 127.207C36.0084 126.937 35.6117 126.54 35.3037 126.017C35.005 125.495 34.8417 124.851 34.8137 124.085L35.3177 125.135V130.161H34.2677ZM37.9777 126.675C38.5377 126.675 39.0184 126.545 39.4197 126.283C39.821 126.013 40.129 125.649 40.3437 125.191C40.5584 124.725 40.6657 124.211 40.6657 123.651C40.6657 123.073 40.5537 122.559 40.3297 122.111C40.115 121.654 39.807 121.295 39.4057 121.033C39.0044 120.763 38.5284 120.627 37.9777 120.627C37.4737 120.627 37.0164 120.739 36.6057 120.963C36.195 121.187 35.8684 121.505 35.6257 121.915C35.3924 122.317 35.2757 122.793 35.2757 123.343V124.029C35.2757 124.552 35.3924 125.014 35.6257 125.415C35.8684 125.807 36.195 126.115 36.6057 126.339C37.0164 126.563 37.4737 126.675 37.9777 126.675ZM46.596 127.599C45.9613 127.599 45.4013 127.492 44.916 127.277C44.44 127.053 44.034 126.759 43.698 126.395C43.3713 126.022 43.1193 125.607 42.942 125.149C42.774 124.692 42.69 124.225 42.69 123.749V123.553C42.69 123.077 42.7787 122.611 42.956 122.153C43.1333 121.687 43.39 121.271 43.726 120.907C44.062 120.543 44.468 120.254 44.944 120.039C45.4293 119.815 45.98 119.703 46.596 119.703C47.2213 119.703 47.772 119.815 48.248 120.039C48.7333 120.254 49.144 120.543 49.48 120.907C49.816 121.271 50.068 121.687 50.236 122.153C50.4133 122.611 50.502 123.077 50.502 123.553V123.749C50.502 124.225 50.418 124.692 50.25 125.149C50.082 125.607 49.83 126.022 49.494 126.395C49.1673 126.759 48.7613 127.053 48.276 127.277C47.7907 127.492 47.2307 127.599 46.596 127.599ZM46.596 126.661C47.212 126.661 47.73 126.526 48.15 126.255C48.5793 125.975 48.906 125.611 49.13 125.163C49.354 124.706 49.466 124.202 49.466 123.651C49.466 123.091 49.3493 122.587 49.116 122.139C48.892 121.682 48.5653 121.323 48.136 121.061C47.7067 120.791 47.1933 120.655 46.596 120.655C46.008 120.655 45.4993 120.791 45.07 121.061C44.6407 121.323 44.3093 121.682 44.076 122.139C43.852 122.587 43.74 123.091 43.74 123.651C43.74 124.202 43.852 124.706 44.076 125.163C44.3 125.611 44.622 125.975 45.042 126.255C45.4713 126.526 45.9893 126.661 46.596 126.661ZM54.4212 127.571C53.4692 127.571 52.7366 127.366 52.2232 126.955C51.7099 126.535 51.4486 125.975 51.4392 125.275H52.4192C52.4379 125.63 52.5966 125.952 52.8952 126.241C53.2032 126.531 53.7119 126.675 54.4212 126.675C55.0839 126.675 55.5786 126.54 55.9052 126.269C56.2412 125.989 56.4092 125.653 56.4092 125.261C56.4092 124.897 56.2692 124.617 55.9892 124.421C55.7186 124.216 55.3219 124.085 54.7992 124.029L53.9592 123.945C53.2872 123.871 52.7412 123.665 52.3212 123.329C51.9106 122.984 51.7052 122.513 51.7052 121.915C51.7052 121.477 51.8172 121.094 52.0412 120.767C52.2652 120.441 52.5779 120.189 52.9792 120.011C53.3899 119.825 53.8706 119.731 54.4212 119.731C55.2146 119.731 55.8586 119.918 56.3532 120.291C56.8572 120.665 57.1139 121.197 57.1232 121.887H56.1432C56.1339 121.533 55.9846 121.234 55.6952 120.991C55.4059 120.749 54.9812 120.627 54.4212 120.627C53.8426 120.627 53.4086 120.753 53.1192 121.005C52.8392 121.257 52.6992 121.565 52.6992 121.929C52.6992 122.237 52.8066 122.494 53.0212 122.699C53.2359 122.895 53.5719 123.017 54.0292 123.063L54.8692 123.147C55.6159 123.231 56.2226 123.446 56.6892 123.791C57.1652 124.137 57.4032 124.631 57.4032 125.275C57.4032 125.714 57.2772 126.111 57.0252 126.465C56.7826 126.811 56.4372 127.081 55.9892 127.277C55.5412 127.473 55.0186 127.571 54.4212 127.571ZM59.3254 127.361V119.955H60.3614V127.361H59.3254ZM58.1354 120.795V119.955H60.3614V120.795H58.1354ZM59.5494 118.583C59.2974 118.583 59.1061 118.518 58.9754 118.387C58.8541 118.247 58.7934 118.075 58.7934 117.869C58.7934 117.664 58.8541 117.496 58.9754 117.365C59.1061 117.225 59.2974 117.155 59.5494 117.155C59.8014 117.155 59.9881 117.225 60.1094 117.365C60.2307 117.496 60.2914 117.664 60.2914 117.869C60.2914 118.075 60.2307 118.247 60.1094 118.387C59.9881 118.518 59.8014 118.583 59.5494 118.583ZM65.245 127.445C64.7317 127.445 64.2883 127.371 63.915 127.221C63.5417 127.072 63.2523 126.82 63.047 126.465C62.8417 126.101 62.739 125.616 62.739 125.009V117.617H63.747V125.163C63.747 125.593 63.8637 125.924 64.097 126.157C64.3303 126.381 64.6617 126.493 65.091 126.493H66.421V127.445H65.245ZM61.409 120.753V119.955H66.421V120.753H61.409ZM8.93662 144.361V134.141H12.1986L16.4966 142.709H16.9586L16.6786 142.961V134.141H18.5546V144.361H15.2786L10.9806 135.793H10.5046L10.7846 135.541V144.361H8.93662ZM20.5172 144.361V134.141H22.5052V144.361H20.5172ZM22.2252 140.105V138.425L26.3132 138.411V140.091L22.2252 140.105ZM22.2252 135.821V134.141H26.5092V135.821H22.2252ZM29.9303 144.361V135.611H31.9183V144.361H29.9303ZM26.9763 135.891V134.141H34.8723V135.891H26.9763ZM37.7923 144.599C36.7469 144.599 35.9256 144.38 35.3283 143.941C34.7403 143.493 34.4323 142.877 34.4043 142.093H36.1543C36.1823 142.355 36.3269 142.593 36.5883 142.807C36.8496 143.022 37.2603 143.129 37.8203 143.129C38.2869 143.129 38.6556 143.045 38.9263 142.877C39.2063 142.709 39.3463 142.481 39.3463 142.191C39.3463 141.939 39.2389 141.739 39.0243 141.589C38.8189 141.44 38.4643 141.342 37.9603 141.295L37.2883 141.225C36.4389 141.132 35.7856 140.889 35.3283 140.497C34.8709 140.105 34.6423 139.583 34.6423 138.929C34.6423 138.407 34.7729 137.968 35.0343 137.613C35.2956 137.259 35.6549 136.993 36.1123 136.815C36.5789 136.629 37.1109 136.535 37.7083 136.535C38.6416 136.535 39.3976 136.741 39.9763 137.151C40.5549 137.562 40.8583 138.164 40.8863 138.957H39.1363C39.1176 138.696 38.9869 138.472 38.7443 138.285C38.5016 138.099 38.1516 138.005 37.6943 138.005C37.2836 138.005 36.9663 138.085 36.7423 138.243C36.5183 138.402 36.4063 138.607 36.4063 138.859C36.4063 139.102 36.4949 139.289 36.6723 139.419C36.8589 139.55 37.1576 139.639 37.5683 139.685L38.2403 139.755C39.1363 139.849 39.8363 140.096 40.3403 140.497C40.8536 140.899 41.1103 141.44 41.1103 142.121C41.1103 142.625 40.9703 143.064 40.6903 143.437C40.4196 143.801 40.0369 144.086 39.5423 144.291C39.0476 144.497 38.4643 144.599 37.7923 144.599ZM47.4134 142.807V136.269H48.3374V142.807H47.4134ZM44.7814 139.965V139.125H50.9694V139.965H44.7814ZM55.3975 144.361V134.141H57.3855V144.361H55.3975ZM57.1055 140.105V138.425L61.1935 138.411V140.091L57.1055 140.105ZM57.1055 135.821V134.141H61.3895V135.821H57.1055ZM64.8105 144.361V135.611H66.7985V144.361H64.8105ZM61.8565 135.891V134.141H69.7525V135.891H61.8565ZM72.6725 144.599C71.6272 144.599 70.8058 144.38 70.2085 143.941C69.6205 143.493 69.3125 142.877 69.2845 142.093H71.0345C71.0625 142.355 71.2072 142.593 71.4685 142.807C71.7298 143.022 72.1405 143.129 72.7005 143.129C73.1672 143.129 73.5358 143.045 73.8065 142.877C74.0865 142.709 74.2265 142.481 74.2265 142.191C74.2265 141.939 74.1192 141.739 73.9045 141.589C73.6992 141.44 73.3445 141.342 72.8405 141.295L72.1685 141.225C71.3192 141.132 70.6658 140.889 70.2085 140.497C69.7512 140.105 69.5225 139.583 69.5225 138.929C69.5225 138.407 69.6532 137.968 69.9145 137.613C70.1758 137.259 70.5352 136.993 70.9925 136.815C71.4592 136.629 71.9912 136.535 72.5885 136.535C73.5218 136.535 74.2778 136.741 74.8565 137.151C75.4352 137.562 75.7385 138.164 75.7665 138.957H74.0165C73.9978 138.696 73.8672 138.472 73.6245 138.285C73.3818 138.099 73.0318 138.005 72.5745 138.005C72.1638 138.005 71.8465 138.085 71.6225 138.243C71.3985 138.402 71.2865 138.607 71.2865 138.859C71.2865 139.102 71.3752 139.289 71.5525 139.419C71.7392 139.55 72.0378 139.639 72.4485 139.685L73.1205 139.755C74.0165 139.849 74.7165 140.096 75.2205 140.497C75.7338 140.899 75.9905 141.44 75.9905 142.121C75.9905 142.625 75.8505 143.064 75.5705 143.437C75.2998 143.801 74.9172 144.086 74.4225 144.291C73.9278 144.497 73.3445 144.599 72.6725 144.599Z" fill="#333333"/>
<path d="M26.9373 269.286C26.0786 269.286 25.3553 269.151 24.7673 268.88C24.1793 268.6 23.7313 268.218 23.4233 267.732C23.1246 267.238 22.9753 266.682 22.9753 266.066H24.0393C24.0393 266.458 24.1326 266.827 24.3193 267.172C24.5153 267.508 24.8233 267.784 25.2433 267.998C25.6726 268.204 26.2373 268.306 26.9373 268.306C27.5813 268.306 28.1133 268.213 28.5333 268.026C28.9626 267.84 29.28 267.588 29.4853 267.27C29.7 266.953 29.8073 266.598 29.8073 266.206C29.8073 265.712 29.6113 265.301 29.2193 264.974C28.8366 264.638 28.258 264.438 27.4833 264.372L26.3073 264.26C25.43 264.186 24.73 263.915 24.2073 263.448C23.694 262.972 23.4373 262.347 23.4373 261.572C23.4373 260.984 23.5773 260.466 23.8573 260.018C24.1373 259.57 24.534 259.216 25.0473 258.954C25.57 258.693 26.1953 258.562 26.9233 258.562C27.6606 258.562 28.2906 258.698 28.8133 258.968C29.3453 259.23 29.7513 259.594 30.0313 260.06C30.3113 260.527 30.4513 261.068 30.4513 261.684H29.3873C29.3873 261.311 29.3033 260.961 29.1353 260.634C28.9673 260.308 28.7013 260.046 28.3373 259.85C27.9733 259.645 27.502 259.542 26.9233 259.542C26.3726 259.542 25.9153 259.636 25.5513 259.822C25.1966 260.009 24.9306 260.256 24.7533 260.564C24.5853 260.872 24.5013 261.208 24.5013 261.572C24.5013 262.03 24.6646 262.417 24.9913 262.734C25.318 263.052 25.7893 263.234 26.4053 263.28L27.5813 263.392C28.272 263.448 28.86 263.602 29.3453 263.854C29.84 264.097 30.218 264.419 30.4793 264.82C30.7406 265.212 30.8713 265.674 30.8713 266.206C30.8713 266.804 30.708 267.336 30.3813 267.802C30.064 268.269 29.6113 268.633 29.0233 268.894C28.4353 269.156 27.74 269.286 26.9373 269.286ZM34.697 269.048L36.279 261.88H37.749L39.583 269.048H38.673L36.839 261.922H37.175L35.579 269.048H34.697ZM34.095 269.048V268.194H35.369V269.048H34.095ZM33.843 269.048L31.701 261.642H32.709L34.823 269.048H33.843ZM38.911 269.048V268.194H40.157V269.048H38.911ZM39.457 269.048L41.305 261.642H42.271L40.381 269.048H39.457ZM48.1121 269.048V266.822H47.9441V264.19C47.9441 263.64 47.7994 263.22 47.5101 262.93C47.2208 262.632 46.7728 262.482 46.1661 262.482C45.8861 262.482 45.6014 262.487 45.3121 262.496C45.0321 262.506 44.7614 262.52 44.5001 262.538C44.2481 262.548 44.0241 262.562 43.8281 262.58V261.656C44.0334 261.638 44.2434 261.619 44.4581 261.6C44.6728 261.582 44.8921 261.572 45.1161 261.572C45.3494 261.563 45.5734 261.558 45.7881 261.558C46.5441 261.558 47.1508 261.652 47.6081 261.838C48.0748 262.025 48.4154 262.319 48.6301 262.72C48.8448 263.112 48.9521 263.635 48.9521 264.288V269.048H48.1121ZM45.6061 269.244C45.0834 269.244 44.6214 269.151 44.2201 268.964C43.8188 268.778 43.5061 268.507 43.2821 268.152C43.0674 267.798 42.9601 267.368 42.9601 266.864C42.9601 266.37 43.0721 265.95 43.2961 265.604C43.5294 265.259 43.8608 264.998 44.2901 264.82C44.7288 264.634 45.2561 264.54 45.8721 264.54H48.0421V265.338H45.8021C45.2141 265.338 44.7614 265.483 44.4441 265.772C44.1361 266.052 43.9821 266.421 43.9821 266.878C43.9821 267.345 44.1454 267.718 44.4721 267.998C44.7988 268.269 45.2421 268.404 45.8021 268.404C46.1474 268.404 46.4788 268.344 46.7961 268.222C47.1134 268.092 47.3794 267.877 47.5941 267.578C47.8088 267.27 47.9254 266.85 47.9441 266.318L48.2521 266.752C48.2148 267.303 48.0841 267.765 47.8601 268.138C47.6361 268.502 47.3328 268.778 46.9501 268.964C46.5674 269.151 46.1194 269.244 45.6061 269.244ZM51.0148 271.848V261.642H51.8548V264.82L51.6028 264.848C51.6401 264.102 51.7988 263.472 52.0788 262.958C52.3681 262.445 52.7555 262.058 53.2408 261.796C53.7355 261.526 54.2861 261.39 54.8928 261.39C55.4341 261.39 55.9241 261.498 56.3628 261.712C56.8108 261.918 57.1888 262.202 57.4968 262.566C57.8141 262.921 58.0521 263.332 58.2108 263.798C58.3788 264.256 58.4628 264.736 58.4628 265.24V265.436C58.4628 265.94 58.3788 266.426 58.2108 266.892C58.0428 267.35 57.8001 267.76 57.4828 268.124C57.1748 268.479 56.7968 268.764 56.3488 268.978C55.9101 269.184 55.4155 269.286 54.8648 269.286C54.2768 269.286 53.7355 269.156 53.2408 268.894C52.7555 268.624 52.3588 268.227 52.0508 267.704C51.7521 267.182 51.5888 266.538 51.5608 265.772L52.0648 266.822V271.848H51.0148ZM54.7248 268.362C55.2848 268.362 55.7655 268.232 56.1668 267.97C56.5681 267.7 56.8761 267.336 57.0908 266.878C57.3055 266.412 57.4128 265.898 57.4128 265.338C57.4128 264.76 57.3008 264.246 57.0768 263.798C56.8621 263.341 56.5541 262.982 56.1528 262.72C55.7515 262.45 55.2755 262.314 54.7248 262.314C54.2208 262.314 53.7635 262.426 53.3528 262.65C52.9421 262.874 52.6155 263.192 52.3728 263.602C52.1395 264.004 52.0228 264.48 52.0228 265.03V265.716C52.0228 266.239 52.1395 266.701 52.3728 267.102C52.6155 267.494 52.9421 267.802 53.3528 268.026C53.7635 268.25 54.2208 268.362 54.7248 268.362ZM2.17301 286.048V275.828H5.43501L9.73301 284.396H10.195L9.91501 284.648V275.828H11.791V286.048H8.51501L4.21701 277.48H3.74101L4.02101 277.228V286.048H2.17301ZM13.7536 286.048V275.828H15.7416V286.048H13.7536ZM15.4616 281.792V280.112L19.5496 280.098V281.778L15.4616 281.792ZM15.4616 277.508V275.828H19.7456V277.508H15.4616ZM23.1667 286.048V277.298H25.1547V286.048H23.1667ZM20.2127 277.578V275.828H28.1087V277.578H20.2127ZM31.0287 286.286C29.9833 286.286 29.162 286.067 28.5646 285.628C27.9766 285.18 27.6686 284.564 27.6406 283.78H29.3907C29.4187 284.042 29.5633 284.28 29.8247 284.494C30.086 284.709 30.4967 284.816 31.0567 284.816C31.5233 284.816 31.892 284.732 32.1627 284.564C32.4427 284.396 32.5827 284.168 32.5827 283.878C32.5827 283.626 32.4753 283.426 32.2607 283.276C32.0553 283.127 31.7007 283.029 31.1967 282.982L30.5247 282.912C29.6753 282.819 29.022 282.576 28.5646 282.184C28.1073 281.792 27.8787 281.27 27.8787 280.616C27.8787 280.094 28.0093 279.655 28.2707 279.3C28.532 278.946 28.8913 278.68 29.3487 278.502C29.8153 278.316 30.3473 278.222 30.9447 278.222C31.878 278.222 32.634 278.428 33.2127 278.838C33.7913 279.249 34.0947 279.851 34.1227 280.644H32.3727C32.354 280.383 32.2233 280.159 31.9807 279.972C31.738 279.786 31.388 279.692 30.9307 279.692C30.52 279.692 30.2027 279.772 29.9787 279.93C29.7546 280.089 29.6426 280.294 29.6426 280.546C29.6426 280.789 29.7313 280.976 29.9087 281.106C30.0953 281.237 30.394 281.326 30.8047 281.372L31.4767 281.442C32.3727 281.536 33.0727 281.783 33.5767 282.184C34.09 282.586 34.3467 283.127 34.3467 283.808C34.3467 284.312 34.2067 284.751 33.9267 285.124C33.656 285.488 33.2733 285.773 32.7787 285.978C32.284 286.184 31.7007 286.286 31.0287 286.286ZM38.5918 286.048V275.828H39.6558V286.048H38.5918ZM39.3758 281.33V280.364L43.8978 280.35V281.316L39.3758 281.33ZM39.3758 276.78V275.828H44.1638V276.78H39.3758ZM48.8091 286.286C48.1744 286.286 47.6144 286.179 47.1291 285.964C46.6531 285.74 46.2471 285.446 45.9111 285.082C45.5844 284.709 45.3324 284.294 45.1551 283.836C44.9871 283.379 44.9031 282.912 44.9031 282.436V282.24C44.9031 281.764 44.9918 281.298 45.1691 280.84C45.3464 280.374 45.6031 279.958 45.9391 279.594C46.2751 279.23 46.6811 278.941 47.1571 278.726C47.6424 278.502 48.1931 278.39 48.8091 278.39C49.4344 278.39 49.9851 278.502 50.4611 278.726C50.9464 278.941 51.3571 279.23 51.6931 279.594C52.0291 279.958 52.2811 280.374 52.4491 280.84C52.6264 281.298 52.7151 281.764 52.7151 282.24V282.436C52.7151 282.912 52.6311 283.379 52.4631 283.836C52.2951 284.294 52.0431 284.709 51.7071 285.082C51.3804 285.446 50.9744 285.74 50.4891 285.964C50.0038 286.179 49.4438 286.286 48.8091 286.286ZM48.8091 285.348C49.4251 285.348 49.9431 285.213 50.3631 284.942C50.7924 284.662 51.1191 284.298 51.3431 283.85C51.5671 283.393 51.6791 282.889 51.6791 282.338C51.6791 281.778 51.5624 281.274 51.3291 280.826C51.1051 280.369 50.7784 280.01 50.3491 279.748C49.9198 279.478 49.4064 279.342 48.8091 279.342C48.2211 279.342 47.7124 279.478 47.2831 279.748C46.8538 280.01 46.5224 280.369 46.2891 280.826C46.0651 281.274 45.9531 281.778 45.9531 282.338C45.9531 282.889 46.0651 283.393 46.2891 283.85C46.5131 284.298 46.8351 284.662 47.2551 284.942C47.6844 285.213 48.2024 285.348 48.8091 285.348ZM54.2963 286.048V278.642H55.1363V281.736H55.0523C55.0523 280.654 55.2903 279.856 55.7663 279.342C56.2423 278.82 56.989 278.558 58.0063 278.558H58.2443V279.51H57.8103C57.0077 279.51 56.3963 279.72 55.9763 280.14C55.5563 280.551 55.3463 281.158 55.3463 281.96V286.048H54.2963ZM61.9924 286.048V275.828H63.9804V286.048H61.9924ZM63.7004 281.792V280.112L67.7884 280.098V281.778L63.7004 281.792ZM63.7004 277.508V275.828H67.9844V277.508H63.7004ZM71.4054 286.048V277.298H73.3934V286.048H71.4054ZM68.4514 277.578V275.828H76.3474V277.578H68.4514ZM79.2674 286.286C78.2221 286.286 77.4007 286.067 76.8034 285.628C76.2154 285.18 75.9074 284.564 75.8794 283.78H77.6294C77.6574 284.042 77.8021 284.28 78.0634 284.494C78.3247 284.709 78.7354 284.816 79.2954 284.816C79.7621 284.816 80.1307 284.732 80.4014 284.564C80.6814 284.396 80.8214 284.168 80.8214 283.878C80.8214 283.626 80.7141 283.426 80.4994 283.276C80.2941 283.127 79.9394 283.029 79.4354 282.982L78.7634 282.912C77.9141 282.819 77.2607 282.576 76.8034 282.184C76.3461 281.792 76.1174 281.27 76.1174 280.616C76.1174 280.094 76.2481 279.655 76.5094 279.3C76.7707 278.946 77.1301 278.68 77.5874 278.502C78.0541 278.316 78.5861 278.222 79.1834 278.222C80.1167 278.222 80.8727 278.428 81.4514 278.838C82.0301 279.249 82.3334 279.851 82.3614 280.644H80.6114C80.5927 280.383 80.4621 280.159 80.2194 279.972C79.9767 279.786 79.6267 279.692 79.1694 279.692C78.7587 279.692 78.4414 279.772 78.2174 279.93C77.9934 280.089 77.8814 280.294 77.8814 280.546C77.8814 280.789 77.9701 280.976 78.1474 281.106C78.3341 281.237 78.6327 281.326 79.0434 281.372L79.7154 281.442C80.6114 281.536 81.3114 281.783 81.8154 282.184C82.3287 282.586 82.5854 283.127 82.5854 283.808C82.5854 284.312 82.4454 284.751 82.1654 285.124C81.8947 285.488 81.5121 285.773 81.0174 285.978C80.5227 286.184 79.9394 286.286 79.2674 286.286Z" fill="#333333"/>
<path d="M362.937 264.226C362.079 264.226 361.355 264.091 360.767 263.82C360.179 263.54 359.731 263.157 359.423 262.672C359.125 262.177 358.975 261.622 358.975 261.006H360.039C360.039 261.398 360.133 261.767 360.319 262.112C360.515 262.448 360.823 262.723 361.243 262.938C361.673 263.143 362.237 263.246 362.937 263.246C363.581 263.246 364.113 263.153 364.533 262.966C364.963 262.779 365.28 262.527 365.485 262.21C365.7 261.893 365.807 261.538 365.807 261.146C365.807 260.651 365.611 260.241 365.219 259.914C364.837 259.578 364.258 259.377 363.483 259.312L362.307 259.2C361.43 259.125 360.73 258.855 360.207 258.388C359.694 257.912 359.437 257.287 359.437 256.512C359.437 255.924 359.577 255.406 359.857 254.958C360.137 254.51 360.534 254.155 361.047 253.894C361.57 253.633 362.195 253.502 362.923 253.502C363.661 253.502 364.291 253.637 364.813 253.908C365.345 254.169 365.751 254.533 366.031 255C366.311 255.467 366.451 256.008 366.451 256.624H365.387C365.387 256.251 365.303 255.901 365.135 255.574C364.967 255.247 364.701 254.986 364.337 254.79C363.973 254.585 363.502 254.482 362.923 254.482C362.373 254.482 361.915 254.575 361.551 254.762C361.197 254.949 360.931 255.196 360.753 255.504C360.585 255.812 360.501 256.148 360.501 256.512C360.501 256.969 360.665 257.357 360.991 257.674C361.318 257.991 361.789 258.173 362.405 258.22L363.581 258.332C364.272 258.388 364.86 258.542 365.345 258.794C365.84 259.037 366.218 259.359 366.479 259.76C366.741 260.152 366.871 260.614 366.871 261.146C366.871 261.743 366.708 262.275 366.381 262.742C366.064 263.209 365.611 263.573 365.023 263.834C364.435 264.095 363.74 264.226 362.937 264.226ZM370.697 263.988L372.279 256.82H373.749L375.583 263.988H374.673L372.839 256.862H373.175L371.579 263.988H370.697ZM370.095 263.988V263.134H371.369V263.988H370.095ZM369.843 263.988L367.701 256.582H368.709L370.823 263.988H369.843ZM374.911 263.988V263.134H376.157V263.988H374.911ZM375.457 263.988L377.305 256.582H378.271L376.381 263.988H375.457ZM384.112 263.988V261.762H383.944V259.13C383.944 258.579 383.799 258.159 383.51 257.87C383.221 257.571 382.773 257.422 382.166 257.422C381.886 257.422 381.601 257.427 381.312 257.436C381.032 257.445 380.761 257.459 380.5 257.478C380.248 257.487 380.024 257.501 379.828 257.52V256.596C380.033 256.577 380.243 256.559 380.458 256.54C380.673 256.521 380.892 256.512 381.116 256.512C381.349 256.503 381.573 256.498 381.788 256.498C382.544 256.498 383.151 256.591 383.608 256.778C384.075 256.965 384.415 257.259 384.63 257.66C384.845 258.052 384.952 258.575 384.952 259.228V263.988H384.112ZM381.606 264.184C381.083 264.184 380.621 264.091 380.22 263.904C379.819 263.717 379.506 263.447 379.282 263.092C379.067 262.737 378.96 262.308 378.96 261.804C378.96 261.309 379.072 260.889 379.296 260.544C379.529 260.199 379.861 259.937 380.29 259.76C380.729 259.573 381.256 259.48 381.872 259.48H384.042V260.278H381.802C381.214 260.278 380.761 260.423 380.444 260.712C380.136 260.992 379.982 261.361 379.982 261.818C379.982 262.285 380.145 262.658 380.472 262.938C380.799 263.209 381.242 263.344 381.802 263.344C382.147 263.344 382.479 263.283 382.796 263.162C383.113 263.031 383.379 262.817 383.594 262.518C383.809 262.21 383.925 261.79 383.944 261.258L384.252 261.692C384.215 262.243 384.084 262.705 383.86 263.078C383.636 263.442 383.333 263.717 382.95 263.904C382.567 264.091 382.119 264.184 381.606 264.184ZM387.015 266.788V256.582H387.855V259.76L387.603 259.788C387.64 259.041 387.799 258.411 388.079 257.898C388.368 257.385 388.755 256.997 389.241 256.736C389.735 256.465 390.286 256.33 390.893 256.33C391.434 256.33 391.924 256.437 392.363 256.652C392.811 256.857 393.189 257.142 393.497 257.506C393.814 257.861 394.052 258.271 394.211 258.738C394.379 259.195 394.463 259.676 394.463 260.18V260.376C394.463 260.88 394.379 261.365 394.211 261.832C394.043 262.289 393.8 262.7 393.483 263.064C393.175 263.419 392.797 263.703 392.349 263.918C391.91 264.123 391.415 264.226 390.865 264.226C390.277 264.226 389.735 264.095 389.241 263.834C388.755 263.563 388.359 263.167 388.051 262.644C387.752 262.121 387.589 261.477 387.561 260.712L388.065 261.762V266.788H387.015ZM390.725 263.302C391.285 263.302 391.765 263.171 392.167 262.91C392.568 262.639 392.876 262.275 393.091 261.818C393.305 261.351 393.413 260.838 393.413 260.278C393.413 259.699 393.301 259.186 393.077 258.738C392.862 258.281 392.554 257.921 392.153 257.66C391.751 257.389 391.275 257.254 390.725 257.254C390.221 257.254 389.763 257.366 389.353 257.59C388.942 257.814 388.615 258.131 388.373 258.542C388.139 258.943 388.023 259.419 388.023 259.97V260.656C388.023 261.179 388.139 261.641 388.373 262.042C388.615 262.434 388.942 262.742 389.353 262.966C389.763 263.19 390.221 263.302 390.725 263.302ZM338.173 280.988V270.768H340.161V280.988H338.173ZM339.881 276.732V275.052L343.969 275.038V276.718L339.881 276.732ZM339.881 272.448V270.768H344.165V272.448H339.881ZM347.586 280.988V272.238H349.574V280.988H347.586ZM344.632 272.518V270.768H352.528V272.518H344.632ZM355.448 281.226C354.403 281.226 353.581 281.007 352.984 280.568C352.396 280.12 352.088 279.504 352.06 278.72H353.81C353.838 278.981 353.983 279.219 354.244 279.434C354.505 279.649 354.916 279.756 355.476 279.756C355.943 279.756 356.311 279.672 356.582 279.504C356.862 279.336 357.002 279.107 357.002 278.818C357.002 278.566 356.895 278.365 356.68 278.216C356.475 278.067 356.12 277.969 355.616 277.922L354.944 277.852C354.095 277.759 353.441 277.516 352.984 277.124C352.527 276.732 352.298 276.209 352.298 275.556C352.298 275.033 352.429 274.595 352.69 274.24C352.951 273.885 353.311 273.619 353.768 273.442C354.235 273.255 354.767 273.162 355.364 273.162C356.297 273.162 357.053 273.367 357.632 273.778C358.211 274.189 358.514 274.791 358.542 275.584H356.792C356.773 275.323 356.643 275.099 356.4 274.912C356.157 274.725 355.807 274.632 355.35 274.632C354.939 274.632 354.622 274.711 354.398 274.87C354.174 275.029 354.062 275.234 354.062 275.486C354.062 275.729 354.151 275.915 354.328 276.046C354.515 276.177 354.813 276.265 355.224 276.312L355.896 276.382C356.792 276.475 357.492 276.723 357.996 277.124C358.509 277.525 358.766 278.067 358.766 278.748C358.766 279.252 358.626 279.691 358.346 280.064C358.075 280.428 357.693 280.713 357.198 280.918C356.703 281.123 356.12 281.226 355.448 281.226ZM363.011 280.988V270.768H364.075V280.988H363.011ZM363.795 276.27V275.304L368.317 275.29V276.256L363.795 276.27ZM363.795 271.72V270.768H368.583V271.72H363.795ZM373.228 281.226C372.594 281.226 372.034 281.119 371.548 280.904C371.072 280.68 370.666 280.386 370.33 280.022C370.004 279.649 369.752 279.233 369.574 278.776C369.406 278.319 369.322 277.852 369.322 277.376V277.18C369.322 276.704 369.411 276.237 369.588 275.78C369.766 275.313 370.022 274.898 370.358 274.534C370.694 274.17 371.1 273.881 371.576 273.666C372.062 273.442 372.612 273.33 373.228 273.33C373.854 273.33 374.404 273.442 374.88 273.666C375.366 273.881 375.776 274.17 376.112 274.534C376.448 274.898 376.7 275.313 376.868 275.78C377.046 276.237 377.134 276.704 377.134 277.18V277.376C377.134 277.852 377.05 278.319 376.882 278.776C376.714 279.233 376.462 279.649 376.126 280.022C375.8 280.386 375.394 280.68 374.908 280.904C374.423 281.119 373.863 281.226 373.228 281.226ZM373.228 280.288C373.844 280.288 374.362 280.153 374.782 279.882C375.212 279.602 375.538 279.238 375.762 278.79C375.986 278.333 376.098 277.829 376.098 277.278C376.098 276.718 375.982 276.214 375.748 275.766C375.524 275.309 375.198 274.949 374.768 274.688C374.339 274.417 373.826 274.282 373.228 274.282C372.64 274.282 372.132 274.417 371.702 274.688C371.273 274.949 370.942 275.309 370.708 275.766C370.484 276.214 370.372 276.718 370.372 277.278C370.372 277.829 370.484 278.333 370.708 278.79C370.932 279.238 371.254 279.602 371.674 279.882C372.104 280.153 372.622 280.288 373.228 280.288ZM378.716 280.988V273.582H379.556V276.676H379.472C379.472 275.593 379.71 274.795 380.186 274.282C380.662 273.759 381.408 273.498 382.426 273.498H382.664V274.45H382.23C381.427 274.45 380.816 274.66 380.396 275.08C379.976 275.491 379.766 276.097 379.766 276.9V280.988H378.716ZM386.412 280.988V270.768H389.674L393.972 279.336H394.434L394.154 279.588V270.768H396.03V280.988H392.754L388.456 272.42H387.98L388.26 272.168V280.988H386.412ZM397.992 280.988V270.768H399.98V280.988H397.992ZM399.7 276.732V275.052L403.788 275.038V276.718L399.7 276.732ZM399.7 272.448V270.768H403.984V272.448H399.7ZM407.405 280.988V272.238H409.393V280.988H407.405ZM404.451 272.518V270.768H412.347V272.518H404.451ZM415.267 281.226C414.222 281.226 413.401 281.007 412.803 280.568C412.215 280.12 411.907 279.504 411.879 278.72H413.629C413.657 278.981 413.802 279.219 414.063 279.434C414.325 279.649 414.735 279.756 415.295 279.756C415.762 279.756 416.131 279.672 416.401 279.504C416.681 279.336 416.821 279.107 416.821 278.818C416.821 278.566 416.714 278.365 416.499 278.216C416.294 278.067 415.939 277.969 415.435 277.922L414.763 277.852C413.914 277.759 413.261 277.516 412.803 277.124C412.346 276.732 412.117 276.209 412.117 275.556C412.117 275.033 412.248 274.595 412.509 274.24C412.771 273.885 413.13 273.619 413.587 273.442C414.054 273.255 414.586 273.162 415.183 273.162C416.117 273.162 416.873 273.367 417.451 273.778C418.03 274.189 418.333 274.791 418.361 275.584H416.611C416.593 275.323 416.462 275.099 416.219 274.912C415.977 274.725 415.627 274.632 415.169 274.632C414.759 274.632 414.441 274.711 414.217 274.87C413.993 275.029 413.881 275.234 413.881 275.486C413.881 275.729 413.97 275.915 414.147 276.046C414.334 276.177 414.633 276.265 415.043 276.312L415.715 276.382C416.611 276.475 417.311 276.723 417.815 277.124C418.329 277.525 418.585 278.067 418.585 278.748C418.585 279.252 418.445 279.691 418.165 280.064C417.895 280.428 417.512 280.713 417.017 280.918C416.523 281.123 415.939 281.226 415.267 281.226Z" fill="#333333"/>
<path d="M347.58 132.422V122.202H348.644V132.422H347.58ZM348.364 132.422V131.456H353.166V132.422H348.364ZM355.351 128.684V127.746H357.731C358.282 127.746 358.73 127.643 359.075 127.438C359.42 127.223 359.677 126.943 359.845 126.598C360.013 126.243 360.097 125.851 360.097 125.422C360.097 124.983 360.013 124.591 359.845 124.246C359.677 123.891 359.42 123.611 359.075 123.406C358.73 123.2 358.282 123.098 357.731 123.098H355.351V122.16H357.549C358.37 122.16 359.047 122.295 359.579 122.566C360.12 122.836 360.522 123.21 360.783 123.686C361.054 124.162 361.189 124.708 361.189 125.324V125.52C361.189 126.126 361.054 126.672 360.783 127.158C360.522 127.634 360.12 128.007 359.579 128.278C359.047 128.548 358.37 128.684 357.549 128.684H355.351ZM354.567 132.422V122.16H355.631V132.422H354.567ZM367.521 132.422V122.902H368.585V132.422H367.521ZM364.329 123.168V122.202H371.777V123.168H364.329ZM375.422 132.66C374.787 132.66 374.227 132.552 373.742 132.338C373.266 132.114 372.86 131.82 372.524 131.456C372.197 131.082 371.945 130.667 371.768 130.21C371.6 129.752 371.516 129.286 371.516 128.81V128.614C371.516 128.138 371.605 127.671 371.782 127.214C371.959 126.747 372.216 126.332 372.552 125.968C372.888 125.604 373.294 125.314 373.77 125.1C374.255 124.876 374.806 124.764 375.422 124.764C376.047 124.764 376.598 124.876 377.074 125.1C377.559 125.314 377.97 125.604 378.306 125.968C378.642 126.332 378.894 126.747 379.062 127.214C379.239 127.671 379.328 128.138 379.328 128.614V128.81C379.328 129.286 379.244 129.752 379.076 130.21C378.908 130.667 378.656 131.082 378.32 131.456C377.993 131.82 377.587 132.114 377.102 132.338C376.617 132.552 376.057 132.66 375.422 132.66ZM375.422 131.722C376.038 131.722 376.556 131.586 376.976 131.316C377.405 131.036 377.732 130.672 377.956 130.224C378.18 129.766 378.292 129.262 378.292 128.712C378.292 128.152 378.175 127.648 377.942 127.2C377.718 126.742 377.391 126.383 376.962 126.122C376.533 125.851 376.019 125.716 375.422 125.716C374.834 125.716 374.325 125.851 373.896 126.122C373.467 126.383 373.135 126.742 372.902 127.2C372.678 127.648 372.566 128.152 372.566 128.712C372.566 129.262 372.678 129.766 372.902 130.224C373.126 130.672 373.448 131.036 373.868 131.316C374.297 131.586 374.815 131.722 375.422 131.722ZM385.949 132.422L382.967 128.95H381.763L385.277 125.016H386.397L383.247 128.53L383.317 127.956L387.181 132.422H385.949ZM380.909 132.422V122.202H381.959V132.422H380.909ZM390.977 132.66C390.342 132.66 389.791 132.552 389.325 132.338C388.858 132.114 388.475 131.82 388.177 131.456C387.878 131.082 387.654 130.667 387.505 130.21C387.365 129.752 387.295 129.281 387.295 128.796V128.6C387.295 128.124 387.365 127.657 387.505 127.2C387.654 126.742 387.878 126.332 388.177 125.968C388.475 125.604 388.849 125.314 389.297 125.1C389.754 124.876 390.286 124.764 390.893 124.764C391.667 124.764 392.311 124.936 392.825 125.282C393.347 125.627 393.739 126.07 394.001 126.612C394.262 127.144 394.393 127.718 394.393 128.334V128.88H387.771V128.068H393.665L393.399 128.474C393.399 127.923 393.301 127.442 393.105 127.032C392.918 126.612 392.638 126.285 392.265 126.052C391.901 125.809 391.443 125.688 390.893 125.688C390.314 125.688 389.833 125.823 389.451 126.094C389.068 126.364 388.779 126.724 388.583 127.172C388.396 127.62 388.303 128.128 388.303 128.698C388.303 129.258 388.396 129.771 388.583 130.238C388.779 130.695 389.073 131.059 389.465 131.33C389.866 131.6 390.37 131.736 390.977 131.736C391.621 131.736 392.143 131.591 392.545 131.302C392.946 131.003 393.193 130.653 393.287 130.252H394.267C394.173 130.746 393.977 131.176 393.679 131.54C393.38 131.894 393.002 132.17 392.545 132.366C392.087 132.562 391.565 132.66 390.977 132.66ZM395.854 132.422V125.016H396.694V128.124H396.526C396.526 127.433 396.628 126.84 396.834 126.346C397.039 125.851 397.347 125.468 397.758 125.198C398.168 124.927 398.686 124.792 399.312 124.792H399.354C400.287 124.792 400.982 125.086 401.44 125.674C401.897 126.252 402.126 127.069 402.126 128.124V132.422H401.09V127.9C401.09 127.256 400.912 126.738 400.558 126.346C400.203 125.954 399.708 125.758 399.074 125.758C398.42 125.758 397.893 125.963 397.492 126.374C397.1 126.775 396.904 127.307 396.904 127.97V132.422H395.854ZM406.519 132.632C405.567 132.632 404.834 132.426 404.321 132.016C403.807 131.596 403.546 131.036 403.537 130.336H404.517C404.535 130.69 404.694 131.012 404.993 131.302C405.301 131.591 405.809 131.736 406.519 131.736C407.181 131.736 407.676 131.6 408.003 131.33C408.339 131.05 408.507 130.714 408.507 130.322C408.507 129.958 408.367 129.678 408.087 129.482C407.816 129.276 407.419 129.146 406.897 129.09L406.057 129.006C405.385 128.931 404.839 128.726 404.419 128.39C404.008 128.044 403.803 127.573 403.803 126.976C403.803 126.537 403.915 126.154 404.139 125.828C404.363 125.501 404.675 125.249 405.077 125.072C405.487 124.885 405.968 124.792 406.519 124.792C407.312 124.792 407.956 124.978 408.451 125.352C408.955 125.725 409.211 126.257 409.221 126.948H408.241C408.231 126.593 408.082 126.294 407.793 126.052C407.503 125.809 407.079 125.688 406.519 125.688C405.94 125.688 405.506 125.814 405.217 126.066C404.937 126.318 404.797 126.626 404.797 126.99C404.797 127.298 404.904 127.554 405.119 127.76C405.333 127.956 405.669 128.077 406.127 128.124L406.967 128.208C407.713 128.292 408.32 128.506 408.787 128.852C409.263 129.197 409.501 129.692 409.501 130.336C409.501 130.774 409.375 131.171 409.123 131.526C408.88 131.871 408.535 132.142 408.087 132.338C407.639 132.534 407.116 132.632 406.519 132.632Z" fill="#333333"/>
</svg>
