<svg width="100" height="100" viewBox="0 0 100 100" fill="none" xmlns="http://www.w3.org/2000/svg">
<path fill-rule="evenodd" clip-rule="evenodd" d="M58.3287 42.595V53.4557C58.3287 55.6369 56.5605 57.4051 54.3794 57.4051H41.5439V46.5443C41.5439 44.3632 43.3121 42.595 45.4933 42.595H58.3287Z" fill="#5FADDE"/>
<path fill-rule="evenodd" clip-rule="evenodd" d="M82.6308 42.595H58.3287V53.4557C58.3287 55.6369 56.5605 57.4051 54.3794 57.4051H41.5439V83.6819C41.5439 86.619 43.925 89 46.8621 89H82.6308C85.5679 89 87.9489 86.619 87.9489 83.6819V47.9131C87.9489 44.976 85.5679 42.595 82.6308 42.595Z" fill="#C7B7FF"/>
<path fill-rule="evenodd" clip-rule="evenodd" d="M17.242 11C14.3049 11 11.9238 13.381 11.9238 16.3182V52.0869C11.9238 55.024 14.3049 57.4051 17.242 57.4051H41.544V46.5443C41.544 44.3631 43.3122 42.5949 45.4934 42.5949H58.3288V52.1072C58.3288 52.1005 58.3288 52.0937 58.3288 52.0869V16.3182C58.3288 13.381 55.9478 11 53.0106 11H17.242Z" fill="#97F5DE"/>
<path d="M34.0404 35.6836C34.0404 36.5561 34.7476 37.2633 35.6201 37.2633C36.4926 37.2633 37.1999 36.5561 37.1999 35.6836C37.1999 34.8111 36.4926 34.1038 35.6201 34.1038C34.7476 34.1038 34.0404 34.8111 34.0404 35.6836ZM62.6732 64.3165C62.6732 65.189 63.3805 65.8963 64.253 65.8963C65.1255 65.8963 65.8327 65.189 65.8327 64.3165C65.8327 63.444 65.1255 62.7368 64.253 62.7368C63.3805 62.7368 62.6732 63.444 62.6732 64.3165ZM35.4107 35.893L35.7089 36.1913L36.1278 35.7724L35.8296 35.4741L35.4107 35.893ZM36.902 37.3843L37.4985 37.9809L37.9174 37.562L37.3209 36.9654L36.902 37.3843ZM38.6915 39.1739L39.288 39.7704L39.7069 39.3515L39.1104 38.755L38.6915 39.1739ZM40.4811 40.9635L41.0776 41.56L41.4965 41.1411L40.9 40.5446L40.4811 40.9635ZM42.2706 42.753L42.8671 43.3495L43.286 42.9306L42.6895 42.3341L42.2706 42.753ZM44.0602 44.5426L44.6567 45.1391L45.0756 44.7202L44.4791 44.1237L44.0602 44.5426ZM45.8497 46.3321L46.4463 46.9286L46.8652 46.5097L46.2686 45.9132L45.8497 46.3321ZM47.6393 48.1217L48.2358 48.7182L48.6547 48.2993L48.0582 47.7028L47.6393 48.1217ZM49.4288 49.9112L50.0254 50.5078L50.4443 50.0889L49.8477 49.4923L49.4288 49.9112ZM51.2184 51.7008L51.8149 52.2973L52.2338 51.8784L51.6373 51.2819L51.2184 51.7008ZM53.008 53.4904L53.6045 54.0869L54.0234 53.668L53.4269 53.0715L53.008 53.4904ZM54.7975 55.2799L55.394 55.8764L55.8129 55.4575L55.2164 54.861L54.7975 55.2799ZM56.5871 57.0695L57.1836 57.666L57.6025 57.2471L57.006 56.6506L56.5871 57.0695ZM58.3766 58.859L58.9731 59.4555L59.392 59.0367L58.7955 58.4401L58.3766 58.859ZM60.1662 60.6486L60.7627 61.2451L61.1816 60.8262L60.5851 60.2297L60.1662 60.6486ZM61.9557 62.4381L62.5523 63.0347L62.9711 62.6158L62.3746 62.0192L61.9557 62.4381ZM63.7453 64.2277L64.0435 64.526L64.4624 64.1071L64.1642 63.8088L63.7453 64.2277Z" fill="black"/>
<path d="M26.966 27.0296H72.9067V72.9704H26.966V27.0296Z" stroke="black" stroke-width="0.464286"/>
<ellipse cx="73.2097" cy="26.7857" rx="1.85714" ry="1.85714" fill="#252525"/>
<ellipse cx="26.781" cy="72.2857" rx="1.85714" ry="1.85714" fill="#252525"/>
</svg>
