<svg width="48" height="48" viewBox="0 0 48 48" fill="none" xmlns="http://www.w3.org/2000/svg">
<g clip-path="url(#clip0_27_1960)">
<g filter="url(#filter0_f_27_1960)">
<rect width="27.9562" height="21.5369" rx="10.7685" transform="matrix(-0.999997 -0.00231034 -0.00231034 0.999997 38.0059 5.52771)" fill="#97F5DE"/>
</g>
<path d="M18.5878 23.8105L18.5877 23.8106C17.7077 24.4215 16.5557 24.1123 16.0153 23.1283L16.0152 23.1281C15.8321 22.791 15.7367 22.4133 15.7378 22.0297M18.5878 23.8105L15.7778 22.0299M18.5878 23.8105L24.0001 20.0218L29.4014 23.7728C29.4014 23.7728 29.4015 23.7728 29.4015 23.7729C29.6988 23.9823 30.0432 24.094 30.395 24.094C31.4305 24.094 32.2622 23.1521 32.2622 21.9998V6.79772M18.5878 23.8105L15.7378 6.75772M15.7378 22.0297L15.7778 22.0299M15.7378 22.0297V22.0299H15.7778M15.7378 22.0297V6.79772M15.7778 22.0299V6.79772H15.7378M15.7378 6.79772H9.40556C9.1981 6.79772 8.99914 6.88013 8.85244 7.02682C8.70575 7.17352 8.62333 7.37248 8.62333 7.57994V40.6552C8.62333 40.8627 8.70575 41.0616 8.85244 41.2083C8.99914 41.355 9.1981 41.4374 9.40556 41.4374H38.5944C38.8019 41.4374 39.0009 41.355 39.1476 41.2083C39.2943 41.0616 39.3767 40.8627 39.3767 40.6552V7.57994C39.3767 7.37248 39.2943 7.17352 39.1476 7.02682C39.0009 6.88013 38.8019 6.79772 38.5944 6.79772H32.2622M15.7378 6.79772V6.75772M15.7378 6.75772H9.40556C9.18749 6.75772 8.97835 6.84434 8.82416 6.99854C8.66996 7.15274 8.58333 7.36187 8.58333 7.57994V40.6552C8.58333 40.8733 8.66996 41.0824 8.82416 41.2366C8.97835 41.3908 9.18749 41.4774 9.40556 41.4774H38.5944C38.8125 41.4774 39.0216 41.3908 39.1758 41.2366C39.33 41.0824 39.4167 40.8733 39.4167 40.6552V7.57994C39.4167 7.36187 39.33 7.15274 39.1758 6.99854C39.0216 6.84434 38.8125 6.75772 38.5944 6.75772H32.2622V6.79772M15.7378 6.75772L32.2622 6.79772M23.9083 16.3662L23.8866 16.3527L23.8653 16.3666L18.9011 19.6085V6.7899H29.0989V19.6007L23.9083 16.3662ZM38.3889 3.48844H9.61111C7.31845 3.48844 5.46 5.3471 5.46 7.63955V40.5284C5.46 42.821 7.31845 44.6795 9.61111 44.6795H38.3889C40.6815 44.6795 42.54 42.821 42.54 40.5284V7.63955C42.54 5.3471 40.6815 3.48844 38.3889 3.48844Z" fill="#333333" stroke="#252525" stroke-width="0.08"/>
</g>
<defs>
<filter id="filter0_f_27_1960" x="2.02487" y="-2.51208" width="43.9562" height="37.5519" filterUnits="userSpaceOnUse" color-interpolation-filters="sRGB">
<feFlood flood-opacity="0" result="BackgroundImageFix"/>
<feBlend mode="normal" in="SourceGraphic" in2="BackgroundImageFix" result="shape"/>
<feGaussianBlur stdDeviation="4" result="effect1_foregroundBlur_27_1960"/>
</filter>
<clipPath id="clip0_27_1960">
<rect width="48" height="48" fill="white"/>
</clipPath>
</defs>
</svg>
