
<svg xmlns="http://www.w3.org/2000/svg" width="48" height="48" viewBox="0 0 48 48" fill="none">
  <g clip-path="url(#clip0_98_2095)">
    <g filter="url(#filter0_f_98_2095)">
      <ellipse cx="30.5" cy="18.5" rx="11.5" ry="12.5" fill="#97F5DE"/>
    </g>
    <mask id="path-2-outside-1_98_2095" maskUnits="userSpaceOnUse" x="2.04102" y="2.06659" width="44" height="44" fill="black">
      <rect fill="white" x="2.04102" y="2.06659" width="44" height="44"/>
      <path fill-rule="evenodd" clip-rule="evenodd" d="M27.9428 21.0042H44.0364C44.5454 21.0042 44.9584 20.5913 44.9579 20.0817V19.5038C44.9579 17.2857 44.5229 15.1327 43.6656 13.1053C42.8373 11.1478 41.6523 9.39003 40.1434 7.88112C38.6345 6.37175 36.8767 5.18675 34.9192 4.35893C32.8918 3.50159 30.7393 3.06659 28.5208 3.06659H27.9428C27.4333 3.06659 27.0208 3.47956 27.0208 3.98862V20.0822C27.0208 20.5917 27.4337 21.0042 27.9428 21.0042ZM41.8754 18.0042H30.0212V6.15003C36.235 6.84331 41.1822 11.791 41.8754 18.0042ZM14.9266 43.4672C17.3266 44.4825 19.8757 44.9972 22.5021 44.9972C25.1285 44.9972 27.6776 44.4825 30.0776 43.4672C32.3955 42.487 34.4763 41.0841 36.2632 39.2972C38.0501 37.5103 39.453 35.4291 40.4332 33.1116C41.4485 30.7116 41.9632 28.1625 41.9632 25.5361V24.9581C41.9632 24.4486 41.5502 24.0361 41.0412 24.0361H24.0021V6.99704C24.0021 6.48751 23.5891 6.07501 23.0801 6.07501H22.5021C19.8757 6.07501 17.3266 6.5897 14.9266 7.60501C12.6087 8.58517 10.5279 9.98814 8.74102 11.775C6.95414 13.5619 5.55117 15.6431 4.57102 17.9606C3.5557 20.3606 3.04102 22.9097 3.04102 25.5361C3.04102 28.1625 3.5557 30.7116 4.57102 33.1116C5.55117 35.4295 6.95414 37.5103 8.74102 39.2972C10.5279 41.0841 12.6091 42.487 14.9266 43.4672ZM6.04102 25.5361C6.04102 16.9655 12.626 9.90329 21.0021 9.14298V27.0361H38.8952C38.1349 35.4122 31.0727 41.9972 22.5021 41.9972C13.4252 41.9972 6.04102 34.6125 6.04102 25.5361Z"/>
    </mask>
    <path fill-rule="evenodd" clip-rule="evenodd" d="M27.9428 21.0042H44.0364C44.5454 21.0042 44.9584 20.5913 44.9579 20.0817V19.5038C44.9579 17.2857 44.5229 15.1327 43.6656 13.1053C42.8373 11.1478 41.6523 9.39003 40.1434 7.88112C38.6345 6.37175 36.8767 5.18675 34.9192 4.35893C32.8918 3.50159 30.7393 3.06659 28.5208 3.06659H27.9428C27.4333 3.06659 27.0208 3.47956 27.0208 3.98862V20.0822C27.0208 20.5917 27.4337 21.0042 27.9428 21.0042ZM41.8754 18.0042H30.0212V6.15003C36.235 6.84331 41.1822 11.791 41.8754 18.0042ZM14.9266 43.4672C17.3266 44.4825 19.8757 44.9972 22.5021 44.9972C25.1285 44.9972 27.6776 44.4825 30.0776 43.4672C32.3955 42.487 34.4763 41.0841 36.2632 39.2972C38.0501 37.5103 39.453 35.4291 40.4332 33.1116C41.4485 30.7116 41.9632 28.1625 41.9632 25.5361V24.9581C41.9632 24.4486 41.5502 24.0361 41.0412 24.0361H24.0021V6.99704C24.0021 6.48751 23.5891 6.07501 23.0801 6.07501H22.5021C19.8757 6.07501 17.3266 6.5897 14.9266 7.60501C12.6087 8.58517 10.5279 9.98814 8.74102 11.775C6.95414 13.5619 5.55117 15.6431 4.57102 17.9606C3.5557 20.3606 3.04102 22.9097 3.04102 25.5361C3.04102 28.1625 3.5557 30.7116 4.57102 33.1116C5.55117 35.4295 6.95414 37.5103 8.74102 39.2972C10.5279 41.0841 12.6091 42.487 14.9266 43.4672ZM6.04102 25.5361C6.04102 16.9655 12.626 9.90329 21.0021 9.14298V27.0361H38.8952C38.1349 35.4122 31.0727 41.9972 22.5021 41.9972C13.4252 41.9972 6.04102 34.6125 6.04102 25.5361Z" fill="#252525"/>
    <path d="M44.9579 20.0817H44.8579V20.0818L44.9579 20.0817ZM43.6656 13.1053L43.7577 13.0664L43.7577 13.0664L43.6656 13.1053ZM40.1434 7.88112L40.0727 7.95182L40.0727 7.95183L40.1434 7.88112ZM34.9192 4.35893L34.9581 4.26683V4.26683L34.9192 4.35893ZM30.0212 18.0042H29.9212V18.1042H30.0212V18.0042ZM41.8754 18.0042V18.1042H41.9872L41.9748 17.9932L41.8754 18.0042ZM30.0212 6.15003L30.0323 6.05064L29.9212 6.03825V6.15003H30.0212ZM14.9266 43.4672L14.9656 43.3751L14.9656 43.3751L14.9266 43.4672ZM30.0776 43.4672L30.0386 43.3751L30.0386 43.3751L30.0776 43.4672ZM36.2632 39.2972L36.3339 39.3679L36.2632 39.2972ZM40.4332 33.1116L40.3411 33.0726L40.3411 33.0726L40.4332 33.1116ZM24.0021 24.0361H23.9021V24.1361H24.0021V24.0361ZM14.9266 7.60501L14.9656 7.69712L14.9656 7.69711L14.9266 7.60501ZM8.74102 11.775L8.67031 11.7043L8.74102 11.775ZM4.57102 17.9606L4.66311 17.9996L4.66312 17.9996L4.57102 17.9606ZM4.57102 33.1116L4.66312 33.0726L4.66311 33.0726L4.57102 33.1116ZM8.74102 39.2972L8.67031 39.3679L8.74102 39.2972ZM21.0021 9.14298H21.1021V9.03349L20.9931 9.04339L21.0021 9.14298ZM21.0021 27.0361H20.9021V27.1361H21.0021V27.0361ZM38.8952 27.0361L38.9948 27.0451L39.0047 26.9361H38.8952V27.0361ZM44.0364 20.9042H27.9428V21.1042H44.0364V20.9042ZM44.8579 20.0818C44.8584 20.5361 44.4902 20.9042 44.0364 20.9042V21.1042C44.6007 21.1042 45.0585 20.6465 45.0579 20.0817L44.8579 20.0818ZM44.8579 19.5038V20.0817H45.0579V19.5038H44.8579ZM43.5735 13.1443C44.4256 15.1592 44.8579 17.2989 44.8579 19.5038H45.0579C45.0579 17.2724 44.6203 15.1061 43.7577 13.0664L43.5735 13.1443ZM40.0727 7.95183C41.5725 9.45167 42.7503 11.1987 43.5735 13.1443L43.7577 13.0664C42.9244 11.097 41.7321 9.32839 40.2141 7.81041L40.0727 7.95183ZM34.8802 4.45104C36.8258 5.27381 38.5729 6.45153 40.0727 7.95182L40.2141 7.81042C38.6961 6.29197 36.9276 5.09968 34.9581 4.26683L34.8802 4.45104ZM28.5208 3.16659C30.7261 3.16659 32.8653 3.59894 34.8802 4.45104L34.9581 4.26683C32.9184 3.40424 30.7526 2.96659 28.5208 2.96659V3.16659ZM27.9428 3.16659H28.5208V2.96659H27.9428V3.16659ZM27.1208 3.98862C27.1208 3.53475 27.4885 3.16659 27.9428 3.16659V2.96659C27.378 2.96659 26.9208 3.42436 26.9208 3.98862H27.1208ZM27.1208 20.0822V3.98862H26.9208V20.0822H27.1208ZM27.9428 20.9042C27.4889 20.9042 27.1208 20.5365 27.1208 20.0822H26.9208C26.9208 20.647 27.3785 21.1042 27.9428 21.1042V20.9042ZM30.0212 18.1042H41.8754V17.9042H30.0212V18.1042ZM29.9212 6.15003V18.0042H30.1212V6.15003H29.9212ZM41.9748 17.9932C41.2764 11.7334 36.2925 6.74911 30.0323 6.05064L30.0101 6.24941C36.1774 6.93751 41.088 11.8485 41.7761 18.0153L41.9748 17.9932ZM22.5021 44.8972C19.889 44.8972 17.3532 44.3852 14.9656 43.3751L14.8877 43.5593C17.3001 44.5799 19.8624 45.0972 22.5021 45.0972V44.8972ZM30.0386 43.3751C27.651 44.3852 25.1152 44.8972 22.5021 44.8972V45.0972C25.1418 45.0972 27.7041 44.5799 30.1165 43.5593L30.0386 43.3751ZM36.1925 39.2265C34.4147 41.0043 32.3447 42.4 30.0386 43.3751L30.1165 43.5593C32.4464 42.5741 34.538 41.1639 36.3339 39.3679L36.1925 39.2265ZM40.3411 33.0726C39.366 35.3782 37.9703 37.4487 36.1925 39.2265L36.3339 39.3679C38.1299 37.572 39.5401 35.4799 40.5253 33.1505L40.3411 33.0726ZM41.8632 25.5361C41.8632 28.1492 41.3512 30.685 40.3411 33.0726L40.5253 33.1505C41.5459 30.7381 42.0632 28.1758 42.0632 25.5361H41.8632ZM41.8632 24.9581V25.5361H42.0632V24.9581H41.8632ZM41.0412 24.1361C41.495 24.1361 41.8632 24.5039 41.8632 24.9581H42.0632C42.0632 24.3933 41.6054 23.9361 41.0412 23.9361V24.1361ZM24.0021 24.1361H41.0412V23.9361H24.0021V24.1361ZM23.9021 6.99704V24.0361H24.1021V6.99704H23.9021ZM23.0801 6.17501C23.5339 6.17501 23.9021 6.54277 23.9021 6.99704H24.1021C24.1021 6.43225 23.6443 5.97501 23.0801 5.97501V6.17501ZM22.5021 6.17501H23.0801V5.97501H22.5021V6.17501ZM14.9656 7.69711C17.3532 6.68706 19.889 6.17501 22.5021 6.17501V5.97501C19.8624 5.97501 17.3001 6.49234 14.8877 7.51291L14.9656 7.69711ZM8.81173 11.8457C10.5895 10.0679 12.6595 8.67223 14.9656 7.69712L14.8877 7.51291C12.5578 8.49811 10.4662 9.90836 8.67031 11.7043L8.81173 11.8457ZM4.66312 17.9996C5.63823 15.694 7.03392 13.6235 8.81173 11.8457L8.67031 11.7043C6.87436 13.5002 5.46411 15.5923 4.47891 17.9217L4.66312 17.9996ZM3.14102 25.5361C3.14102 22.923 3.65306 20.3872 4.66311 17.9996L4.47892 17.9217C3.45835 20.3341 2.94102 22.8964 2.94102 25.5361H3.14102ZM4.66311 33.0726C3.65306 30.685 3.14102 28.1492 3.14102 25.5361H2.94102C2.94102 28.1758 3.45835 30.7381 4.47892 33.1505L4.66311 33.0726ZM8.81173 39.2265C7.03392 37.4487 5.63823 35.3787 4.66312 33.0726L4.47891 33.1505C5.46411 35.4804 6.87436 37.572 8.67031 39.3679L8.81173 39.2265ZM14.9656 43.3751C12.66 42.4 10.5895 41.0043 8.81173 39.2265L8.67031 39.3679C10.4663 41.1639 12.5583 42.5741 14.8877 43.5593L14.9656 43.3751ZM20.9931 9.04339C12.566 9.80833 5.94102 16.9132 5.94102 25.5361H6.14102C6.14102 17.0177 12.6861 9.99825 21.0112 9.24257L20.9931 9.04339ZM21.1021 27.0361V9.14298H20.9021V27.0361H21.1021ZM38.8952 26.9361H21.0021V27.1361H38.8952V26.9361ZM22.5021 42.0972C31.125 42.0972 38.2299 35.4722 38.9948 27.0451L38.7956 27.0271C38.04 35.3522 31.0205 41.8972 22.5021 41.8972V42.0972ZM5.94102 25.5361C5.94102 34.6677 13.37 42.0972 22.5021 42.0972V41.8972C13.4805 41.8972 6.14102 34.5573 6.14102 25.5361H5.94102Z" fill="#252525" mask="url(#path-2-outside-1_98_2095)"/>
  </g>
  <defs>
    <filter id="filter0_f_98_2095" x="11" y="-2" width="39" height="41" filterUnits="userSpaceOnUse" color-interpolation-filters="sRGB">
      <feFlood flood-opacity="0" result="BackgroundImageFix"/>
      <feBlend mode="normal" in="SourceGraphic" in2="BackgroundImageFix" result="shape"/>
      <feGaussianBlur stdDeviation="4" result="effect1_foregroundBlur_98_2095"/>
    </filter>
    <clipPath id="clip0_98_2095">
      <rect width="48" height="48" fill="white"/>
    </clipPath>
  </defs>
</svg>