<svg width="48" height="48" viewBox="0 0 48 48" fill="none" xmlns="http://www.w3.org/2000/svg">
<g clip-path="url(#clip0_159_621)">
<g filter="url(#filter0_f_159_621)">
<rect width="27.9562" height="21.5369" rx="10.7685" transform="matrix(-0.999997 -0.00231034 -0.00231034 0.999997 38.0059 5.52783)" fill="#9DC5FF"/>
</g>
<path d="M18.5878 23.8106L18.5877 23.8107C17.7077 24.4216 16.5557 24.1124 16.0153 23.1284L16.0152 23.1282C15.8321 22.7912 15.7367 22.4135 15.7378 22.0299M18.5878 23.8106L15.7778 22.03M18.5878 23.8106L24.0001 20.022L29.4014 23.7729C29.4014 23.7729 29.4015 23.773 29.4015 23.773C29.6988 23.9824 30.0432 24.0941 30.395 24.0941C31.4305 24.0941 32.2622 23.1522 32.2622 22V6.79784M18.5878 23.8106L15.7378 6.75784M15.7378 22.0299L15.7778 22.03M15.7378 22.0299V22.03H15.7778M15.7378 22.0299V6.79784M15.7778 22.03V6.79784H15.7378M15.7378 6.79784H9.40556C9.1981 6.79784 8.99914 6.88025 8.85244 7.02695C8.70575 7.17364 8.62333 7.3726 8.62333 7.58006V40.6553C8.62333 40.8628 8.70575 41.0618 8.85244 41.2085C8.99914 41.3551 9.1981 41.4376 9.40556 41.4376H38.5944C38.8019 41.4376 39.0009 41.3551 39.1476 41.2085C39.2943 41.0618 39.3767 40.8628 39.3767 40.6553V7.58006C39.3767 7.3726 39.2943 7.17364 39.1476 7.02695C39.0009 6.88025 38.8019 6.79784 38.5944 6.79784H32.2622M15.7378 6.79784V6.75784M15.7378 6.75784H9.40556C9.18749 6.75784 8.97835 6.84446 8.82416 6.99866C8.66996 7.15286 8.58333 7.36199 8.58333 7.58006V40.6553C8.58333 40.8734 8.66996 41.0825 8.82416 41.2367C8.97835 41.3909 9.18749 41.4776 9.40556 41.4776H38.5944C38.8125 41.4776 39.0216 41.3909 39.1758 41.2367C39.33 41.0825 39.4167 40.8734 39.4167 40.6553V7.58006C39.4167 7.36199 39.33 7.15286 39.1758 6.99866C39.0216 6.84446 38.8125 6.75784 38.5944 6.75784H32.2622V6.79784M15.7378 6.75784L32.2622 6.79784M23.9083 16.3663L23.8866 16.3528L23.8653 16.3667L18.9011 19.6086V6.79003H29.0989V19.6008L23.9083 16.3663ZM38.3889 3.48856H9.61111C7.31845 3.48856 5.46 5.34722 5.46 7.63967V40.5285C5.46 42.8212 7.31845 44.6796 9.61111 44.6796H38.3889C40.6815 44.6796 42.54 42.8212 42.54 40.5285V7.63967C42.54 5.34722 40.6815 3.48856 38.3889 3.48856Z" fill="#333333" stroke="#252525" stroke-width="0.08"/>
</g>
<defs>
<filter id="filter0_f_159_621" x="2.0249" y="-2.51196" width="43.9561" height="37.5518" filterUnits="userSpaceOnUse" color-interpolation-filters="sRGB">
<feFlood flood-opacity="0" result="BackgroundImageFix"/>
<feBlend mode="normal" in="SourceGraphic" in2="BackgroundImageFix" result="shape"/>
<feGaussianBlur stdDeviation="4" result="effect1_foregroundBlur_159_621"/>
</filter>
<clipPath id="clip0_159_621">
<rect width="48" height="48" fill="white"/>
</clipPath>
</defs>
</svg>
