<svg width="100" height="100" viewBox="0 0 100 100" fill="none" xmlns="http://www.w3.org/2000/svg">
<path d="M29.5249 18.3912C29.5249 19.4931 29.3078 20.5842 28.8861 21.6023C28.4644 22.6203 27.8463 23.5454 27.0672 24.3246C26.288 25.1037 25.3629 25.7218 24.3449 26.1435C23.3268 26.5652 22.2357 26.7822 21.1338 26.7822C20.0318 26.7822 18.9407 26.5652 17.9226 26.1435C16.9046 25.7218 15.9796 25.1037 15.2004 24.3246C14.4212 23.5454 13.8031 22.6203 13.3814 21.6023C12.9597 20.5842 12.7427 19.4931 12.7427 18.3912C12.7427 16.1657 13.6267 14.0314 15.2004 12.4578C16.774 10.8841 18.9083 10.0001 21.1338 10.0001C23.3592 10.0001 25.4935 10.8841 27.0672 12.4578C28.6408 14.0314 29.5249 16.1657 29.5249 18.3912Z" fill="#97F5DE"/>
<path d="M45.5376 29.5645C45.5492 30.2763 45.4191 30.9833 45.1547 31.6443C44.8904 32.3053 44.4971 32.9071 43.9979 33.4146C43.4986 33.9221 42.9033 34.3252 42.2467 34.6003C41.5901 34.8754 40.8853 35.0171 40.1734 35.0171C39.4615 35.0171 38.7567 34.8754 38.1001 34.6003C37.4436 34.3252 36.8483 33.9221 36.349 33.4146C35.8498 32.9071 35.4565 32.3053 35.1921 31.6443C34.9278 30.9833 34.7977 30.2763 34.8093 29.5645C34.8323 28.157 35.4076 26.815 36.4111 25.8278C37.4145 24.8407 38.7658 24.2874 40.1734 24.2874C41.5811 24.2874 42.9323 24.8407 43.9358 25.8278C44.9393 26.815 45.5145 28.157 45.5376 29.5645Z" fill="#84B7FF"/>
<path d="M40.174 36.8114C38.5155 36.8108 36.8815 37.2123 35.4121 37.9814C36.6352 40.298 37.2729 42.8786 37.2698 45.4982V50.0146H47.6004C49.1968 50.0146 50.4902 48.7226 50.4902 47.1291C50.4904 45.7742 50.2237 44.4326 49.7054 43.1808C49.187 41.929 48.4272 40.7916 47.4692 39.8335C46.5112 38.8754 45.3739 38.1153 44.1222 37.5968C42.8705 37.0783 41.5289 36.8114 40.174 36.8114Z" fill="#84B7FF"/>
<path d="M35.4118 37.9814C33.738 38.8516 32.3351 40.1644 31.356 41.7769C30.3769 43.3894 29.859 45.2397 29.8589 47.1262V50.016H37.2695V45.4982C37.2695 42.7835 36.5947 40.2267 35.4118 37.9828" fill="#1CADDE"/>
<path fill-rule="evenodd" clip-rule="evenodd" d="M29.4736 31.6843C31.9898 33.2031 34.0432 35.3805 35.412 37.9814C33.7382 38.8516 32.3353 40.1644 31.3562 41.7769C30.3771 43.3894 29.8592 45.2397 29.8591 47.1262V50.016H12.4122V47.1276C12.4121 45.2409 11.8942 43.3905 10.9147 41.778C10.5951 41.2517 10.2302 40.7573 9.82559 40.2998C10.2298 40.757 10.5942 41.251 10.9135 41.7769C11.8926 43.3894 12.4105 45.2397 12.4106 47.1261V50.016H5.00001V45.4982C4.99663 42.8785 5.63441 40.2979 6.85768 37.9814C6.85794 37.9815 6.8582 37.9816 6.85846 37.9818C8.22722 35.3812 10.2804 33.204 12.7962 31.6851C15.3124 30.166 18.1958 29.3632 21.135 29.3635C24.074 29.3629 26.9574 30.1654 29.4736 31.6843Z" fill="#97F5DE"/>
<path d="M75.9361 51.9908C76.6679 51.5688 77.4979 51.3466 78.3427 51.3466C79.1875 51.3466 80.0174 51.5688 80.7492 51.9908L93.0075 58.9953C93.7405 59.4175 94.3494 60.0251 94.7731 60.7572C95.1968 61.4893 95.4203 62.32 95.4213 63.1658V77.1809C95.4213 78.9006 94.5027 80.4885 93.0116 81.3473L93.0075 81.3514L80.7492 88.3559C80.0174 88.7779 79.1875 89.0001 78.3427 89.0001C77.4979 89.0001 76.6679 88.7779 75.9361 88.3559L63.6799 81.3514C62.9469 80.9292 62.338 80.3216 61.9143 79.5895C61.4906 78.8574 61.2671 78.0267 61.2661 77.1809V63.1658C61.2661 61.4461 62.1867 59.8582 63.6758 58.9994L63.6799 58.9953L75.9361 51.9908ZM93.9096 60.6861C93.8231 60.5368 93.708 60.406 93.5709 60.3012C93.4338 60.1964 93.2774 60.1196 93.1106 60.0752C92.9438 60.0309 92.77 60.0198 92.5989 60.0426C92.4279 60.0655 92.263 60.1218 92.1137 60.2083L78.354 68.1643L64.5943 60.2104C64.2928 60.0356 63.9342 59.9877 63.5974 60.0773C63.2606 60.167 62.9732 60.3867 62.7984 60.6882C62.6236 60.9897 62.5758 61.3483 62.6654 61.6851C62.755 62.0219 62.9747 62.3093 63.2762 62.4841L77.0277 70.4359V87.1593C77.0277 87.8595 77.6167 88.428 78.3437 88.428C78.6858 88.4335 79.0162 88.303 79.2622 88.0651C79.5081 87.8272 79.6497 87.5014 79.6556 87.1593V70.4462L93.4297 62.482C93.6993 62.3259 93.9047 62.0791 94.0092 61.7856C94.1137 61.4922 94.1105 61.1711 94.0002 60.8797L93.9096 60.6861Z" fill="#C7B7FF"/>
<path d="M54.7588 24.7136H78.1858V42.9346" stroke="black" stroke-width="0.5"/>
<circle cx="54.7588" cy="24.7136" r="2" fill="#252525"/>
<ellipse cx="78.186" cy="44.2361" rx="2" ry="1.99998" fill="#252525"/>
<path d="M52.1558 77.3766H28.7288V55.2511" stroke="black" stroke-width="0.5"/>
<ellipse cx="28.7285" cy="56.8541" rx="2" ry="1.99998" fill="#252525"/>
<ellipse cx="53.457" cy="77.3766" rx="2" ry="1.99998" fill="#252525"/>
</svg>
