<svg width="449" height="626" viewBox="0 0 449 626" fill="none" xmlns="http://www.w3.org/2000/svg">
<path d="M398.28 488.288L333.365 580.668L404.938 570.681L398.28 488.288Z" stroke="#CCCCCC" stroke-width="0.401072" stroke-miterlimit="10"/>
<path d="M465.692 637.26L404.938 570.681L369.152 611.461L297.162 549.458V677.624L109.074 587.742L104.913 660.979L225.589 643.502L233.911 583.58L294.665 549.458L398.696 488.704L257.214 469.563" stroke="#CCCCCC" stroke-width="0.401072" stroke-miterlimit="10"/>
<path d="M170.66 526.988L172.408 586.044L225.588 643.502L297.994 639.341" stroke="#CCCCCC" stroke-width="0.401072" stroke-miterlimit="10"/>
<path d="M104.913 660.979L166 614.948L181.447 649.894" stroke="#CCCCCC" stroke-width="0.401072" stroke-miterlimit="10"/>
<path d="M165.667 615.206L172.325 586.077" stroke="#CCCCCC" stroke-width="0.401072" stroke-miterlimit="10"/>
<path d="M348.761 328.913L409.099 343.477L465.276 553.62" stroke="#808080" stroke-width="0.401072" stroke-miterlimit="10"/>
<path d="M412.012 396.325L465.692 400.07L407.435 342.645L412.428 396.741L398.28 489.12L384.132 404.231L350.01 329.329L257.63 469.979L234.328 583.997L108.658 588.158L170.244 527.404L296.746 639.757L333.365 580.668L404.938 570.681L465.692 554.036L399.112 489.12L300.816 404.231H384.132L412.428 396.741L349.178 329.329" stroke="#808080" stroke-width="0.401072" stroke-miterlimit="10"/>
<path d="M465.276 401.318L397.864 487.872" stroke="#808080" stroke-width="0.401072" stroke-miterlimit="10"/>
<path d="M404.522 571.929L362.343 539.421L465.276 553.62L440.55 609.705L368.735 611.045L297.994 639.341" stroke="#CCCCCC" stroke-width="0.401072" stroke-miterlimit="10"/>
<path d="M398.28 493.282C401.038 493.282 403.274 491.046 403.274 488.288C403.274 485.53 401.038 483.295 398.28 483.295C395.522 483.295 393.287 485.53 393.287 488.288C393.287 491.046 395.522 493.282 398.28 493.282Z" fill="#333333"/>
<path d="M350.01 332.658C351.848 332.658 353.339 331.168 353.339 329.329C353.339 327.49 351.848 326 350.01 326C348.171 326 346.681 327.49 346.681 329.329C346.681 331.168 348.171 332.658 350.01 332.658Z" fill="#333333"/>
<path d="M409.099 346.806C410.938 346.806 412.428 345.316 412.428 343.477C412.428 341.639 410.938 340.148 409.099 340.148C407.26 340.148 405.77 341.639 405.77 343.477C405.77 345.316 407.26 346.806 409.099 346.806Z" fill="#333333"/>
<path d="M233.495 588.158C235.793 588.158 237.656 586.295 237.656 583.997C237.656 581.698 235.793 579.835 233.495 579.835C231.197 579.835 229.334 581.698 229.334 583.997C229.334 586.295 231.197 588.158 233.495 588.158Z" fill="#333333"/>
<path d="M170.244 532.397C173.002 532.397 175.238 530.162 175.238 527.404C175.238 524.646 173.002 522.41 170.244 522.41C167.487 522.41 165.251 524.646 165.251 527.404C165.251 530.162 167.487 532.397 170.244 532.397Z" fill="#333333"/>
<path d="M303.82 476.221L350.426 505.349L281.349 517.001L303.404 476.221L299.658 402.983L376.225 485.375L296.329 547.794L257.214 469.563" stroke="#CCCCCC" stroke-width="0.401072" stroke-miterlimit="10"/>
<path d="M296.746 551.539C298.585 551.539 300.075 550.049 300.075 548.21C300.075 546.371 298.585 544.881 296.746 544.881C294.907 544.881 293.417 546.371 293.417 548.21C293.417 550.049 294.907 551.539 296.746 551.539Z" fill="#333333"/>
<path d="M108.658 591.487C110.497 591.487 111.987 589.996 111.987 588.158C111.987 586.319 110.497 584.829 108.658 584.829C106.82 584.829 105.329 586.319 105.329 588.158C105.329 589.996 106.82 591.487 108.658 591.487Z" fill="#333333"/>
<path d="M166.083 618.119C167.921 618.119 169.412 616.628 169.412 614.79C169.412 612.951 167.921 611.461 166.083 611.461C164.244 611.461 162.754 612.951 162.754 614.79C162.754 616.628 164.244 618.119 166.083 618.119Z" fill="#808080"/>
<path d="M363.326 542.384C365.164 542.384 366.655 540.894 366.655 539.055C366.655 537.217 365.164 535.726 363.326 535.726C361.487 535.726 359.997 537.217 359.997 539.055C359.997 540.894 361.487 542.384 363.326 542.384Z" fill="#808080"/>
<path d="M368.319 613.125C369.239 613.125 369.984 612.38 369.984 611.461C369.984 610.541 369.239 609.796 368.319 609.796C367.4 609.796 366.655 610.541 366.655 611.461C366.655 612.38 367.4 613.125 368.319 613.125Z" fill="#333333"/>
<path d="M172.741 588.158C173.66 588.158 174.406 587.413 174.406 586.493C174.406 585.574 173.66 584.829 172.741 584.829C171.822 584.829 171.077 585.574 171.077 586.493C171.077 587.413 171.822 588.158 172.741 588.158Z" fill="#333333"/>
<path d="M350.01 507.43C350.929 507.43 351.674 506.685 351.674 505.765C351.674 504.846 350.929 504.101 350.01 504.101C349.09 504.101 348.345 504.846 348.345 505.765C348.345 506.685 349.09 507.43 350.01 507.43Z" fill="#333333"/>
<path d="M384.132 405.896C385.051 405.896 385.796 405.151 385.796 404.231C385.796 403.312 385.051 402.567 384.132 402.567C383.213 402.567 382.467 403.312 382.467 404.231C382.467 405.151 383.213 405.896 384.132 405.896Z" fill="#333333"/>
<path d="M404.938 575.674C407.696 575.674 409.931 573.438 409.931 570.681C409.931 567.923 407.696 565.687 404.938 565.687C402.18 565.687 399.944 567.923 399.944 570.681C399.944 573.438 402.18 575.674 404.938 575.674Z" fill="#333333"/>
<path d="M439.892 611.461C441.271 611.461 442.389 610.343 442.389 608.964C442.389 607.585 441.271 606.467 439.892 606.467C438.513 606.467 437.396 607.585 437.396 608.964C437.396 610.343 438.513 611.461 439.892 611.461Z" fill="#333333"/>
<path d="M300.907 406.728C302.286 406.728 303.404 405.61 303.404 404.231C303.404 402.852 302.286 401.734 300.907 401.734C299.528 401.734 298.41 402.852 298.41 404.231C298.41 405.61 299.528 406.728 300.907 406.728Z" fill="#333333"/>
<path d="M280.933 519.914C282.312 519.914 283.43 518.796 283.43 517.417C283.43 516.038 282.312 514.92 280.933 514.92C279.554 514.92 278.437 516.038 278.437 517.417C278.437 518.796 279.554 519.914 280.933 519.914Z" fill="#333333"/>
<path d="M412.428 399.238C413.807 399.238 414.925 398.12 414.925 396.741C414.925 395.362 413.807 394.244 412.428 394.244C411.049 394.244 409.932 395.362 409.932 396.741C409.932 398.12 411.049 399.238 412.428 399.238Z" fill="#333333"/>
<path d="M303.404 479.966C305.242 479.966 306.733 478.475 306.733 476.637C306.733 474.798 305.242 473.308 303.404 473.308C301.565 473.308 300.075 474.798 300.075 476.637C300.075 478.475 301.565 479.966 303.404 479.966Z" fill="#333333"/>
<g opacity="0.6" filter="url(#filter0_f_98_2170)">
<ellipse cx="596" cy="573.112" rx="419" ry="223.112" fill="#B5FFED"/>
</g>
<defs>
<filter id="filter0_f_98_2170" x="-173" y="0" width="1538" height="1146.22" filterUnits="userSpaceOnUse" color-interpolation-filters="sRGB">
<feFlood flood-opacity="0" result="BackgroundImageFix"/>
<feBlend mode="normal" in="SourceGraphic" in2="BackgroundImageFix" result="shape"/>
<feGaussianBlur stdDeviation="175" result="effect1_foregroundBlur_98_2170"/>
</filter>
</defs>
</svg>
