<svg xmlns="http://www.w3.org/2000/svg" width="48" height="48" viewBox="0 0 48 48" fill="none">
  <g clip-path="url(#clip0_98_2068)">
    <g filter="url(#filter0_f_98_2068)">
      <circle cx="18" cy="27" r="13" fill="#97F5DE"/>
    </g>
    <path d="M37.524 34.9202L45.4807 42.903C46.2136 43.5964 46.2136 44.7874 45.5067 45.4809C44.7738 46.2138 43.6222 46.2138 42.902 45.4943L34.9326 37.5376C33.3749 38.8199 31.6345 39.8802 29.7767 40.6257C27.3947 41.6466 24.8034 42.1701 22.0813 42.1701C19.3853 42.1701 16.7679 41.6466 14.4127 40.6257H14.3867C11.952 39.6181 9.72747 38.139 7.86897 36.2813V36.3073C6.01122 34.4488 4.51877 32.2242 3.49858 29.7635L3.47186 29.6588C2.52958 27.317 1.9668 24.7516 1.9668 22.069C1.9668 19.3729 2.52963 16.7556 3.49863 14.387C4.53222 11.927 6.03723 9.70177 7.86902 7.85663C11.4939 4.21834 16.5192 1.96777 22.0813 1.96777C24.8033 1.96777 27.3947 2.51724 29.7499 3.49885H29.7766C32.2232 4.50643 34.4611 6.01149 36.2936 7.85663L36.3723 7.93534C38.1907 9.79379 39.6565 11.9791 40.6514 14.387L40.6908 14.4916C41.6456 16.8343 42.1824 19.3989 42.1824 22.0689C42.1824 24.7776 41.6329 27.3949 40.6514 29.7635C39.8792 31.648 38.8063 33.3759 37.524 34.9202ZM29.2532 14.9758C29.9593 14.217 31.1376 14.217 31.8572 14.9758C32.5766 15.6826 32.5766 16.8602 31.8572 17.5805L20.2362 29.1881C19.5167 29.9076 18.3517 29.9076 17.6322 29.1881L17.5535 29.1094L12.2928 23.8354C11.586 23.1419 11.586 21.9509 12.2928 21.2574C13.0257 20.5246 14.2033 20.5246 14.9102 21.2574L18.9271 25.2885L29.2532 14.9758ZM28.3495 6.90174C26.4265 6.12952 24.3058 5.67141 22.0813 5.67141C15.4722 5.67141 9.41336 9.72849 6.90072 15.7874C6.10253 17.6979 5.67034 19.8311 5.67034 22.069C5.67034 24.2675 6.08917 26.3614 6.8747 28.2593L6.90072 28.3372C7.72487 30.3657 8.9552 32.1455 10.4737 33.6766C11.9787 35.195 13.7845 36.4119 15.7997 37.2495C17.7235 38.0477 19.8567 38.5058 22.0813 38.5058C24.3058 38.5058 26.4264 38.0477 28.3495 37.2495C32.3672 35.5744 35.5868 32.3683 37.2485 28.3372C38.0475 26.4267 38.4922 24.2935 38.4922 22.069C38.4922 19.8704 38.0734 17.8025 37.2879 15.8921L37.2485 15.7874C36.4243 13.8116 35.2467 12.0444 33.7676 10.5527L33.6763 10.4481C32.1579 8.95627 30.3521 7.72594 28.3495 6.90174Z" fill="#252525"/>
  </g>
  <defs>
    <filter id="filter0_f_98_2068" x="-3" y="6" width="42" height="42" filterUnits="userSpaceOnUse" color-interpolation-filters="sRGB">
      <feFlood flood-opacity="0" result="BackgroundImageFix"/>
      <feBlend mode="normal" in="SourceGraphic" in2="BackgroundImageFix" result="shape"/>
      <feGaussianBlur stdDeviation="4" result="effect1_foregroundBlur_98_2068"/>
    </filter>
    <clipPath id="clip0_98_2068">
      <rect width="48" height="48" fill="white"/>
    </clipPath>
  </defs>
</svg>