<svg xmlns="http://www.w3.org/2000/svg" width="48" height="48" viewBox="0 0 48 48" fill="none">
  <g clip-path="url(#clip0_98_2089)">
    <g filter="url(#filter0_f_98_2089)">
      <path d="M19.1555 11L34.9268 11.6813L30.6624 20.5873L39 22.7854L16 45L17.1583 23.8168L19.1555 11Z" fill="#C7B7FF"/>
    </g>
    <path d="M17.0634 28.5885L13.8368 43.9102C13.8368 43.9103 13.8368 43.9104 13.8367 43.9105C13.7238 44.4317 13.7878 44.9748 14.0188 45.4569C14.2498 45.9389 14.635 46.3333 15.1153 46.5803C15.4787 46.771 15.8843 46.8713 16.2963 46.8724H16.2967C16.6302 46.8719 16.9603 46.8058 17.2674 46.6779C17.5743 46.5501 17.8522 46.3632 18.0844 46.1282L17.0634 28.5885ZM17.0634 28.5885L11.5402 27.7831C11.2094 27.7349 10.8917 27.6222 10.6058 27.4516C10.3199 27.281 10.0717 27.0559 9.87579 26.7895C9.67988 26.5231 9.5403 26.2209 9.46538 25.9006C9.39045 25.5803 9.38172 25.2484 9.43971 24.9248C9.43971 24.9247 9.43972 24.9247 9.43972 24.9247L13.1402 4.23993L13.1403 4.23943C13.2482 3.65381 13.5683 3.12657 14.041 2.7546C14.5136 2.38268 15.1071 2.19093 15.7122 2.21426L17.0634 28.5885ZM18.0847 46.1278L37.2907 26.8478C37.2907 26.8478 37.2907 26.8478 37.2907 26.8478C37.623 26.5145 37.852 26.0953 37.9508 25.639C38.0496 25.1826 38.0141 24.7081 37.8484 24.2708C37.6827 23.8336 37.3937 23.4518 37.0155 23.1698C36.6372 22.8878 36.1852 22.7172 35.7122 22.6775L29.6169 22.1665L38.288 6.62673L38.288 6.62666C38.4927 6.25919 38.5984 5.84645 38.5951 5.42753C38.5918 5.00861 38.4795 4.59755 38.269 4.23325C38.0586 3.86896 37.7569 3.56355 37.3928 3.34574C37.0287 3.12794 36.614 3.00488 36.1881 2.98806L36.1879 2.98805L15.7122 2.21426L18.0847 46.1278ZM17.8273 25.8804L17.8273 25.8804L12.2957 25.0733L15.8941 5.00545L35.5428 5.75455L26.873 21.2733L26.8728 21.2735C26.6739 21.6324 26.5691 22.0342 26.5681 22.4429C26.5671 22.8515 26.6699 23.2539 26.8671 23.6136C27.0644 23.9733 27.3497 24.2791 27.6972 24.5034C28.0448 24.7277 28.4437 24.8635 28.8579 24.8988L28.858 24.8988L34.759 25.3972L16.8503 43.376L19.9127 28.8113C19.9817 28.4835 19.9817 28.1453 19.9129 27.8174C19.844 27.4896 19.7077 27.179 19.5124 26.9047C19.3171 26.6305 19.0669 26.3983 18.7772 26.2222C18.4875 26.0461 18.1643 25.9299 17.8273 25.8804Z" fill="#2E3138" stroke="#252525" stroke-width="0.193333"/>
  </g>
  <defs>
    <filter id="filter0_f_98_2089" x="10.134" y="5.134" width="34.732" height="45.732" filterUnits="userSpaceOnUse" color-interpolation-filters="sRGB">
      <feFlood flood-opacity="0" result="BackgroundImageFix"/>
      <feBlend mode="normal" in="SourceGraphic" in2="BackgroundImageFix" result="shape"/>
      <feGaussianBlur stdDeviation="2.933" result="effect1_foregroundBlur_98_2089"/>
    </filter>
    <clipPath id="clip0_98_2089">
      <rect width="48" height="48" fill="white"/>
    </clipPath>
  </defs>
</svg>