<svg width="100" height="100" viewBox="0 0 100 100" fill="none" xmlns="http://www.w3.org/2000/svg">
<g clip-path="url(#clip0_98_2129)">
<path d="M61.7073 33.6896C61.7073 35.2247 61.4049 36.7447 60.8175 38.163C60.23 39.5812 59.369 40.8699 58.2835 41.9554C57.198 43.0408 55.9094 43.9019 54.4911 44.4893C53.0729 45.0768 51.5528 45.3792 50.0177 45.3792C48.4826 45.3792 46.9625 45.0768 45.5443 44.4893C44.1261 43.9019 42.8374 43.0408 41.7519 41.9554C40.6664 40.8699 39.8054 39.5812 39.2179 38.163C38.6305 36.7447 38.3281 35.2247 38.3281 33.6896C38.3281 30.5893 39.5597 27.616 41.7519 25.4238C43.9441 23.2316 46.9174 22 50.0177 22C53.118 22 56.0913 23.2316 58.2835 25.4238C60.4757 27.616 61.7073 30.5893 61.7073 33.6896Z" fill="#97F5DE"/>
<path d="M84.0143 49.255C84.0306 50.2467 83.8493 51.2316 83.481 52.1524C83.1127 53.0733 82.5649 53.9116 81.8694 54.6186C81.1739 55.3256 80.3446 55.8871 79.4299 56.2704C78.5152 56.6536 77.5334 56.851 76.5416 56.851C75.5498 56.851 74.568 56.6536 73.6533 56.2704C72.7386 55.8871 71.9093 55.3256 71.2138 54.6186C70.5183 53.9116 69.9705 53.0733 69.6022 52.1524C69.2339 51.2316 69.0526 50.2467 69.0689 49.255C69.1009 47.2943 69.9024 45.4248 71.3003 44.0495C72.6982 42.6743 74.5806 41.9036 76.5416 41.9036C78.5026 41.9036 80.385 42.6743 81.7829 44.0495C83.1808 45.4248 83.9823 47.2943 84.0143 49.255Z" fill="#84B7FF"/>
<path d="M69.9089 60.9807C68.002 57.3574 65.1414 54.3241 61.6361 52.2082C58.1308 50.0923 54.1141 48.9744 50.0197 48.9751C45.9251 48.9748 41.9083 50.0931 38.403 52.2093C34.8977 54.3256 32.0372 57.3592 30.1304 60.9827C32.4626 62.1945 34.4175 64.0233 35.7819 66.2697C37.1463 68.5161 37.8679 71.0939 37.8681 73.7222V77.7461H62.1732V73.7202C62.1734 71.0922 62.8948 68.5146 64.2588 66.2682C65.6229 64.0219 67.5772 62.1929 69.9089 60.9807Z" fill="#97F5DE"/>
<path d="M76.5425 59.3507C74.232 59.3499 71.9557 59.9092 69.9087 60.9807C71.6125 64.2079 72.501 67.8029 72.4966 71.4523V77.7441H86.8881C89.112 77.7441 90.9139 75.9441 90.9139 73.7242C90.9142 71.8367 90.5427 69.9677 89.8206 68.2239C89.0984 66.48 88.0399 64.8955 86.7053 63.5607C85.3708 62.226 83.7864 61.1672 82.0426 60.4449C80.2989 59.7225 78.4299 59.3507 76.5425 59.3507Z" fill="#84B7FF"/>
<path d="M69.9091 60.9806C67.5773 62.1929 65.623 64.0218 64.2589 66.2681C62.8949 68.5145 62.1735 71.0921 62.1733 73.7201V77.746H72.497V71.4522C72.497 67.6704 71.557 64.1085 69.9091 60.9826" fill="#1CADDE"/>
<path d="M30.1303 60.9806C28.0833 59.9091 25.8069 59.3505 23.4965 59.3527C21.6095 59.3524 19.7409 59.7238 17.9974 60.4457C16.2539 61.1676 14.6697 62.2258 13.3351 63.56C12.0006 64.8941 10.942 66.4781 10.2196 68.2213C9.4972 69.9646 9.12526 71.8331 9.125 73.7202C9.125 75.9401 10.9249 77.744 13.1489 77.744H27.5423V71.4502C27.5423 67.6684 28.4803 64.1065 30.1303 60.9806Z" fill="#C7B7FF"/>
<path d="M30.1304 60.9806C28.4263 64.2077 27.5378 67.8028 27.5425 71.4522V77.746H37.8661V73.7201C37.866 71.0921 37.1446 68.5145 35.7805 66.2681C34.4165 64.0218 32.4622 62.1929 30.1304 60.9806Z" fill="#5FADDE"/>
<path d="M30.9684 49.255C30.9847 50.2467 30.8034 51.2316 30.4351 52.1524C30.0668 53.0733 29.519 53.9116 28.8235 54.6186C28.128 55.3256 27.2987 55.8871 26.384 56.2704C25.4693 56.6536 24.4875 56.851 23.4957 56.851C22.504 56.851 21.5221 56.6536 20.6074 56.2704C19.6927 55.8871 18.8634 55.3256 18.1679 54.6186C17.4724 53.9116 16.9246 53.0733 16.5563 52.1524C16.1881 51.2316 16.0067 50.2467 16.023 49.255C16.055 47.2943 16.8565 45.4248 18.2544 44.0495C19.6523 42.6743 21.5347 41.9036 23.4957 41.9036C25.4567 41.9036 27.3391 42.6743 28.737 44.0495C30.135 45.4248 30.9364 47.2943 30.9684 49.255Z" fill="#C7B7FF"/>
</g>
<path d="M14.8125 52.249C7.46083 54.3314 3 57.0667 3 60.0625C3 66.5863 24.1545 71.875 50.25 71.875C76.3455 71.875 97.5 66.5863 97.5 60.0625C97.5 57.0667 93.0392 54.3314 85.6875 52.249" stroke="black" stroke-width="0.5"/>
<circle cx="5.1875" cy="63.5625" r="2.1875" fill="#252525"/>
<defs>
<clipPath id="clip0_98_2129">
<rect width="81.9766" height="56" fill="white" transform="translate(9.125 22)"/>
</clipPath>
</defs>
</svg>
