<svg width="40" height="40" viewBox="0 0 40 40" fill="none" xmlns="http://www.w3.org/2000/svg">
<circle opacity="0.5" cx="20" cy="20" r="20" fill="white"/>
<path fill-rule="evenodd" clip-rule="evenodd" d="M9.51239 18.8494C15.418 16.2764 19.3559 14.5802 21.3263 13.7606C26.9521 11.4207 28.1211 11.0142 28.883 11.0008C29.0506 10.9978 29.4253 11.0393 29.668 11.2363C29.873 11.4026 29.9294 11.6272 29.9563 11.7849C29.9833 11.9426 30.0169 12.3017 29.9902 12.5824C29.6854 15.7856 28.3662 23.559 27.6951 27.1467C27.4111 28.6648 26.852 29.1738 26.3107 29.2236C25.1343 29.3319 24.2409 28.4462 23.1015 27.6993C21.3186 26.5305 20.3113 25.803 18.5807 24.6625C16.5806 23.3445 17.8772 22.6201 19.017 21.4362C19.3153 21.1263 24.4986 16.4117 24.5989 15.984C24.6115 15.9306 24.6231 15.7312 24.5046 15.6259C24.3862 15.5206 24.2114 15.5566 24.0852 15.5852C23.9064 15.6258 21.0581 17.5084 15.5404 21.2331C14.7319 21.7883 13.9996 22.0587 13.3435 22.0446C12.6202 22.0289 11.2288 21.6356 10.1945 21.2994C8.92583 20.887 7.91753 20.669 8.00533 19.9686C8.05106 19.6038 8.55341 19.2307 9.51239 18.8494Z" fill="#252525"/>
</svg>
