<svg width="28" height="24" viewBox="0 0 28 24" fill="none" xmlns="http://www.w3.org/2000/svg">
<path fill-rule="evenodd" clip-rule="evenodd" d="M1.92485 9.98935C9.44103 6.71467 14.453 4.5558 16.9607 3.51274C24.1209 0.5346 25.6087 0.0172649 26.5784 0.00018214C26.7917 -0.00357502 27.2686 0.0492831 27.5775 0.29994C27.8383 0.511591 27.9101 0.7975 27.9444 0.998167C27.9788 1.19884 28.0215 1.65596 27.9876 2.01315C27.5995 6.09 25.9206 15.9834 25.0665 20.5496C24.7051 22.4817 23.9934 23.1295 23.3045 23.1929C21.8072 23.3307 20.6703 22.2034 19.2201 21.2528C16.9509 19.7653 15.669 18.8394 13.4663 17.3878C10.9207 15.7104 12.5709 14.7884 14.0216 13.2816C14.4013 12.8873 20.9982 6.88689 21.1259 6.34256C21.1419 6.27448 21.1567 6.02072 21.0059 5.88672C20.8552 5.75273 20.6327 5.79855 20.4721 5.83499C20.2445 5.88665 16.6194 8.2827 9.59681 13.0232C8.56784 13.7297 7.63583 14.074 6.80078 14.0559C5.8802 14.0361 4.10939 13.5354 2.79297 13.1075C1.17832 12.5827 -0.104962 12.3052 0.00678326 11.4138C0.0649872 10.9495 0.704344 10.4747 1.92485 9.98935Z" fill="white"/>
</svg>
