<svg width="33" height="32" viewBox="0 0 33 32" fill="none" xmlns="http://www.w3.org/2000/svg">
<circle cx="16.6001" cy="16" r="16" fill="#252525"/>
<path fill-rule="evenodd" clip-rule="evenodd" d="M8.90021 15.09C13.1952 13.2426 16.0591 12.0246 17.4921 11.4362C21.5836 9.75606 22.4338 9.46421 22.988 9.45457C23.1098 9.45245 23.3823 9.48227 23.5589 9.62368C23.7079 9.74308 23.7489 9.90438 23.7685 10.0176C23.7882 10.1308 23.8126 10.3887 23.7932 10.5902C23.5715 12.8902 22.6121 18.4716 22.124 21.0476C21.9175 22.1376 21.5108 22.5031 21.1171 22.5388C20.2616 22.6166 19.6119 21.9806 18.7832 21.4443C17.4865 20.6052 16.754 20.0828 15.4953 19.2639C14.0407 18.3175 14.9837 17.7974 15.8127 16.9473C16.0296 16.7249 19.7993 13.3397 19.8722 13.0326C19.8814 12.9942 19.8898 12.8511 19.8037 12.7755C19.7175 12.6999 19.5904 12.7257 19.4986 12.7463C19.3686 12.7754 17.2971 14.1272 13.2842 16.8015C12.6962 17.2001 12.1636 17.3944 11.6865 17.3842C11.1604 17.373 10.1485 17.0905 9.39627 16.8491C8.47362 16.553 7.74031 16.3965 7.80417 15.8936C7.83743 15.6317 8.20278 15.3638 8.90021 15.09Z" fill="white"/>
</svg>
