<svg width="25" height="22" viewBox="0 0 25 22" fill="none" xmlns="http://www.w3.org/2000/svg">
<path d="M21.9331 5.99779C21.9492 6.22753 21.9493 6.45596 21.9493 6.68439C21.9493 13.6752 16.9079 21.7306 7.69455 21.7306C4.85605 21.7306 2.21906 20.8628 0 19.3557C0.403012 19.4043 0.791098 19.4214 1.21028 19.4214C3.4654 19.4271 5.65666 18.6312 7.43085 17.162C6.38529 17.142 5.37173 16.7779 4.5317 16.1206C3.69167 15.4632 3.0671 14.5454 2.74521 13.4953C3.05493 13.5439 3.3659 13.5767 3.69179 13.5767C4.14083 13.5767 4.59235 13.5111 5.01153 13.3968C3.87683 13.155 2.8565 12.5059 2.12405 11.5598C1.39159 10.6137 0.992223 9.42903 0.993849 8.20726V8.14162C1.6618 8.53415 2.43673 8.77965 3.25768 8.81247C2.56994 8.33012 2.00601 7.6756 1.6162 6.9073C1.2264 6.13899 1.02285 5.2808 1.0237 4.40928C1.0237 3.42729 1.27123 2.52669 1.70534 1.74163C2.9643 3.37611 4.53452 4.71327 6.31428 5.66651C8.09404 6.61974 10.0437 7.16779 12.0369 7.27516C11.9598 6.88131 11.9125 6.47303 11.9125 6.06343C11.9122 5.3689 12.0415 4.6811 12.2932 4.03937C12.5449 3.39764 12.9139 2.81456 13.3793 2.32345C13.8446 1.83234 14.397 1.44284 15.005 1.17722C15.6131 0.91159 16.2647 0.775046 16.9228 0.775391C18.3657 0.775391 19.668 1.41342 20.5835 2.4453C21.7052 2.21636 22.7808 1.78419 23.7628 1.16792C23.3889 2.38992 22.6057 3.42611 21.5599 4.08238C22.5547 3.96263 23.527 3.68651 24.4444 3.26318C23.7592 4.31751 22.9102 5.24205 21.9331 5.99779Z" fill="white"/>
</svg>
